Literata-M1Italic.ufo
<glyph name="exclam" format="2">
	<unicode hex="0021"/>
	<advance width="337"/>
	<outline>
		<contour>
			<point x="144" y="533" type="curve" smooth="yes"/>
			<point x="144" y="194" type="line"/>
			<point x="199" y="194" type="line"/>
			<point x="216" y="486"/>
			<point x="239" y="605"/>
			<point x="268" y="691" type="curve"/>
			<point x="256" y="703"/>
			<point x="234" y="715"/>
			<point x="209" y="715" type="curve" smooth="yes"/>
			<point x="173" y="715"/>
			<point x="145" y="695"/>
			<point x="145" y="651" type="curve" smooth="yes"/>
			<point x="145" y="615"/>
			<point x="144" y="571"/>
		</contour>
		<contour>
			<point x="97" y="50" type="curve" smooth="yes"/>
			<point x="97" y="9"/>
			<point x="124" y="-14"/>
			<point x="165" y="-14" type="curve" smooth="yes"/>
			<point x="206" y="-14"/>
			<point x="238" y="10"/>
			<point x="238" y="51" type="curve" smooth="yes"/>
			<point x="238" y="92"/>
			<point x="211" y="119"/>
			<point x="170" y="119" type="curve" smooth="yes"/>
			<point x="129" y="119"/>
			<point x="97" y="92"/>
		</contour>
	</outline>
</glyph>
<glyph name="percent" format="2">
	<unicode hex="0025"/>
	<advance width="915"/>
	<outline>
		<contour>
			<point x="622" y="597" type="line"/>
			<point x="212" y="-11" type="line"/>
			<point x="293" y="-11" type="line"/>
			<point x="702" y="597" type="line"/>
		</contour>
		<contour>
			<point x="66" y="430" type="curve" smooth="yes"/>
			<point x="66" y="339"/>
			<point x="123" y="274"/>
			<point x="220" y="274" type="curve" smooth="yes"/>
			<point x="311" y="274"/>
			<point x="388" y="333"/>
			<point x="388" y="442" type="curve" smooth="yes"/>
			<point x="388" y="551"/>
			<point x="313" y="597"/>
			<point x="236" y="597" type="curve" smooth="yes"/>
			<point x="152" y="597"/>
			<point x="66" y="553"/>
		</contour>
		<contour>
			<point x="143" y="434" type="curve" smooth="yes"/>
			<point x="143" y="510"/>
			<point x="178" y="547"/>
			<point x="226" y="547" type="curve" smooth="yes"/>
			<point x="280" y="547"/>
			<point x="310" y="509"/>
			<point x="310" y="441" type="curve" smooth="yes"/>
			<point x="310" y="364"/>
			<point x="278" y="326"/>
			<point x="226" y="326" type="curve" smooth="yes"/>
			<point x="169" y="326"/>
			<point x="143" y="376"/>
		</contour>
		<contour>
			<point x="524" y="145" type="curve" smooth="yes"/>
			<point x="524" y="54"/>
			<point x="581" y="-11"/>
			<point x="678" y="-11" type="curve" smooth="yes"/>
			<point x="769" y="-11"/>
			<point x="846" y="48"/>
			<point x="846" y="157" type="curve" smooth="yes"/>
			<point x="846" y="266"/>
			<point x="771" y="312"/>
			<point x="694" y="312" type="curve" smooth="yes"/>
			<point x="610" y="312"/>
			<point x="524" y="268"/>
		</contour>
		<contour>
			<point x="601" y="149" type="curve" smooth="yes"/>
			<point x="601" y="225"/>
			<point x="636" y="262"/>
			<point x="684" y="262" type="curve" smooth="yes"/>
			<point x="738" y="262"/>
			<point x="768" y="224"/>
			<point x="768" y="156" type="curve" smooth="yes"/>
			<point x="768" y="78"/>
			<point x="735" y="41"/>
			<point x="684" y="41" type="curve" smooth="yes"/>
			<point x="627" y="41"/>
			<point x="601" y="91"/>
		</contour>
	</outline>
</glyph>
<glyph name="parenright" format="2">
	<unicode hex="0029"/>
	<advance width="370"/>
	<outline>
		<contour>
			<point x="293" y="325" type="curve"/>
			<point x="293" y="538"/>
			<point x="192" y="732"/>
			<point x="116" y="817" type="curve"/>
			<point x="73" y="793" type="line"/>
			<point x="133" y="678"/>
			<point x="197" y="499"/>
			<point x="197" y="324" type="curve" smooth="yes"/>
			<point x="197" y="151"/>
			<point x="141" y="-28"/>
			<point x="36" y="-187" type="curve"/>
			<point x="79" y="-211" type="line"/>
			<point x="223" y="-54"/>
			<point x="294" y="140"/>
		</contour>
	</outline>
</glyph>
<glyph name="comma" format="2">
	<unicode hex="002C"/>
	<advance width="331"/>
	<outline>
		<contour>
			<point x="116" y="-168" type="line"/>
			<point x="199" y="-113"/>
			<point x="253" y="-35"/>
			<point x="253" y="31" type="curve" smooth="yes"/>
			<point x="253" y="86"/>
			<point x="222" y="121"/>
			<point x="175" y="121" type="curve" smooth="yes"/>
			<point x="119" y="121"/>
			<point x="88" y="70"/>
			<point x="110" y="14" type="curve"/>
			<point x="140" y="4" type="line" smooth="yes"/>
			<point x="157" y="-2"/>
			<point x="164" y="-11"/>
			<point x="164" y="-26" type="curve" smooth="yes"/>
			<point x="164" y="-51"/>
			<point x="134" y="-89"/>
			<point x="85" y="-126" type="curve"/>
		</contour>
	</outline>
</glyph>
<glyph name="period" format="2">
	<unicode hex="002E"/>
	<advance width="319"/>
	<outline>
		<contour>
			<point x="89" y="50" type="curve" smooth="yes"/>
			<point x="89" y="7"/>
			<point x="120" y="-17"/>
			<point x="164" y="-17" type="curve" smooth="yes"/>
			<point x="210" y="-17"/>
			<point x="246" y="11"/>
			<point x="246" y="59" type="curve" smooth="yes"/>
			<point x="246" y="100"/>
			<point x="215" y="128"/>
			<point x="169" y="128" type="curve" smooth="yes"/>
			<point x="121" y="128"/>
			<point x="89" y="95"/>
		</contour>
	</outline>
</glyph>
<glyph name="three" format="2">
	<unicode hex="0033"/>
	<advance width="580"/>
	<outline>
		<contour>
			<point x="502" y="551" type="curve" smooth="yes"/>
			<point x="502" y="652"/>
			<point x="425" y="715"/>
			<point x="295" y="715" type="curve" smooth="yes"/>
			<point x="167" y="715"/>
			<point x="70" y="638"/>
			<point x="70" y="557" type="curve" smooth="yes"/>
			<point x="70" y="518"/>
			<point x="94" y="493"/>
			<point x="135" y="493" type="curve" smooth="yes"/>
			<point x="167" y="493"/>
			<point x="192" y="512"/>
			<point x="203" y="538" type="curve"/>
			<point x="180" y="562" type="line" smooth="yes"/>
			<point x="138" y="606"/>
			<point x="183" y="652"/>
			<point x="280" y="652" type="curve" smooth="yes"/>
			<point x="360" y="652"/>
			<point x="408" y="618"/>
			<point x="408" y="544" type="curve" smooth="yes"/>
			<point x="408" y="452"/>
			<point x="328" y="397"/>
			<point x="191" y="382" type="curve"/>
			<point x="199" y="325" type="line"/>
			<point x="221" y="329"/>
			<point x="249" y="331"/>
			<point x="276" y="331" type="curve" smooth="yes"/>
			<point x="374" y="331"/>
			<point x="433" y="295"/>
			<point x="433" y="216" type="curve" smooth="yes"/>
			<point x="433" y="111"/>
			<point x="347" y="49"/>
			<point x="227" y="49" type="curve" smooth="yes"/>
			<point x="163" y="49"/>
			<point x="131" y="80"/>
			<point x="155" y="119" type="curve" smooth="yes"/>
			<point x="172" y="146" type="line"/>
			<point x="161" y="167"/>
			<point x="141" y="182"/>
			<point x="114" y="182" type="curve" smooth="yes"/>
			<point x="70" y="182"/>
			<point x="42" y="148"/>
			<point x="42" y="108" type="curve" smooth="yes"/>
			<point x="42" y="35"/>
			<point x="122" y="-14"/>
			<point x="224" y="-14" type="curve" smooth="yes"/>
			<point x="402" y="-14"/>
			<point x="534" y="88"/>
			<point x="534" y="218" type="curve" smooth="yes"/>
			<point x="534" y="316"/>
			<point x="473" y="366"/>
			<point x="356" y="376" type="curve"/>
			<point x="356" y="384" type="line"/>
			<point x="446" y="414"/>
			<point x="502" y="472"/>
		</contour>
	</outline>
</glyph>
<glyph name="seven" format="2">
	<unicode hex="0037"/>
	<advance width="570"/>
	<outline>
		<contour>
			<point x="186" y="0" type="line"/>
			<point x="297" y="0" type="line"/>
			<point x="575" y="649" type="line"/>
			<point x="566" y="700" type="line"/>
			<point x="86" y="700" type="line"/>
			<point x="59" y="513" type="line"/>
			<point x="112" y="505" type="line"/>
			<point x="129" y="558" type="line" smooth="yes"/>
			<point x="144" y="606"/>
			<point x="169" y="616"/>
			<point x="219" y="616" type="curve" smooth="yes"/>
			<point x="499" y="616" type="line"/>
			<point x="179" y="10" type="line"/>
		</contour>
	</outline>
</glyph>
<glyph name="nine" format="2">
	<unicode hex="0039"/>
	<advance width="600"/>
	<outline>
		<contour>
			<point x="257" y="-13" type="curve" smooth="yes"/>
			<point x="437" y="-13"/>
			<point x="554" y="149"/>
			<point x="554" y="392" type="curve" smooth="yes"/>
			<point x="554" y="599"/>
			<point x="464" y="715"/>
			<point x="311" y="715" type="curve" smooth="yes"/>
			<point x="168" y="715"/>
			<point x="67" y="601"/>
			<point x="67" y="463" type="curve" smooth="yes"/>
			<point x="67" y="330"/>
			<point x="156" y="248"/>
			<point x="271" y="248" type="curve" smooth="yes"/>
			<point x="337" y="248"/>
			<point x="403" y="274"/>
			<point x="459" y="359" type="curve"/>
			<point x="463" y="356" type="line"/>
			<point x="445" y="138"/>
			<point x="365" y="51"/>
			<point x="254" y="51" type="curve" smooth="yes"/>
			<point x="194" y="51"/>
			<point x="141" y="82"/>
			<point x="94" y="129" type="curve"/>
			<point x="59" y="90" type="line"/>
			<point x="98" y="28"/>
			<point x="164" y="-13"/>
		</contour>
		<contour>
			<point x="287" y="318" type="curve" smooth="yes"/>
			<point x="221" y="318"/>
			<point x="163" y="366"/>
			<point x="163" y="475" type="curve" smooth="yes"/>
			<point x="163" y="578"/>
			<point x="221" y="650"/>
			<point x="313" y="650" type="curve" smooth="yes"/>
			<point x="399" y="650"/>
			<point x="464" y="565"/>
			<point x="458" y="440" type="curve"/>
			<point x="415" y="363"/>
			<point x="345" y="318"/>
		</contour>
	</outline>
</glyph>
<glyph name="less" format="2">
	<unicode hex="003C"/>
	<advance width="620"/>
	<outline>
		<contour>
			<point x="437" y="37" type="line"/>
			<point x="475" y="97" type="line"/>
			<point x="165" y="281" type="line"/>
			<point x="490" y="470" type="line"/>
			<point x="455" y="532" type="line"/>
			<point x="69" y="305" type="line"/>
			<point x="67" y="263" type="line"/>
		</contour>
	</outline>
</glyph>
<glyph name="greater" format="2">
	<unicode hex="003E"/>
	<advance width="620"/>
	<outline>
		<contour>
			<point x="159" y="37" type="line"/>
			<point x="545" y="263" type="line"/>
			<point x="547" y="305" type="line"/>
			<point x="177" y="532" type="line"/>
			<point x="140" y="473" type="line"/>
			<point x="449" y="287" type="line"/>
			<point x="125" y="100" type="line"/>
		</contour>
	</outline>
</glyph>
<glyph name="question" format="2">
	<unicode hex="003F"/>
	<advance width="512"/>
	<outline>
		<contour>
			<point x="173" y="382" type="curve"/>
			<point x="211" y="194" type="line"/>
			<point x="282" y="194" type="line"/>
			<point x="254" y="323" type="line"/>
			<point x="398" y="369"/>
			<point x="457" y="449"/>
			<point x="457" y="547" type="curve" smooth="yes"/>
			<point x="457" y="662"/>
			<point x="371" y="715"/>
			<point x="266" y="715" type="curve" smooth="yes"/>
			<point x="157" y="715"/>
			<point x="66" y="652"/>
			<point x="66" y="560" type="curve" smooth="yes"/>
			<point x="66" y="522"/>
			<point x="86" y="493"/>
			<point x="127" y="493" type="curve" smooth="yes"/>
			<point x="157" y="493"/>
			<point x="181" y="515"/>
			<point x="191" y="539" type="curve"/>
			<point x="172" y="560" type="line" smooth="yes"/>
			<point x="132" y="604"/>
			<point x="162" y="652"/>
			<point x="251" y="652" type="curve" smooth="yes"/>
			<point x="328" y="652"/>
			<point x="370" y="620"/>
			<point x="370" y="552" type="curve" smooth="yes"/>
			<point x="370" y="474"/>
			<point x="304" y="410"/>
		</contour>
		<contour>
			<point x="175" y="50" type="curve" smooth="yes"/>
			<point x="175" y="9"/>
			<point x="202" y="-14"/>
			<point x="243" y="-14" type="curve" smooth="yes"/>
			<point x="284" y="-14"/>
			<point x="316" y="10"/>
			<point x="316" y="51" type="curve" smooth="yes"/>
			<point x="316" y="92"/>
			<point x="289" y="119"/>
			<point x="248" y="119" type="curve" smooth="yes"/>
			<point x="207" y="119"/>
			<point x="175" y="92"/>
		</contour>
	</outline>
</glyph>
<glyph name="at" format="2">
	<unicode hex="0040"/>
	<advance width="940"/>
	<outline>
		<contour>
			<point x="461" y="-183" type="curve" smooth="yes"/>
			<point x="570" y="-183"/>
			<point x="658" y="-153"/>
			<point x="722" y="-95" type="curve"/>
			<point x="685" y="-52" type="line"/>
			<point x="629" y="-95"/>
			<point x="570" y="-123"/>
			<point x="466" y="-123" type="curve" smooth="yes"/>
			<point x="324" y="-123"/>
			<point x="148" y="-52"/>
			<point x="148" y="188" type="curve" smooth="yes"/>
			<point x="148" y="394"/>
			<point x="296" y="510"/>
			<point x="491" y="510" type="curve" smooth="yes"/>
			<point x="709" y="510"/>
			<point x="808" y="404"/>
			<point x="808" y="235" type="curve" smooth="yes"/>
			<point x="808" y="116"/>
			<point x="743" y="56"/>
			<point x="693" y="56" type="curve" smooth="yes"/>
			<point x="657" y="56"/>
			<point x="646" y="80"/>
			<point x="648" y="146" type="curve" smooth="yes"/>
			<point x="656" y="395" type="line"/>
			<point x="643" y="401" type="line"/>
			<point x="586" y="379" type="line"/>
			<point x="559" y="394"/>
			<point x="519" y="402"/>
			<point x="475" y="402" type="curve" smooth="yes"/>
			<point x="367" y="402"/>
			<point x="268" y="330"/>
			<point x="268" y="156" type="curve" smooth="yes"/>
			<point x="268" y="62"/>
			<point x="312" y="-4"/>
			<point x="403" y="-4" type="curve" smooth="yes"/>
			<point x="476" y="-4"/>
			<point x="525" y="46"/>
			<point x="558" y="144" type="curve" smooth="yes"/>
			<point x="585" y="223" type="line"/>
			<point x="593" y="221" type="line"/>
			<point x="580" y="122" type="line" smooth="yes"/>
			<point x="567" y="22"/>
			<point x="603" y="-4"/>
			<point x="679" y="-4" type="curve" smooth="yes"/>
			<point x="775" y="-4"/>
			<point x="874" y="72"/>
			<point x="874" y="242" type="curve" smooth="yes"/>
			<point x="874" y="461"/>
			<point x="722" y="568"/>
			<point x="491" y="568" type="curve" smooth="yes"/>
			<point x="229" y="568"/>
			<point x="77" y="402"/>
			<point x="77" y="186" type="curve" smooth="yes"/>
			<point x="77" y="-74"/>
			<point x="262" y="-183"/>
		</contour>
		<contour>
			<point x="420" y="59" type="curve" smooth="yes"/>
			<point x="368" y="59"/>
			<point x="351" y="100"/>
			<point x="351" y="162" type="curve" smooth="yes"/>
			<point x="351" y="256"/>
			<point x="388" y="350"/>
			<point x="485" y="350" type="curve" smooth="yes"/>
			<point x="515" y="350"/>
			<point x="549" y="342"/>
			<point x="573" y="332" type="curve"/>
			<point x="541" y="230" type="line" smooth="yes"/>
			<point x="512" y="138"/>
			<point x="480" y="59"/>
		</contour>
	</outline>
</glyph>
<glyph name="A" format="2">
	<unicode hex="0041"/>
	<advance width="759"/>
	<outline>
		<contour>
			<point x="464" y="706" type="line"/>
			<point x="361" y="695" type="line"/>
			<point x="117" y="58" type="line"/>
			<point x="30" y="46" type="line"/>
			<point x="24" y="0" type="line"/>
			<point x="276" y="0" type="line"/>
			<point x="282" y="46" type="line"/>
			<point x="184" y="58" type="line"/>
			<point x="248" y="231" type="line"/>
			<point x="509" y="231" type="line"/>
			<point x="560" y="58" type="line"/>
			<point x="472" y="46" type="line"/>
			<point x="466" y="0" type="line"/>
			<point x="750" y="0" type="line"/>
			<point x="757" y="46" type="line"/>
			<point x="663" y="57" type="line"/>
		</contour>
		<contour>
			<point x="269" y="288" type="line"/>
			<point x="393" y="619" type="line"/>
			<point x="396" y="619" type="line"/>
			<point x="493" y="288" type="line"/>
		</contour>
	</outline>
	<anchor name="bottom" x="374" y="-30"/>
	<anchor name="top" x="415" y="730"/>
</glyph>
<glyph name="C" format="2">
	<unicode hex="0043"/>
	<advance width="681"/>
	<outline>
		<contour>
			<point x="532" y="571" type="curve" smooth="yes"/>
			<point x="512" y="533" type="line"/>
			<point x="530" y="513"/>
			<point x="557" y="500"/>
			<point x="586" y="500" type="curve" smooth="yes"/>
			<point x="623" y="500"/>
			<point x="649" y="527"/>
			<point x="649" y="566" type="curve" smooth="yes"/>
			<point x="649" y="648"/>
			<point x="547" y="715"/>
			<point x="416" y="715" type="curve" smooth="yes"/>
			<point x="210" y="715"/>
			<point x="71" y="563"/>
			<point x="71" y="328" type="curve" smooth="yes"/>
			<point x="71" y="119"/>
			<point x="191" y="-14"/>
			<point x="374" y="-14" type="curve" smooth="yes"/>
			<point x="486" y="-14"/>
			<point x="577" y="34"/>
			<point x="640" y="128" type="curve"/>
			<point x="599" y="168" type="line"/>
			<point x="538" y="90"/>
			<point x="471" y="55"/>
			<point x="384" y="55" type="curve" smooth="yes"/>
			<point x="253" y="55"/>
			<point x="169" y="165"/>
			<point x="169" y="337" type="curve" smooth="yes"/>
			<point x="169" y="538"/>
			<point x="258" y="652"/>
			<point x="411" y="652" type="curve" smooth="yes"/>
			<point x="505" y="652"/>
			<point x="555" y="615"/>
		</contour>
	</outline>
	<anchor name="bottom" x="367" y="-30"/>
	<anchor name="top" x="405" y="730"/>
</glyph>
<glyph name="E" format="2">
	<unicode hex="0045"/>
	<advance width="649"/>
	<outline>
		<contour>
			<point x="183" y="637" type="line"/>
			<point x="160" y="59" type="line"/>
			<point x="71" y="46" type="line"/>
			<point x="65" y="0" type="line"/>
			<point x="581" y="0" type="line"/>
			<point x="606" y="184" type="line"/>
			<point x="548" y="184" type="line"/>
			<point x="533" y="143" type="line" smooth="yes"/>
			<point x="506" y="69"/>
			<point x="478" y="58"/>
			<point x="423" y="58" type="curve" smooth="yes"/>
			<point x="250" y="58" type="line"/>
			<point x="260" y="328" type="line"/>
			<point x="528" y="328" type="line"/>
			<point x="533" y="391" type="line"/>
			<point x="261" y="391" type="line"/>
			<point x="271" y="643" type="line"/>
			<point x="425" y="643" type="line" smooth="yes"/>
			<point x="488" y="643"/>
			<point x="507" y="628"/>
			<point x="530" y="559" type="curve" smooth="yes"/>
			<point x="542" y="523" type="line"/>
			<point x="600" y="532" type="line"/>
			<point x="584" y="700" type="line"/>
			<point x="96" y="700" type="line"/>
			<point x="89" y="654" type="line"/>
		</contour>
	</outline>
	<anchor name="bottom" x="338" y="-30"/>
	<anchor name="top" x="365" y="730"/>
</glyph>
<glyph name="F" format="2">
	<unicode hex="0046"/>
	<advance width="619"/>
	<outline>
		<contour>
			<point x="71" y="46" type="line"/>
			<point x="65" y="0" type="line"/>
			<point x="383" y="0" type="line"/>
			<point x="389" y="46" type="line"/>
			<point x="250" y="58" type="line"/>
			<point x="259" y="322" type="line"/>
			<point x="518" y="322" type="line"/>
			<point x="523" y="383" type="line"/>
			<point x="262" y="383" type="line"/>
			<point x="271" y="643" type="line"/>
			<point x="427" y="643" type="line" smooth="yes"/>
			<point x="488" y="643"/>
			<point x="507" y="628"/>
			<point x="531" y="562" type="curve" smooth="yes"/>
			<point x="545" y="523" type="line"/>
			<point x="602" y="533" type="line"/>
			<point x="586" y="700" type="line"/>
			<point x="99" y="700" type="line"/>
			<point x="92" y="654" type="line"/>
			<point x="185" y="637" type="line"/>
			<point x="160" y="59" type="line"/>
		</contour>
	</outline>
</glyph>
<glyph name="G" format="2">
	<unicode hex="0047"/>
	<advance width="701"/>
	<outline>
		<contour>
			<point x="651" y="332" type="line"/>
			<point x="473" y="332" type="line"/>
			<point x="467" y="286" type="line"/>
			<point x="561" y="266" type="line"/>
			<point x="554" y="88" type="line"/>
			<point x="517" y="65"/>
			<point x="454" y="53"/>
			<point x="399" y="53" type="curve" smooth="yes"/>
			<point x="259" y="53"/>
			<point x="169" y="161"/>
			<point x="169" y="336" type="curve" smooth="yes"/>
			<point x="169" y="536"/>
			<point x="263" y="652"/>
			<point x="426" y="652" type="curve" smooth="yes"/>
			<point x="524" y="652"/>
			<point x="576" y="614"/>
			<point x="552" y="568" type="curve" smooth="yes"/>
			<point x="534" y="534" type="line"/>
			<point x="554" y="515"/>
			<point x="578" y="501"/>
			<point x="611" y="501" type="curve" smooth="yes"/>
			<point x="646" y="501"/>
			<point x="670" y="523"/>
			<point x="670" y="563" type="curve" smooth="yes"/>
			<point x="670" y="647"/>
			<point x="565" y="715"/>
			<point x="428" y="715" type="curve" smooth="yes"/>
			<point x="211" y="715"/>
			<point x="71" y="563"/>
			<point x="71" y="328" type="curve" smooth="yes"/>
			<point x="71" y="118"/>
			<point x="199" y="-14"/>
			<point x="395" y="-14" type="curve" smooth="yes"/>
			<point x="477" y="-14"/>
			<point x="576" y="14"/>
			<point x="639" y="58" type="curve"/>
		</contour>
	</outline>
	<anchor name="bottom" x="392" y="-30"/>
	<anchor name="top" x="414" y="730"/>
</glyph>
<glyph name="I" format="2">
	<unicode hex="0049"/>
	<advance width="399"/>
	<outline>
		<contour>
			<point x="185" y="637" type="line"/>
			<point x="160" y="59" type="line"/>
			<point x="71" y="46" type="line"/>
			<point x="65" y="0" type="line"/>
			<point x="347" y="0" type="line"/>
			<point x="353" y="46" type="line"/>
			<point x="250" y="59" type="line"/>
			<point x="271" y="637" type="line"/>
			<point x="363" y="654" type="line"/>
			<point x="370" y="700" type="line"/>
			<point x="98" y="700" type="line"/>
			<point x="92" y="654" type="line"/>
		</contour>
	</outline>
	<anchor name="bottom" x="205" y="-30"/>
	<anchor name="top" x="229" y="730"/>
</glyph>
<glyph name="J" format="2">
	<unicode hex="004A"/>
	<advance width="401"/>
	<outline>
		<contour>
			<point x="181" y="637" type="line"/>
			<point x="156" y="59" type="line" smooth="yes"/>
			<point x="151" y="-48"/>
			<point x="124" y="-104"/>
			<point x="39" y="-191" type="curve"/>
			<point x="70" y="-229" type="line"/>
			<point x="214" y="-120"/>
			<point x="240" y="-44"/>
			<point x="245" y="86" type="curve" smooth="yes"/>
			<point x="267" y="637" type="line"/>
			<point x="359" y="654" type="line"/>
			<point x="366" y="700" type="line"/>
			<point x="77" y="700" type="line"/>
			<point x="70" y="654" type="line"/>
		</contour>
	</outline>
	<anchor name="top" x="230" y="730"/>
</glyph>
<glyph name="K" format="2">
	<unicode hex="004B"/>
	<advance width="752"/>
	<outline>
		<contour>
			<point x="628" y="-14" type="curve" smooth="yes"/>
			<point x="673" y="-14"/>
			<point x="715" y="2"/>
			<point x="744" y="28" type="curve"/>
			<point x="722" y="70" type="line"/>
			<point x="698" y="58"/>
			<point x="676" y="52"/>
			<point x="658" y="52" type="curve" smooth="yes"/>
			<point x="610" y="52"/>
			<point x="582" y="84"/>
			<point x="532" y="221" type="curve" smooth="yes"/>
			<point x="496" y="321"/>
			<point x="457" y="352"/>
			<point x="380" y="377" type="curve"/>
			<point x="380" y="385" type="line"/>
			<point x="651" y="638" type="line"/>
			<point x="736" y="653" type="line"/>
			<point x="743" y="700" type="line"/>
			<point x="487" y="700" type="line"/>
			<point x="481" y="654" type="line"/>
			<point x="569" y="639" type="line"/>
			<point x="293" y="377" type="line"/>
			<point x="290" y="342" type="line"/>
			<point x="379" y="332"/>
			<point x="408" y="295"/>
			<point x="448" y="180" type="curve" smooth="yes"/>
			<point x="502" y="25"/>
			<point x="545" y="-14"/>
		</contour>
		<contour>
			<point x="65" y="0" type="line"/>
			<point x="347" y="0" type="line"/>
			<point x="353" y="46" type="line"/>
			<point x="250" y="59" type="line"/>
			<point x="271" y="637" type="line"/>
			<point x="363" y="654" type="line"/>
			<point x="370" y="700" type="line"/>
			<point x="95" y="700" type="line"/>
			<point x="89" y="654" type="line"/>
			<point x="183" y="637" type="line"/>
			<point x="160" y="59" type="line"/>
			<point x="71" y="46" type="line"/>
		</contour>
	</outline>
	<anchor name="bottom" x="381" y="-30"/>
	<anchor name="top" x="419" y="730"/>
</glyph>
<glyph name="M" format="2">
	<unicode hex="004D"/>
	<advance width="1022"/>
	<outline>
		<contour>
			<point x="786" y="622" type="line"/>
			<point x="807" y="59" type="line"/>
			<point x="718" y="46" type="line"/>
			<point x="712" y="0" type="line"/>
			<point x="993" y="0" type="line"/>
			<point x="1000" y="46" type="line"/>
			<point x="896" y="59" type="line"/>
			<point x="872" y="637" type="line"/>
			<point x="958" y="652" type="line"/>
			<point x="965" y="700" type="line"/>
			<point x="748" y="700" type="line"/>
			<point x="534" y="76" type="line"/>
			<point x="336" y="700" type="line"/>
			<point x="120" y="700" type="line"/>
			<point x="113" y="654" type="line"/>
			<point x="207" y="637" type="line"/>
			<point x="166" y="59" type="line"/>
			<point x="77" y="46" type="line"/>
			<point x="71" y="0" type="line"/>
			<point x="325" y="0" type="line"/>
			<point x="331" y="46" type="line"/>
			<point x="228" y="59" type="line"/>
			<point x="266" y="612" type="line"/>
			<point x="469" y="-11" type="line"/>
			<point x="570" y="6" type="line"/>
		</contour>
	</outline>
	<anchor name="bottom" x="516" y="-30"/>
</glyph>
<glyph name="N" format="2">
	<unicode hex="004E"/>
	<advance width="818"/>
	<outline>
		<contour>
			<point x="620" y="101" type="line"/>
			<point x="304" y="700" type="line"/>
			<point x="96" y="700" type="line"/>
			<point x="89" y="654" type="line"/>
			<point x="183" y="637" type="line"/>
			<point x="160" y="59" type="line"/>
			<point x="71" y="46" type="line"/>
			<point x="65" y="0" type="line"/>
			<point x="322" y="0" type="line"/>
			<point x="328" y="46" type="line"/>
			<point x="226" y="59" type="line"/>
			<point x="245" y="621" type="line"/>
			<point x="587" y="-11" type="line"/>
			<point x="677" y="0" type="line"/>
			<point x="701" y="637" type="line"/>
			<point x="793" y="654" type="line"/>
			<point x="799" y="700" type="line"/>
			<point x="551" y="700" type="line"/>
			<point x="545" y="654" type="line"/>
			<point x="638" y="637" type="line"/>
		</contour>
	</outline>
	<anchor name="bottom" x="408" y="-30"/>
	<anchor name="top" x="440" y="730"/>
</glyph>
<glyph name="P" format="2">
	<unicode hex="0050"/>
	<advance width="645"/>
	<outline>
		<contour>
			<point x="316" y="339" type="curve"/>
			<point x="313" y="287" type="line"/>
			<point x="327" y="285"/>
			<point x="341" y="284"/>
			<point x="353" y="284" type="curve" smooth="yes"/>
			<point x="512" y="284"/>
			<point x="617" y="371"/>
			<point x="617" y="501" type="curve" smooth="yes"/>
			<point x="617" y="632"/>
			<point x="523" y="700"/>
			<point x="343" y="700" type="curve" smooth="yes"/>
			<point x="103" y="700" type="line"/>
			<point x="96" y="654" type="line"/>
			<point x="190" y="637" type="line"/>
			<point x="167" y="62" type="line"/>
			<point x="70" y="46" type="line"/>
			<point x="65" y="0" type="line"/>
			<point x="392" y="0" type="line"/>
			<point x="396" y="47" type="line"/>
			<point x="257" y="62" type="line"/>
			<point x="278" y="643" type="line"/>
			<point x="337" y="643" type="line" smooth="yes"/>
			<point x="464" y="643"/>
			<point x="518" y="595"/>
			<point x="518" y="502" type="curve" smooth="yes"/>
			<point x="518" y="394"/>
			<point x="459" y="338"/>
			<point x="350" y="338" type="curve" smooth="yes"/>
			<point x="337" y="338"/>
			<point x="326" y="338"/>
		</contour>
	</outline>
</glyph>
<glyph name="Q" format="2">
	<unicode hex="0051"/>
	<advance width="772"/>
	<outline>
		<contour>
			<point x="71" y="348" type="curve" smooth="yes"/>
			<point x="71" y="188"/>
			<point x="155" y="72"/>
			<point x="310" y="35" type="curve"/>
			<point x="310" y="30" type="line"/>
			<point x="279" y="24"/>
			<point x="240" y="16"/>
			<point x="208" y="0" type="curve"/>
			<point x="233" y="-56" type="line"/>
			<point x="275" y="-35"/>
			<point x="317" y="-25"/>
			<point x="356" y="-25" type="curve" smooth="yes"/>
			<point x="412" y="-25"/>
			<point x="472" y="-46"/>
			<point x="548" y="-100" type="curve" smooth="yes"/>
			<point x="618" y="-149"/>
			<point x="666" y="-174"/>
			<point x="715" y="-174" type="curve" smooth="yes"/>
			<point x="769" y="-174"/>
			<point x="796" y="-141"/>
			<point x="796" y="-98" type="curve" smooth="yes"/>
			<point x="796" y="-56"/>
			<point x="761" y="-35"/>
			<point x="714" y="-35" type="curve"/>
			<point x="705" y="-65" type="line" smooth="yes"/>
			<point x="695" y="-99"/>
			<point x="680" y="-115"/>
			<point x="573" y="-43" type="curve" smooth="yes"/>
			<point x="517" y="-5"/>
			<point x="471" y="16"/>
			<point x="415" y="26" type="curve"/>
			<point x="415" y="32" type="line"/>
			<point x="607" y="50"/>
			<point x="729" y="177"/>
			<point x="729" y="387" type="curve" smooth="yes"/>
			<point x="729" y="587"/>
			<point x="607" y="715"/>
			<point x="420" y="715" type="curve" smooth="yes"/>
			<point x="207" y="715"/>
			<point x="71" y="574"/>
		</contour>
		<contour>
			<point x="169" y="358" type="curve" smooth="yes"/>
			<point x="169" y="547"/>
			<point x="254" y="653"/>
			<point x="405" y="653" type="curve" smooth="yes"/>
			<point x="552" y="653"/>
			<point x="631" y="547"/>
			<point x="631" y="374" type="curve" smooth="yes"/>
			<point x="631" y="194"/>
			<point x="538" y="75"/>
			<point x="395" y="75" type="curve" smooth="yes"/>
			<point x="250" y="75"/>
			<point x="169" y="174"/>
		</contour>
	</outline>
</glyph>
<glyph name="S" format="2">
	<unicode hex="0053"/>
	<advance width="560"/>
	<outline>
		<contour>
			<point x="517" y="187" type="curve" smooth="yes"/>
			<point x="517" y="273"/>
			<point x="482" y="319"/>
			<point x="349" y="386" type="curve" smooth="yes"/>
			<point x="198" y="462"/>
			<point x="170" y="490"/>
			<point x="170" y="551" type="curve" smooth="yes"/>
			<point x="170" y="615"/>
			<point x="228" y="653"/>
			<point x="319" y="653" type="curve" smooth="yes"/>
			<point x="394" y="653"/>
			<point x="432" y="621"/>
			<point x="409" y="579" type="curve" smooth="yes"/>
			<point x="389" y="542" type="line"/>
			<point x="406" y="528"/>
			<point x="429" y="515"/>
			<point x="459" y="515" type="curve" smooth="yes"/>
			<point x="499" y="515"/>
			<point x="522" y="544"/>
			<point x="522" y="582" type="curve" smooth="yes"/>
			<point x="522" y="656"/>
			<point x="436" y="715"/>
			<point x="327" y="715" type="curve" smooth="yes"/>
			<point x="186" y="715"/>
			<point x="86" y="637"/>
			<point x="86" y="527" type="curve" smooth="yes"/>
			<point x="86" y="434"/>
			<point x="138" y="385"/>
			<point x="282" y="316" type="curve" smooth="yes"/>
			<point x="401" y="259"/>
			<point x="434" y="221"/>
			<point x="434" y="171" type="curve" smooth="yes"/>
			<point x="434" y="94"/>
			<point x="368" y="49"/>
			<point x="268" y="49" type="curve" smooth="yes"/>
			<point x="189" y="49"/>
			<point x="151" y="81"/>
			<point x="175" y="128" type="curve" smooth="yes"/>
			<point x="192" y="161" type="line"/>
			<point x="175" y="177"/>
			<point x="153" y="190"/>
			<point x="127" y="190" type="curve" smooth="yes"/>
			<point x="83" y="190"/>
			<point x="55" y="158"/>
			<point x="55" y="115" type="curve" smooth="yes"/>
			<point x="55" y="40"/>
			<point x="143" y="-14"/>
			<point x="262" y="-14" type="curve" smooth="yes"/>
			<point x="413" y="-14"/>
			<point x="517" y="64"/>
		</contour>
	</outline>
	<anchor name="bottom" x="282" y="-32"/>
	<anchor name="top" x="311" y="730"/>
</glyph>
<glyph name="T" format="2">
	<unicode hex="0054"/>
	<advance width="681"/>
	<outline>
		<contour>
			<point x="188" y="46" type="line"/>
			<point x="182" y="0" type="line"/>
			<point x="498" y="0" type="line"/>
			<point x="504" y="46" type="line"/>
			<point x="388" y="58" type="line"/>
			<point x="407" y="643" type="line"/>
			<point x="506" y="643" type="line" smooth="yes"/>
			<point x="567" y="643"/>
			<point x="585" y="628"/>
			<point x="609" y="562" type="curve" smooth="yes"/>
			<point x="623" y="523" type="line"/>
			<point x="680" y="533" type="line"/>
			<point x="665" y="700" type="line"/>
			<point x="70" y="700" type="line"/>
			<point x="45" y="534" type="line"/>
			<point x="104" y="523" type="line"/>
			<point x="118" y="562" type="line" smooth="yes"/>
			<point x="142" y="630"/>
			<point x="162" y="643"/>
			<point x="224" y="643" type="curve" smooth="yes"/>
			<point x="320" y="643" type="line"/>
			<point x="299" y="59" type="line"/>
		</contour>
	</outline>
	<anchor name="bottom" x="342" y="-30"/>
	<anchor name="top" x="369" y="730"/>
</glyph>
<glyph name="V" format="2">
	<unicode hex="0056"/>
	<advance width="739"/>
	<outline>
		<contour>
			<point x="385" y="86" type="line"/>
			<point x="212" y="642" type="line"/>
			<point x="307" y="654" type="line"/>
			<point x="314" y="700" type="line"/>
			<point x="36" y="700" type="line"/>
			<point x="29" y="654" type="line"/>
			<point x="112" y="642" type="line"/>
			<point x="321" y="-11" type="line"/>
			<point x="425" y="2" type="line"/>
			<point x="677" y="641" type="line"/>
			<point x="762" y="653" type="line"/>
			<point x="769" y="700" type="line"/>
			<point x="517" y="700" type="line"/>
			<point x="511" y="657" type="line"/>
			<point x="609" y="642" type="line"/>
			<point x="393" y="86" type="line"/>
		</contour>
	</outline>
	<anchor name="top" x="413" y="730"/>
</glyph>
<glyph name="Y" format="2">
	<unicode hex="0059"/>
	<advance width="722"/>
	<outline>
		<contour>
			<point x="394" y="325" type="line"/>
			<point x="216" y="644" type="line"/>
			<point x="305" y="654" type="line"/>
			<point x="312" y="700" type="line"/>
			<point x="36" y="700" type="line"/>
			<point x="29" y="654" type="line"/>
			<point x="113" y="642" type="line"/>
			<point x="336" y="259" type="line"/>
			<point x="326" y="59" type="line"/>
			<point x="237" y="46" type="line"/>
			<point x="231" y="0" type="line"/>
			<point x="513" y="0" type="line"/>
			<point x="519" y="46" type="line"/>
			<point x="416" y="59" type="line"/>
			<point x="423" y="261" type="line"/>
			<point x="658" y="639" type="line"/>
			<point x="745" y="653" type="line"/>
			<point x="752" y="700" type="line"/>
			<point x="501" y="700" type="line"/>
			<point x="494" y="657" type="line"/>
			<point x="589" y="642" type="line"/>
			<point x="398" y="325" type="line"/>
		</contour>
	</outline>
	<anchor name="bottom" x="367" y="-30"/>
	<anchor name="top" x="396" y="730"/>
</glyph>
<glyph name="Z" format="2">
	<unicode hex="005A"/>
	<advance width="663"/>
	<outline>
		<contour>
			<point x="626" y="650" type="line"/>
			<point x="620" y="700" type="line"/>
			<point x="127" y="700" type="line"/>
			<point x="101" y="520" type="line"/>
			<point x="161" y="510" type="line"/>
			<point x="176" y="556" type="line" smooth="yes"/>
			<point x="204" y="643"/>
			<point x="235" y="643"/>
			<point x="296" y="643" type="curve" smooth="yes"/>
			<point x="517" y="643" type="line"/>
			<point x="73" y="48" type="line"/>
			<point x="71" y="0" type="line"/>
			<point x="592" y="0" type="line"/>
			<point x="621" y="201" type="line"/>
			<point x="563" y="201" type="line"/>
			<point x="549" y="156" type="line" smooth="yes"/>
			<point x="525" y="78"/>
			<point x="497" y="57"/>
			<point x="411" y="57" type="curve" smooth="yes"/>
			<point x="186" y="57" type="line"/>
		</contour>
	</outline>
	<anchor name="bottom" x="333" y="-30"/>
	<anchor name="top" x="363" y="730"/>
</glyph>
<glyph name="asciicircum" format="2">
	<unicode hex="005E"/>
	<advance width="640"/>
	<outline>
		<contour>
			<point x="594" y="374" type="line"/>
			<point x="365" y="712" type="line"/>
			<point x="322" y="712" type="line"/>
			<point x="73" y="374" type="line"/>
			<point x="126" y="341" type="line"/>
			<point x="342" y="627" type="line"/>
			<point x="540" y="342" type="line"/>
		</contour>
	</outline>
</glyph>
<glyph name="grave" format="2">
	<unicode hex="0060"/>
	<advance width="482"/>
	<outline>
		<contour>
			<point x="339" y="619" type="line"/>
			<point x="208" y="780" type="line"/>
			<point x="163" y="782"/>
			<point x="142" y="760"/>
			<point x="142" y="737" type="curve" smooth="yes"/>
			<point x="142" y="721"/>
			<point x="153" y="702"/>
			<point x="171" y="689" type="curve" smooth="yes"/>
			<point x="311" y="591" type="line"/>
		</contour>
	</outline>
	<anchor name="_top" x="258" y="550"/>
</glyph>
<glyph name="f" format="2">
	<unicode hex="0066"/>
	<advance width="424"/>
	<outline>
		<contour>
			<point x="356" y="722" type="curve" smooth="yes"/>
			<point x="405" y="722"/>
			<point x="420" y="696"/>
			<point x="403" y="654" type="curve" smooth="yes"/>
			<point x="392" y="627" type="line"/>
			<point x="405" y="611"/>
			<point x="423" y="598"/>
			<point x="448" y="598" type="curve" smooth="yes"/>
			<point x="489" y="598"/>
			<point x="510" y="628"/>
			<point x="510" y="667" type="curve" smooth="yes"/>
			<point x="510" y="746"/>
			<point x="436" y="782"/>
			<point x="362" y="782" type="curve" smooth="yes"/>
			<point x="227" y="782"/>
			<point x="155" y="694"/>
			<point x="145" y="559" type="curve" smooth="yes"/>
			<point x="142" y="520" type="line"/>
			<point x="54" y="512" type="line"/>
			<point x="47" y="457" type="line"/>
			<point x="140" y="457" type="line"/>
			<point x="126" y="29" type="line" smooth="yes"/>
			<point x="125" y="-13"/>
			<point x="120" y="-66"/>
			<point x="119" y="-80" type="curve" smooth="yes"/>
			<point x="114" y="-121"/>
			<point x="83" y="-139"/>
			<point x="46" y="-125" type="curve" smooth="yes"/>
			<point x="2" y="-108" type="line"/>
			<point x="-16" y="-126"/>
			<point x="-27" y="-147"/>
			<point x="-27" y="-169" type="curve" smooth="yes"/>
			<point x="-27" y="-206"/>
			<point x="-2" y="-229"/>
			<point x="45" y="-229" type="curve" smooth="yes"/>
			<point x="73" y="-229"/>
			<point x="108" y="-213"/>
			<point x="134" y="-183" type="curve" smooth="yes"/>
			<point x="182" y="-128"/>
			<point x="214" y="0"/>
			<point x="219" y="122" type="curve" smooth="yes"/>
			<point x="233" y="457" type="line"/>
			<point x="387" y="457" type="line"/>
			<point x="391" y="519" type="line"/>
			<point x="232" y="519" type="line"/>
			<point x="237" y="592" type="line" smooth="yes"/>
			<point x="243" y="677"/>
			<point x="279" y="722"/>
		</contour>
	</outline>
</glyph>
<glyph name="g" format="2">
	<unicode hex="0067"/>
	<advance width="604"/>
	<outline>
		<contour>
			<point x="461" y="304" type="line"/>
			<point x="428" y="81" type="line" smooth="yes"/>
			<point x="402" y="-96"/>
			<point x="349" y="-170"/>
			<point x="244" y="-170" type="curve" smooth="yes"/>
			<point x="169" y="-170"/>
			<point x="171" y="-136"/>
			<point x="182" y="-104" type="curve" smooth="yes"/>
			<point x="191" y="-78" type="line"/>
			<point x="176" y="-60"/>
			<point x="152" y="-49"/>
			<point x="130" y="-49" type="curve" smooth="yes"/>
			<point x="90" y="-49"/>
			<point x="65" y="-77"/>
			<point x="65" y="-122" type="curve" smooth="yes"/>
			<point x="65" y="-195"/>
			<point x="142" y="-230"/>
			<point x="227" y="-230" type="curve" smooth="yes"/>
			<point x="411" y="-230"/>
			<point x="502" y="-106"/>
			<point x="508" y="81" type="curve" smooth="yes"/>
			<point x="523" y="522" type="line"/>
			<point x="507" y="530" type="line"/>
			<point x="429" y="507" type="line"/>
			<point x="403" y="519"/>
			<point x="357" y="532"/>
			<point x="306" y="532" type="curve" smooth="yes"/>
			<point x="166" y="532"/>
			<point x="61" y="403"/>
			<point x="61" y="208" type="curve" smooth="yes"/>
			<point x="61" y="89"/>
			<point x="113" y="-7"/>
			<point x="229" y="-7" type="curve" smooth="yes"/>
			<point x="333" y="-7"/>
			<point x="376" y="59"/>
			<point x="415" y="191" type="curve" smooth="yes"/>
			<point x="449" y="305" type="line"/>
		</contour>
		<contour>
			<point x="241" y="62" type="curve" smooth="yes"/>
			<point x="183" y="62"/>
			<point x="155" y="113"/>
			<point x="155" y="213" type="curve" smooth="yes"/>
			<point x="155" y="370"/>
			<point x="221" y="471"/>
			<point x="317" y="471" type="curve" smooth="yes"/>
			<point x="354" y="471"/>
			<point x="411" y="460"/>
			<point x="438" y="447" type="curve"/>
			<point x="399" y="320" type="line" smooth="yes"/>
			<point x="337" y="119"/>
			<point x="313" y="62"/>
		</contour>
	</outline>
	<anchor name="top" x="309" y="550"/>
</glyph>
<glyph name="h" format="2">
	<unicode hex="0068"/>
	<advance width="651"/>
	<outline>
		<contour>
			<point x="630" y="36" type="curve"/>
			<point x="605" y="76" type="line"/>
			<point x="584" y="61"/>
			<point x="560" y="52"/>
			<point x="544" y="52" type="curve" smooth="yes"/>
			<point x="521" y="52"/>
			<point x="515" y="63"/>
			<point x="518" y="95" type="curve" smooth="yes"/>
			<point x="541" y="359" type="line" smooth="yes"/>
			<point x="549" y="446"/>
			<point x="541" y="532"/>
			<point x="428" y="532" type="curve" smooth="yes"/>
			<point x="346" y="532"/>
			<point x="303" y="494"/>
			<point x="265" y="378" type="curve" smooth="yes"/>
			<point x="183" y="127" type="line"/>
			<point x="173" y="129" type="line"/>
			<point x="204" y="409" type="line"/>
			<point x="218" y="756" type="line"/>
			<point x="201" y="767" type="line"/>
			<point x="35" y="767" type="line"/>
			<point x="29" y="719" type="line"/>
			<point x="130" y="698" type="line"/>
			<point x="105" y="0" type="line"/>
			<point x="193" y="0" type="line"/>
			<point x="318" y="341" type="line" smooth="yes"/>
			<point x="347" y="420"/>
			<point x="362" y="458"/>
			<point x="410" y="458" type="curve" smooth="yes"/>
			<point x="445" y="458"/>
			<point x="460" y="437"/>
			<point x="454" y="365" type="curve" smooth="yes"/>
			<point x="428" y="72" type="line" smooth="yes"/>
			<point x="424" y="24"/>
			<point x="442" y="-13"/>
			<point x="505" y="-13" type="curve" smooth="yes"/>
			<point x="550" y="-13"/>
			<point x="606" y="15"/>
		</contour>
	</outline>
	<anchor name="bottom" x="323" y="-30"/>
	<anchor name="top" x="128" y="780"/>
</glyph>
<glyph name="j" format="2">
	<unicode hex="006A"/>
	<advance width="333"/>
	<outline>
		<contour>
			<point x="220" y="122" type="curve" smooth="yes"/>
			<point x="231" y="419" type="line" smooth="yes"/>
			<point x="236" y="497"/>
			<point x="211" y="532"/>
			<point x="154" y="532" type="curve" smooth="yes"/>
			<point x="108" y="532"/>
			<point x="55" y="512"/>
			<point x="28" y="497" type="curve"/>
			<point x="46" y="449" type="line"/>
			<point x="76" y="461"/>
			<point x="98" y="465"/>
			<point x="116" y="465" type="curve" smooth="yes"/>
			<point x="139" y="465"/>
			<point x="144" y="457"/>
			<point x="143" y="424" type="curve" smooth="yes"/>
			<point x="127" y="23" type="line" smooth="yes"/>
			<point x="125" y="-29"/>
			<point x="124" y="-50"/>
			<point x="120" y="-82" type="curve" smooth="yes"/>
			<point x="114" y="-133"/>
			<point x="78" y="-139"/>
			<point x="42" y="-125" type="curve" smooth="yes"/>
			<point x="-2" y="-108" type="line"/>
			<point x="-21" y="-128"/>
			<point x="-31" y="-145"/>
			<point x="-31" y="-170" type="curve" smooth="yes"/>
			<point x="-31" y="-203"/>
			<point x="-6" y="-229"/>
			<point x="45" y="-229" type="curve" smooth="yes"/>
			<point x="73" y="-229"/>
			<point x="108" y="-213"/>
			<point x="134" y="-183" type="curve" smooth="yes"/>
			<point x="184" y="-125"/>
			<point x="216" y="11"/>
		</contour>
		<contour>
			<point x="105" y="686" type="curve" smooth="yes"/>
			<point x="105" y="647"/>
			<point x="134" y="620"/>
			<point x="175" y="620" type="curve" smooth="yes"/>
			<point x="214" y="620"/>
			<point x="242" y="648"/>
			<point x="242" y="687" type="curve" smooth="yes"/>
			<point x="242" y="726"/>
			<point x="214" y="753"/>
			<point x="174" y="753" type="curve" smooth="yes"/>
			<point x="133" y="753"/>
			<point x="105" y="725"/>
		</contour>
	</outline>
</glyph>
<glyph name="k" format="2">
	<unicode hex="006B"/>
	<advance width="605"/>
	<outline>
		<contour>
			<point x="130" y="698" type="line"/>
			<point x="100" y="0" type="line"/>
			<point x="184" y="0" type="line"/>
			<point x="196" y="238" type="line"/>
			<point x="215" y="242"/>
			<point x="236" y="248"/>
			<point x="256" y="254" type="curve"/>
			<point x="368" y="65" type="line" smooth="yes"/>
			<point x="397" y="16"/>
			<point x="429" y="-14"/>
			<point x="481" y="-14" type="curve" smooth="yes"/>
			<point x="530" y="-14"/>
			<point x="571" y="11"/>
			<point x="592" y="30" type="curve"/>
			<point x="567" y="70" type="line"/>
			<point x="551" y="60"/>
			<point x="534" y="51"/>
			<point x="513" y="51" type="curve" smooth="yes"/>
			<point x="482" y="51"/>
			<point x="467" y="68"/>
			<point x="444" y="105" type="curve" smooth="yes"/>
			<point x="333" y="283" type="line"/>
			<point x="358" y="294"/>
			<point x="378" y="304"/>
			<point x="407" y="322" type="curve" smooth="yes"/>
			<point x="480" y="367"/>
			<point x="512" y="406"/>
			<point x="512" y="457" type="curve" smooth="yes"/>
			<point x="512" y="498"/>
			<point x="486" y="532"/>
			<point x="442" y="532" type="curve" smooth="yes"/>
			<point x="404" y="532"/>
			<point x="372" y="508"/>
			<point x="363" y="463" type="curve"/>
			<point x="394" y="446" type="line" smooth="yes"/>
			<point x="423" y="430"/>
			<point x="416" y="398"/>
			<point x="372" y="369" type="curve" smooth="yes"/>
			<point x="318" y="333"/>
			<point x="258" y="313"/>
			<point x="198" y="303" type="curve"/>
			<point x="218" y="756" type="line"/>
			<point x="200" y="767" type="line"/>
			<point x="35" y="767" type="line"/>
			<point x="29" y="719" type="line"/>
		</contour>
	</outline>
	<anchor name="bottom" x="313" y="-30"/>
	<anchor name="top" x="121" y="780"/>
</glyph>
<glyph name="m" format="2">
	<unicode hex="006D"/>
	<advance width="957"/>
	<outline>
		<contour>
			<point x="444" y="365" type="curve" smooth="yes"/>
			<point x="417" y="0" type="line"/>
			<point x="507" y="0" type="line"/>
			<point x="633" y="341" type="line" smooth="yes"/>
			<point x="662" y="418"/>
			<point x="677" y="458"/>
			<point x="718" y="458" type="curve" smooth="yes"/>
			<point x="754" y="458"/>
			<point x="765" y="436"/>
			<point x="759" y="365" type="curve" smooth="yes"/>
			<point x="734" y="69" type="line" smooth="yes"/>
			<point x="729" y="14"/>
			<point x="757" y="-14"/>
			<point x="811" y="-14" type="curve" smooth="yes"/>
			<point x="855" y="-14"/>
			<point x="911" y="14"/>
			<point x="936" y="35" type="curve"/>
			<point x="912" y="77" type="line"/>
			<point x="891" y="62"/>
			<point x="865" y="52"/>
			<point x="850" y="52" type="curve" smooth="yes"/>
			<point x="827" y="52"/>
			<point x="821" y="62"/>
			<point x="824" y="95" type="curve" smooth="yes"/>
			<point x="847" y="359" type="line" smooth="yes"/>
			<point x="857" y="472"/>
			<point x="830" y="532"/>
			<point x="737" y="532" type="curve" smooth="yes"/>
			<point x="645" y="532"/>
			<point x="610" y="471"/>
			<point x="580" y="378" type="curve" smooth="yes"/>
			<point x="500" y="126" type="line"/>
			<point x="489" y="128" type="line"/>
			<point x="519" y="368" type="line" smooth="yes"/>
			<point x="531" y="462"/>
			<point x="513" y="532"/>
			<point x="415" y="532" type="curve" smooth="yes"/>
			<point x="339" y="532"/>
			<point x="304" y="489"/>
			<point x="268" y="378" type="curve" smooth="yes"/>
			<point x="187" y="126" type="line"/>
			<point x="176" y="128" type="line"/>
			<point x="209" y="430" type="line" smooth="yes"/>
			<point x="215" y="489"/>
			<point x="203" y="532"/>
			<point x="134" y="532" type="curve" smooth="yes"/>
			<point x="92" y="532"/>
			<point x="35" y="511"/>
			<point x="12" y="499" type="curve"/>
			<point x="31" y="447" type="line"/>
			<point x="61" y="459"/>
			<point x="82" y="465"/>
			<point x="95" y="465" type="curve" smooth="yes"/>
			<point x="118" y="465"/>
			<point x="126" y="454"/>
			<point x="125" y="425" type="curve" smooth="yes"/>
			<point x="109" y="0" type="line"/>
			<point x="196" y="0" type="line"/>
			<point x="321" y="341" type="line" smooth="yes"/>
			<point x="358" y="442"/>
			<point x="366" y="458"/>
			<point x="398" y="458" type="curve" smooth="yes"/>
			<point x="434" y="458"/>
			<point x="449" y="436"/>
		</contour>
	</outline>
	<anchor name="bottom" x="467" y="-30"/>
	<guideline x="-13" y="126" angle="0"/>
</glyph>
<glyph name="o" format="2">
	<unicode hex="006F"/>
	<advance width="594"/>
	<outline>
		<contour>
			<point x="281" y="-14" type="curve" smooth="yes"/>
			<point x="463" y="-14"/>
			<point x="535" y="126"/>
			<point x="535" y="277" type="curve" smooth="yes"/>
			<point x="535" y="428"/>
			<point x="450" y="532"/>
			<point x="310" y="532" type="curve" smooth="yes"/>
			<point x="128" y="532"/>
			<point x="59" y="391"/>
			<point x="59" y="242" type="curve" smooth="yes"/>
			<point x="59" y="89"/>
			<point x="140" y="-14"/>
		</contour>
		<contour>
			<point x="287" y="46" type="curve" smooth="yes"/>
			<point x="204" y="46"/>
			<point x="157" y="117"/>
			<point x="157" y="239" type="curve" smooth="yes"/>
			<point x="157" y="359"/>
			<point x="186" y="472"/>
			<point x="302" y="472" type="curve" smooth="yes"/>
			<point x="391" y="472"/>
			<point x="437" y="404"/>
			<point x="437" y="277" type="curve" smooth="yes"/>
			<point x="437" y="158"/>
			<point x="404" y="46"/>
		</contour>
	</outline>
	<anchor name="bottom" x="284" y="-30"/>
	<anchor name="top" x="310" y="550"/>
</glyph>
<glyph name="p" format="2">
	<unicode hex="0070"/>
	<advance width="639"/>
	<outline>
		<contour>
			<point x="131" y="432" type="curve" smooth="yes"/>
			<point x="118" y="62" type="line"/>
			<point x="98" y="-214" type="line"/>
			<point x="114" y="-226" type="line"/>
			<point x="271" y="-223" type="line"/>
			<point x="276" y="-175" type="line"/>
			<point x="183" y="-165" type="line"/>
			<point x="197" y="12" type="line"/>
			<point x="220" y="0"/>
			<point x="272" y="-14"/>
			<point x="319" y="-14" type="curve" smooth="yes"/>
			<point x="470" y="-14"/>
			<point x="577" y="110"/>
			<point x="577" y="319" type="curve" smooth="yes"/>
			<point x="577" y="459"/>
			<point x="521" y="532"/>
			<point x="414" y="532" type="curve" smooth="yes"/>
			<point x="317" y="532"/>
			<point x="265" y="470"/>
			<point x="232" y="337" type="curve" smooth="yes"/>
			<point x="195" y="190" type="line"/>
			<point x="183" y="192" type="line"/>
			<point x="214" y="436" type="line" smooth="yes"/>
			<point x="222" y="496"/>
			<point x="201" y="532"/>
			<point x="145" y="532" type="curve" smooth="yes"/>
			<point x="99" y="532"/>
			<point x="59" y="515"/>
			<point x="28" y="499" type="curve"/>
			<point x="45" y="448" type="line"/>
			<point x="60" y="458"/>
			<point x="92" y="467"/>
			<point x="107" y="467" type="curve" smooth="yes"/>
			<point x="123" y="467"/>
			<point x="132" y="455"/>
		</contour>
		<contour>
			<point x="403" y="461" type="curve" smooth="yes"/>
			<point x="472" y="461"/>
			<point x="484" y="394"/>
			<point x="484" y="312" type="curve" smooth="yes"/>
			<point x="484" y="163"/>
			<point x="417" y="48"/>
			<point x="318" y="48" type="curve" smooth="yes"/>
			<point x="275" y="48"/>
			<point x="234" y="61"/>
			<point x="210" y="72" type="curve"/>
			<point x="246" y="197" type="line" smooth="yes"/>
			<point x="314" y="432"/>
			<point x="347" y="461"/>
		</contour>
	</outline>
</glyph>
<glyph name="r" format="2">
	<unicode hex="0072"/>
	<advance width="509"/>
	<outline>
		<contour>
			<point x="125" y="425" type="curve" smooth="yes"/>
			<point x="105" y="0" type="line"/>
			<point x="181" y="0" type="line"/>
			<point x="187" y="55" type="line" smooth="yes"/>
			<point x="192" y="103"/>
			<point x="212" y="157"/>
			<point x="296" y="339" type="curve" smooth="yes"/>
			<point x="336" y="426"/>
			<point x="349" y="439"/>
			<point x="364" y="439" type="curve" smooth="yes"/>
			<point x="377" y="439"/>
			<point x="389" y="430"/>
			<point x="401" y="417" type="curve" smooth="yes"/>
			<point x="427" y="390" type="line"/>
			<point x="459" y="403"/>
			<point x="476" y="432"/>
			<point x="476" y="462" type="curve" smooth="yes"/>
			<point x="476" y="498"/>
			<point x="449" y="532"/>
			<point x="391" y="532" type="curve" smooth="yes"/>
			<point x="329" y="532"/>
			<point x="297" y="490"/>
			<point x="265" y="411" type="curve" smooth="yes"/>
			<point x="186" y="214" type="line"/>
			<point x="175" y="215" type="line"/>
			<point x="207" y="430" type="line" smooth="yes"/>
			<point x="217" y="498"/>
			<point x="195" y="532"/>
			<point x="134" y="532" type="curve" smooth="yes"/>
			<point x="91" y="532"/>
			<point x="32" y="511"/>
			<point x="12" y="499" type="curve"/>
			<point x="31" y="447" type="line"/>
			<point x="61" y="459"/>
			<point x="82" y="465"/>
			<point x="95" y="465" type="curve" smooth="yes"/>
			<point x="120" y="465"/>
			<point x="126" y="453"/>
		</contour>
	</outline>
	<anchor name="bottom" x="146" y="-30"/>
	<anchor name="top" x="269" y="550"/>
</glyph>
<glyph name="x" format="2">
	<unicode hex="0078"/>
	<advance width="604"/>
	<outline>
		<contour>
			<point x="323" y="316" type="line"/>
			<point x="248" y="470" type="line" smooth="yes"/>
			<point x="228" y="512"/>
			<point x="201" y="532"/>
			<point x="152" y="532" type="curve" smooth="yes"/>
			<point x="102" y="532"/>
			<point x="54" y="511"/>
			<point x="30" y="499" type="curve"/>
			<point x="49" y="447" type="line"/>
			<point x="73" y="456"/>
			<point x="96" y="465"/>
			<point x="114" y="465" type="curve" smooth="yes"/>
			<point x="137" y="465"/>
			<point x="152" y="454"/>
			<point x="167" y="425" type="curve" smooth="yes"/>
			<point x="246" y="269" type="line"/>
			<point x="163" y="205" type="line" smooth="yes"/>
			<point x="88" y="148"/>
			<point x="50" y="112"/>
			<point x="50" y="58" type="curve" smooth="yes"/>
			<point x="50" y="19"/>
			<point x="73" y="-14"/>
			<point x="122" y="-14" type="curve" smooth="yes"/>
			<point x="162" y="-14"/>
			<point x="189" y="18"/>
			<point x="197" y="55" type="curve"/>
			<point x="171" y="64" type="line" smooth="yes"/>
			<point x="120" y="82"/>
			<point x="141" y="110"/>
			<point x="185" y="144" type="curve" smooth="yes"/>
			<point x="273" y="213" type="line"/>
			<point x="353" y="55" type="line" smooth="yes"/>
			<point x="375" y="12"/>
			<point x="399" y="-14"/>
			<point x="463" y="-14" type="curve" smooth="yes"/>
			<point x="511" y="-14"/>
			<point x="543" y="8"/>
			<point x="570" y="30" type="curve"/>
			<point x="546" y="71" type="line"/>
			<point x="528" y="60"/>
			<point x="512" y="52"/>
			<point x="488" y="52" type="curve" smooth="yes"/>
			<point x="461" y="52"/>
			<point x="449" y="61"/>
			<point x="428" y="104" type="curve" smooth="yes"/>
			<point x="351" y="262" type="line"/>
			<point x="409" y="310" type="line" smooth="yes"/>
			<point x="503" y="388"/>
			<point x="533" y="416"/>
			<point x="533" y="464" type="curve" smooth="yes"/>
			<point x="533" y="501"/>
			<point x="509" y="532"/>
			<point x="467" y="532" type="curve" smooth="yes"/>
			<point x="430" y="532"/>
			<point x="400" y="508"/>
			<point x="392" y="474" type="curve"/>
			<point x="422" y="453" type="line" smooth="yes"/>
			<point x="459" y="427"/>
			<point x="429" y="404"/>
			<point x="384" y="367" type="curve" smooth="yes"/>
		</contour>
	</outline>
</glyph>
<glyph name="y" format="2">
	<unicode hex="0079"/>
	<advance width="605"/>
	<outline>
		<contour>
			<point x="336" y="-57" type="curve" smooth="yes"/>
			<point x="473" y="234" type="line" smooth="yes"/>
			<point x="526" y="346"/>
			<point x="548" y="401"/>
			<point x="547" y="444" type="curve" smooth="yes"/>
			<point x="546" y="495"/>
			<point x="520" y="532"/>
			<point x="468" y="532" type="curve" smooth="yes"/>
			<point x="415" y="532"/>
			<point x="390" y="496"/>
			<point x="397" y="444" type="curve"/>
			<point x="435" y="431" type="line" smooth="yes"/>
			<point x="470" y="419"/>
			<point x="472" y="397"/>
			<point x="449" y="346" type="curve" smooth="yes"/>
			<point x="324" y="67" type="line"/>
			<point x="305" y="67" type="line" smooth="yes"/>
			<point x="284" y="67"/>
			<point x="274" y="74"/>
			<point x="256" y="108" type="curve" smooth="yes"/>
			<point x="228" y="163"/>
			<point x="214" y="259"/>
			<point x="214" y="374" type="curve" smooth="yes"/>
			<point x="214" y="401"/>
			<point x="216" y="422"/>
			<point x="216" y="443" type="curve" smooth="yes"/>
			<point x="216" y="502"/>
			<point x="193" y="532"/>
			<point x="139" y="532" type="curve" smooth="yes"/>
			<point x="90" y="532"/>
			<point x="37" y="511"/>
			<point x="13" y="499" type="curve"/>
			<point x="32" y="450" type="line"/>
			<point x="50" y="457"/>
			<point x="83" y="466"/>
			<point x="99" y="466" type="curve" smooth="yes"/>
			<point x="117" y="466"/>
			<point x="126" y="460"/>
			<point x="126" y="437" type="curve" smooth="yes"/>
			<point x="126" y="417"/>
			<point x="125" y="388"/>
			<point x="125" y="367" type="curve" smooth="yes"/>
			<point x="125" y="242"/>
			<point x="149" y="117"/>
			<point x="187" y="59" type="curve" smooth="yes"/>
			<point x="213" y="19"/>
			<point x="238" y="0"/>
			<point x="284" y="0" type="curve" smooth="yes"/>
			<point x="292" y="0" type="line"/>
			<point x="261" y="-67" type="line" smooth="yes"/>
			<point x="231" y="-133"/>
			<point x="209" y="-154"/>
			<point x="176" y="-154" type="curve" smooth="yes"/>
			<point x="154" y="-154"/>
			<point x="147" y="-145"/>
			<point x="125" y="-109" type="curve" smooth="yes"/>
			<point x="108" y="-81" type="line"/>
			<point x="66" y="-87"/>
			<point x="41" y="-117"/>
			<point x="41" y="-151" type="curve" smooth="yes"/>
			<point x="41" y="-198"/>
			<point x="85" y="-229"/>
			<point x="140" y="-229" type="curve" smooth="yes"/>
			<point x="253" y="-229"/>
			<point x="292" y="-151"/>
		</contour>
	</outline>
	<anchor name="bottom" x="436" y="-30"/>
	<anchor name="top" x="309" y="550"/>
</glyph>
<glyph name="braceleft" format="2">
	<unicode hex="007B"/>
	<advance width="414"/>
	<outline>
		<contour>
			<point x="82" y="345" type="curve"/>
			<point x="79" y="267" type="line"/>
			<point x="153" y="267"/>
			<point x="178" y="248"/>
			<point x="178" y="181" type="curve" smooth="yes"/>
			<point x="178" y="109"/>
			<point x="147" y="-44"/>
			<point x="147" y="-105" type="curve" smooth="yes"/>
			<point x="147" y="-183"/>
			<point x="197" y="-227"/>
			<point x="282" y="-227" type="curve" smooth="yes"/>
			<point x="309" y="-227"/>
			<point x="335" y="-224"/>
			<point x="358" y="-218" type="curve"/>
			<point x="348" y="-159" type="line"/>
			<point x="334" y="-162"/>
			<point x="315" y="-163"/>
			<point x="296" y="-163" type="curve" smooth="yes"/>
			<point x="254" y="-163"/>
			<point x="239" y="-143"/>
			<point x="239" y="-93" type="curve" smooth="yes"/>
			<point x="239" y="-52"/>
			<point x="267" y="108"/>
			<point x="267" y="173" type="curve" smooth="yes"/>
			<point x="267" y="251"/>
			<point x="242" y="289"/>
			<point x="175" y="308" type="curve"/>
			<point x="247" y="326"/>
			<point x="279" y="368"/>
			<point x="279" y="439" type="curve" smooth="yes"/>
			<point x="279" y="511"/>
			<point x="266" y="644"/>
			<point x="266" y="693" type="curve" smooth="yes"/>
			<point x="266" y="736"/>
			<point x="283" y="758"/>
			<point x="319" y="758" type="curve" smooth="yes"/>
			<point x="334" y="758"/>
			<point x="353" y="757"/>
			<point x="374" y="754" type="curve"/>
			<point x="387" y="813" type="line"/>
			<point x="365" y="818"/>
			<point x="334" y="822"/>
			<point x="312" y="822" type="curve" smooth="yes"/>
			<point x="227" y="822"/>
			<point x="176" y="777"/>
			<point x="176" y="704" type="curve" smooth="yes"/>
			<point x="176" y="635"/>
			<point x="191" y="508"/>
			<point x="191" y="430" type="curve" smooth="yes"/>
			<point x="191" y="372"/>
			<point x="157" y="348"/>
		</contour>
	</outline>
</glyph>
<glyph name="asciitilde" format="2">
	<unicode hex="007E"/>
	<advance width="640"/>
	<outline>
		<contour>
			<point x="486" y="236" type="curve" smooth="yes"/>
			<point x="527" y="236"/>
			<point x="551" y="248"/>
			<point x="591" y="328" type="curve"/>
			<point x="542" y="352" type="line"/>
			<point x="527" y="325"/>
			<point x="511" y="308"/>
			<point x="488" y="308" type="curve" smooth="yes"/>
			<point x="424" y="308"/>
			<point x="277" y="355"/>
			<point x="208" y="355" type="curve" smooth="yes"/>
			<point x="161" y="355"/>
			<point x="139" y="336"/>
			<point x="102" y="263" type="curve"/>
			<point x="152" y="239" type="line"/>
			<point x="167" y="264"/>
			<point x="183" y="283"/>
			<point x="207" y="283" type="curve" smooth="yes"/>
			<point x="274" y="283"/>
			<point x="413" y="236"/>
		</contour>
	</outline>
</glyph>
<glyph name="cent" format="2">
	<unicode hex="00A2"/>
	<advance width="532"/>
	<outline>
		<contour>
			<point x="202" y="-32" type="line"/>
			<point x="257" y="-32" type="line"/>
			<point x="267" y="36" type="line"/>
			<point x="268" y="36"/>
			<point x="270" y="36"/>
			<point x="271" y="36" type="curve" smooth="yes"/>
			<point x="382" y="36"/>
			<point x="445" y="96"/>
			<point x="472" y="132" type="curve"/>
			<point x="434" y="171" type="line"/>
			<point x="383" y="123"/>
			<point x="342" y="105"/>
			<point x="290" y="105" type="curve"/>
			<point x="285" y="105"/>
			<point x="280" y="105"/>
			<point x="276" y="106" type="curve"/>
			<point x="335" y="521" type="line"/>
			<point x="382" y="517"/>
			<point x="413" y="493"/>
			<point x="376" y="453" type="curve" smooth="yes"/>
			<point x="354" y="429" type="line"/>
			<point x="365" y="405"/>
			<point x="387" y="383"/>
			<point x="420" y="383" type="curve" smooth="yes"/>
			<point x="463" y="383"/>
			<point x="484" y="412"/>
			<point x="484" y="451" type="curve" smooth="yes"/>
			<point x="484" y="527"/>
			<point x="425" y="573"/>
			<point x="344" y="581" type="curve"/>
			<point x="354" y="655" type="line"/>
			<point x="299" y="655" type="line"/>
			<point x="288" y="580" type="line"/>
			<point x="150" y="565"/>
			<point x="60" y="446"/>
			<point x="60" y="287" type="curve" smooth="yes"/>
			<point x="60" y="169"/>
			<point x="114" y="71"/>
			<point x="213" y="44" type="curve"/>
		</contour>
		<contour>
			<point x="224" y="125" type="line"/>
			<point x="180" y="156"/>
			<point x="158" y="219"/>
			<point x="158" y="290" type="curve" smooth="yes"/>
			<point x="158" y="426"/>
			<point x="204" y="500"/>
			<point x="280" y="518" type="curve"/>
		</contour>
	</outline>
</glyph>
<glyph name="sterling" format="2">
	<unicode hex="00A3"/>
	<advance width="603"/>
	<outline>
		<contour>
			<point x="70" y="37" type="curve"/>
			<point x="104" y="-14" type="line"/>
			<point x="147" y="17"/>
			<point x="198" y="35"/>
			<point x="247" y="35" type="curve" smooth="yes"/>
			<point x="286" y="35"/>
			<point x="317" y="24"/>
			<point x="349" y="12" type="curve" smooth="yes"/>
			<point x="383" y="-1"/>
			<point x="418" y="-14"/>
			<point x="465" y="-14" type="curve" smooth="yes"/>
			<point x="539" y="-14"/>
			<point x="582" y="40"/>
			<point x="582" y="93" type="curve" smooth="yes"/>
			<point x="582" y="171"/>
			<point x="534" y="210"/>
			<point x="448" y="233" type="curve"/>
			<point x="426" y="179" type="line"/>
			<point x="458" y="166"/>
			<point x="499" y="147"/>
			<point x="499" y="109" type="curve" smooth="yes"/>
			<point x="499" y="76"/>
			<point x="478" y="55"/>
			<point x="445" y="55" type="curve" smooth="yes"/>
			<point x="413" y="55"/>
			<point x="383" y="65"/>
			<point x="354" y="77" type="curve" smooth="yes"/>
			<point x="335" y="85"/>
			<point x="316" y="92"/>
			<point x="295" y="96" type="curve"/>
			<point x="245" y="210"/>
			<point x="219" y="282"/>
			<point x="208" y="337" type="curve"/>
			<point x="430" y="337" type="line"/>
			<point x="435" y="393" type="line"/>
			<point x="200" y="393" type="line"/>
			<point x="197" y="417"/>
			<point x="197" y="439"/>
			<point x="197" y="468" type="curve" smooth="yes"/>
			<point x="197" y="593"/>
			<point x="246" y="653"/>
			<point x="347" y="653" type="curve" smooth="yes"/>
			<point x="408" y="653"/>
			<point x="439" y="621"/>
			<point x="417" y="578" type="curve" smooth="yes"/>
			<point x="398" y="542" type="line"/>
			<point x="415" y="528"/>
			<point x="438" y="515"/>
			<point x="468" y="515" type="curve" smooth="yes"/>
			<point x="508" y="515"/>
			<point x="531" y="544"/>
			<point x="531" y="581" type="curve" smooth="yes"/>
			<point x="531" y="659"/>
			<point x="463" y="715"/>
			<point x="353" y="715" type="curve" smooth="yes"/>
			<point x="202" y="715"/>
			<point x="99" y="618"/>
			<point x="99" y="458" type="curve" smooth="yes"/>
			<point x="99" y="436"/>
			<point x="102" y="413"/>
			<point x="106" y="393" type="curve"/>
			<point x="46" y="393" type="line"/>
			<point x="38" y="337" type="line"/>
			<point x="119" y="337" type="line"/>
			<point x="137" y="281"/>
			<point x="188" y="169"/>
			<point x="227" y="100" type="curve"/>
			<point x="183" y="97"/>
			<point x="134" y="83"/>
		</contour>
	</outline>
</glyph>
<glyph name="currency" format="2">
	<unicode hex="00A4"/>
	<advance width="595"/>
	<outline>
		<contour>
			<point x="122" y="311" type="curve" smooth="yes"/>
			<point x="122" y="271"/>
			<point x="131" y="233"/>
			<point x="147" y="208" type="curve"/>
			<point x="73" y="128" type="line"/>
			<point x="107" y="94" type="line"/>
			<point x="194" y="160" type="line"/>
			<point x="224" y="144"/>
			<point x="260" y="136"/>
			<point x="302" y="136" type="curve" smooth="yes"/>
			<point x="346" y="136"/>
			<point x="383" y="146"/>
			<point x="410" y="162" type="curve"/>
			<point x="499" y="93" type="line"/>
			<point x="534" y="127" type="line"/>
			<point x="464" y="209" type="line"/>
			<point x="487" y="241"/>
			<point x="499" y="278"/>
			<point x="499" y="323" type="curve" smooth="yes"/>
			<point x="499" y="365"/>
			<point x="491" y="398"/>
			<point x="475" y="423" type="curve"/>
			<point x="548" y="501" type="line"/>
			<point x="514" y="535" type="line"/>
			<point x="427" y="470" type="line"/>
			<point x="398" y="486"/>
			<point x="360" y="495"/>
			<point x="321" y="495" type="curve" smooth="yes"/>
			<point x="281" y="495"/>
			<point x="240" y="484"/>
			<point x="204" y="465" type="curve"/>
			<point x="120" y="532" type="line"/>
			<point x="84" y="498" type="line"/>
			<point x="154" y="416" type="line"/>
			<point x="133" y="387"/>
			<point x="122" y="352"/>
		</contour>
		<contour>
			<point x="201" y="316" type="curve" smooth="yes"/>
			<point x="201" y="393"/>
			<point x="243" y="437"/>
			<point x="317" y="437" type="curve" smooth="yes"/>
			<point x="387" y="437"/>
			<point x="421" y="398"/>
			<point x="421" y="316" type="curve" smooth="yes"/>
			<point x="421" y="237"/>
			<point x="379" y="192"/>
			<point x="304" y="192" type="curve" smooth="yes"/>
			<point x="237" y="192"/>
			<point x="201" y="236"/>
		</contour>
	</outline>
</glyph>
<glyph name="dieresis" format="2">
	<unicode hex="00A8"/>
	<advance width="466"/>
	<outline>
		<contour>
			<point x="96" y="681" type="curve" smooth="yes"/>
			<point x="96" y="647"/>
			<point x="118" y="621"/>
			<point x="154" y="621" type="curve" smooth="yes"/>
			<point x="195" y="621"/>
			<point x="220" y="650"/>
			<point x="220" y="686" type="curve" smooth="yes"/>
			<point x="220" y="720"/>
			<point x="198" y="746"/>
			<point x="160" y="746" type="curve" smooth="yes"/>
			<point x="122" y="746"/>
			<point x="96" y="718"/>
		</contour>
		<contour>
			<point x="296" y="681" type="curve" smooth="yes"/>
			<point x="296" y="647"/>
			<point x="319" y="621"/>
			<point x="353" y="621" type="curve" smooth="yes"/>
			<point x="395" y="621"/>
			<point x="420" y="650"/>
			<point x="420" y="686" type="curve" smooth="yes"/>
			<point x="420" y="720"/>
			<point x="398" y="746"/>
			<point x="360" y="746" type="curve" smooth="yes"/>
			<point x="322" y="746"/>
			<point x="296" y="718"/>
		</contour>
	</outline>
	<anchor name="_top" x="253" y="550"/>
</glyph>
<glyph name="registered" format="2">
	<unicode hex="00AE"/>
	<advance width="533"/>
	<outline>
		<contour>
			<point x="280" y="383" type="curve" smooth="yes"/>
			<point x="403" y="383"/>
			<point x="487" y="462"/>
			<point x="487" y="573" type="curve" smooth="yes"/>
			<point x="487" y="685"/>
			<point x="405" y="759"/>
			<point x="280" y="759" type="curve" smooth="yes"/>
			<point x="158" y="759"/>
			<point x="73" y="679"/>
			<point x="73" y="568" type="curve" smooth="yes"/>
			<point x="73" y="454"/>
			<point x="153" y="383"/>
		</contour>
		<contour>
			<point x="372" y="452" type="curve" smooth="yes"/>
			<point x="342" y="452"/>
			<point x="326" y="467"/>
			<point x="306" y="524" type="curve" smooth="yes"/>
			<point x="294" y="559"/>
			<point x="285" y="566"/>
			<point x="263" y="569" type="curve"/>
			<point x="268" y="591" type="line"/>
			<point x="270" y="591" type="line" smooth="yes"/>
			<point x="309" y="591"/>
			<point x="331" y="608"/>
			<point x="331" y="640" type="curve" smooth="yes"/>
			<point x="331" y="673"/>
			<point x="308" y="679"/>
			<point x="268" y="679" type="curve" smooth="yes"/>
			<point x="248" y="679" type="line"/>
			<point x="243" y="479" type="line"/>
			<point x="277" y="474" type="line"/>
			<point x="275" y="456" type="line"/>
			<point x="162" y="456" type="line"/>
			<point x="164" y="474" type="line"/>
			<point x="199" y="478" type="line"/>
			<point x="206" y="679" type="line"/>
			<point x="173" y="683" type="line"/>
			<point x="180" y="702" type="line"/>
			<point x="271" y="702" type="line" smooth="yes"/>
			<point x="342" y="702"/>
			<point x="379" y="680"/>
			<point x="379" y="639" type="curve" smooth="yes"/>
			<point x="379" y="609"/>
			<point x="348" y="584"/>
			<point x="304" y="577" type="curve"/>
			<point x="304" y="574" type="line"/>
			<point x="332" y="564"/>
			<point x="341" y="554"/>
			<point x="353" y="523" type="curve" smooth="yes"/>
			<point x="366" y="490"/>
			<point x="373" y="478"/>
			<point x="388" y="478" type="curve" smooth="yes"/>
			<point x="392" y="478"/>
			<point x="402" y="480"/>
			<point x="407" y="482" type="curve"/>
			<point x="413" y="466" type="line"/>
			<point x="404" y="456"/>
			<point x="389" y="452"/>
		</contour>
	</outline>
</glyph>
<glyph name="macron" format="2">
	<unicode hex="00AF"/>
	<advance width="493"/>
	<outline>
		<contour>
			<point x="129" y="708" type="line"/>
			<point x="125" y="635" type="line"/>
			<point x="411" y="635" type="line"/>
			<point x="415" y="708" type="line"/>
		</contour>
	</outline>
	<anchor name="_top" x="265" y="550"/>
</glyph>
<glyph name="degree" format="2">
	<unicode hex="00B0"/>
	<advance width="315"/>
	<outline>
		<contour>
			<point x="173" y="547" type="curve" smooth="yes"/>
			<point x="260" y="547"/>
			<point x="306" y="603"/>
			<point x="306" y="672" type="curve" smooth="yes"/>
			<point x="306" y="737"/>
			<point x="265" y="782"/>
			<point x="184" y="782" type="curve" smooth="yes"/>
			<point x="94" y="782"/>
			<point x="49" y="724"/>
			<point x="49" y="660" type="curve" smooth="yes"/>
			<point x="49" y="595"/>
			<point x="87" y="547"/>
		</contour>
		<contour>
			<point x="177" y="598" type="curve" smooth="yes"/>
			<point x="128" y="598"/>
			<point x="107" y="626"/>
			<point x="107" y="662" type="curve" smooth="yes"/>
			<point x="107" y="703"/>
			<point x="132" y="732"/>
			<point x="178" y="732" type="curve" smooth="yes"/>
			<point x="223" y="732"/>
			<point x="249" y="707"/>
			<point x="249" y="667" type="curve" smooth="yes"/>
			<point x="249" y="628"/>
			<point x="223" y="598"/>
		</contour>
	</outline>
</glyph>
<glyph name="plusminus" format="2">
	<unicode hex="00B1"/>
	<advance width="620"/>
	<outline>
		<contour>
			<point x="263" y="141" type="line"/>
			<point x="340" y="141" type="line"/>
			<point x="346" y="301" type="line"/>
			<point x="521" y="301" type="line"/>
			<point x="523" y="374" type="line"/>
			<point x="349" y="374" type="line"/>
			<point x="354" y="521" type="line"/>
			<point x="277" y="521" type="line"/>
			<point x="272" y="374" type="line"/>
			<point x="100" y="374" type="line"/>
			<point x="98" y="301" type="line"/>
			<point x="269" y="301" type="line"/>
		</contour>
		<contour>
			<point x="87" y="1" type="line"/>
			<point x="515" y="1" type="line"/>
			<point x="517" y="74" type="line"/>
			<point x="89" y="74" type="line"/>
		</contour>
	</outline>
</glyph>
<glyph name="twosuperior" format="2">
	<unicode hex="00B2"/>
	<advance width="432"/>
	<outline>
		<contour>
			<point x="221" y="793" type="curve" smooth="yes"/>
			<point x="276" y="793"/>
			<point x="319" y="763"/>
			<point x="319" y="709" type="curve" smooth="yes"/>
			<point x="319" y="642"/>
			<point x="280" y="586"/>
			<point x="68" y="417" type="curve"/>
			<point x="73" y="374" type="line"/>
			<point x="400" y="374" type="line"/>
			<point x="423" y="509" type="line"/>
			<point x="385" y="509" type="line"/>
			<point x="359" y="439"/>
			<point x="343" y="439"/>
			<point x="288" y="439" type="curve" smooth="yes"/>
			<point x="160" y="439" type="line"/>
			<point x="356" y="578"/>
			<point x="400" y="638"/>
			<point x="400" y="716" type="curve" smooth="yes"/>
			<point x="400" y="800"/>
			<point x="331" y="839"/>
			<point x="231" y="839" type="curve" smooth="yes"/>
			<point x="135" y="839"/>
			<point x="63" y="793"/>
			<point x="63" y="734" type="curve" smooth="yes"/>
			<point x="63" y="699"/>
			<point x="85" y="676"/>
			<point x="117" y="676" type="curve" smooth="yes"/>
			<point x="139" y="676"/>
			<point x="156" y="686"/>
			<point x="166" y="704" type="curve"/>
			<point x="149" y="724" type="line" smooth="yes"/>
			<point x="119" y="759"/>
			<point x="149" y="793"/>
		</contour>
	</outline>
</glyph>
<glyph name="threesuperior" format="2">
	<unicode hex="00B3"/>
	<advance width="439"/>
	<outline>
		<contour>
			<point x="394" y="732" type="curve" smooth="yes"/>
			<point x="394" y="798"/>
			<point x="333" y="839"/>
			<point x="241" y="839" type="curve" smooth="yes"/>
			<point x="143" y="839"/>
			<point x="83" y="792"/>
			<point x="83" y="741" type="curve" smooth="yes"/>
			<point x="83" y="710"/>
			<point x="101" y="691"/>
			<point x="132" y="691" type="curve" smooth="yes"/>
			<point x="154" y="691"/>
			<point x="174" y="704"/>
			<point x="183" y="725" type="curve"/>
			<point x="168" y="740" type="line" smooth="yes"/>
			<point x="140" y="768"/>
			<point x="167" y="793"/>
			<point x="230" y="793" type="curve" smooth="yes"/>
			<point x="286" y="793"/>
			<point x="322" y="770"/>
			<point x="322" y="727" type="curve" smooth="yes"/>
			<point x="322" y="670"/>
			<point x="265" y="634"/>
			<point x="173" y="624" type="curve"/>
			<point x="179" y="580" type="line"/>
			<point x="195" y="583"/>
			<point x="212" y="584"/>
			<point x="228" y="584" type="curve" smooth="yes"/>
			<point x="296" y="584"/>
			<point x="332" y="561"/>
			<point x="332" y="511" type="curve" smooth="yes"/>
			<point x="332" y="447"/>
			<point x="277" y="408"/>
			<point x="199" y="408" type="curve" smooth="yes"/>
			<point x="160" y="408"/>
			<point x="139" y="425"/>
			<point x="152" y="446" type="curve" smooth="yes"/>
			<point x="165" y="467" type="line"/>
			<point x="156" y="481"/>
			<point x="141" y="495"/>
			<point x="119" y="495" type="curve" smooth="yes"/>
			<point x="85" y="495"/>
			<point x="63" y="473"/>
			<point x="63" y="440" type="curve" smooth="yes"/>
			<point x="63" y="391"/>
			<point x="108" y="361"/>
			<point x="193" y="361" type="curve" smooth="yes"/>
			<point x="319" y="361"/>
			<point x="413" y="424"/>
			<point x="413" y="516" type="curve" smooth="yes"/>
			<point x="413" y="581"/>
			<point x="370" y="610"/>
			<point x="296" y="617" type="curve"/>
			<point x="296" y="624" type="line"/>
			<point x="355" y="645"/>
			<point x="394" y="678"/>
		</contour>
	</outline>
</glyph>
<glyph name="acute" format="2">
	<unicode hex="00B4"/>
	<advance width="485"/>
	<outline>
		<contour>
			<point x="293" y="753" type="curve" smooth="yes"/>
			<point x="186" y="619" type="line"/>
			<point x="214" y="590" type="line"/>
			<point x="384" y="710" type="line"/>
			<point x="391" y="756"/>
			<point x="370" y="782"/>
			<point x="341" y="782" type="curve" smooth="yes"/>
			<point x="322" y="782"/>
			<point x="309" y="773"/>
		</contour>
	</outline>
	<anchor name="_top" x="258" y="550"/>
</glyph>
<glyph name="paragraph" format="2">
	<unicode hex="00B6"/>
	<advance width="636"/>
	<outline>
		<contour>
			<point x="377" y="-80" type="curve" smooth="yes"/>
			<point x="373" y="-121"/>
			<point x="336" y="-139"/>
			<point x="300" y="-125" type="curve" smooth="yes"/>
			<point x="256" y="-108" type="line"/>
			<point x="238" y="-126"/>
			<point x="227" y="-147"/>
			<point x="227" y="-169" type="curve" smooth="yes"/>
			<point x="227" y="-206"/>
			<point x="252" y="-229"/>
			<point x="299" y="-229" type="curve" smooth="yes"/>
			<point x="327" y="-229"/>
			<point x="362" y="-213"/>
			<point x="388" y="-183" type="curve" smooth="yes"/>
			<point x="436" y="-128"/>
			<point x="468" y="0"/>
			<point x="473" y="122" type="curve" smooth="yes"/>
			<point x="494" y="637" type="line"/>
			<point x="586" y="654" type="line"/>
			<point x="593" y="700" type="line"/>
			<point x="408" y="700" type="line"/>
			<point x="384" y="29" type="line" smooth="yes"/>
			<point x="382" y="-18"/>
			<point x="381" y="-40"/>
		</contour>
		<contour>
			<point x="326" y="238" type="line"/>
			<point x="342" y="700" type="line"/>
			<point x="329" y="700" type="line" smooth="yes"/>
			<point x="172" y="700"/>
			<point x="84" y="611"/>
			<point x="84" y="453" type="curve" smooth="yes"/>
			<point x="84" y="314"/>
			<point x="170" y="238"/>
			<point x="308" y="238" type="curve" smooth="yes"/>
		</contour>
	</outline>
</glyph>
<glyph name="periodcentered" format="2">
	<unicode hex="00B7"/>
	<advance width="356"/>
	<outline>
		<contour>
			<point x="111" y="305" type="curve" smooth="yes"/>
			<point x="111" y="262"/>
			<point x="145" y="238"/>
			<point x="191" y="238" type="curve" smooth="yes"/>
			<point x="239" y="238"/>
			<point x="277" y="266"/>
			<point x="277" y="314" type="curve" smooth="yes"/>
			<point x="277" y="355"/>
			<point x="245" y="383"/>
			<point x="196" y="383" type="curve" smooth="yes"/>
			<point x="146" y="383"/>
			<point x="111" y="350"/>
		</contour>
	</outline>
</glyph>
<glyph name="onesuperior" format="2">
	<unicode hex="00B9"/>
	<advance width="338"/>
	<outline>
		<contour>
			<point x="226" y="427" type="line"/>
			<point x="245" y="830" type="line"/>
			<point x="229" y="836" type="line"/>
			<point x="79" y="820" type="line"/>
			<point x="72" y="778" type="line"/>
			<point x="170" y="778" type="line"/>
			<point x="153" y="427" type="line"/>
			<point x="62" y="414" type="line"/>
			<point x="59" y="374" type="line"/>
			<point x="310" y="374" type="line"/>
			<point x="312" y="414" type="line"/>
		</contour>
	</outline>
</glyph>
<glyph name="ordmasculine" format="2">
	<unicode hex="00BA"/>
	<advance width="473"/>
	<outline>
		<contour>
			<point x="247" y="362" type="curve" smooth="yes"/>
			<point x="378" y="362"/>
			<point x="436" y="457"/>
			<point x="436" y="565" type="curve" smooth="yes"/>
			<point x="436" y="672"/>
			<point x="375" y="741"/>
			<point x="268" y="741" type="curve" smooth="yes"/>
			<point x="135" y="741"/>
			<point x="80" y="645"/>
			<point x="80" y="539" type="curve" smooth="yes"/>
			<point x="80" y="432"/>
			<point x="144" y="362"/>
		</contour>
		<contour>
			<point x="250" y="413" type="curve" smooth="yes"/>
			<point x="193" y="413"/>
			<point x="161" y="454"/>
			<point x="161" y="538" type="curve" smooth="yes"/>
			<point x="161" y="623"/>
			<point x="184" y="690"/>
			<point x="261" y="690" type="curve" smooth="yes"/>
			<point x="330" y="690"/>
			<point x="355" y="644"/>
			<point x="355" y="565" type="curve" smooth="yes"/>
			<point x="355" y="481"/>
			<point x="332" y="413"/>
		</contour>
	</outline>
</glyph>
<glyph name="AE" format="2">
	<unicode hex="00C6"/>
	<advance width="996"/>
	<outline>
		<contour>
			<point x="24" y="0" type="line"/>
			<point x="276" y="0" type="line"/>
			<point x="282" y="46" type="line"/>
			<point x="184" y="58" type="line"/>
			<point x="248" y="231" type="line"/>
			<point x="509" y="231" type="line"/>
			<point x="560" y="58" type="line"/>
			<point x="472" y="46" type="line"/>
			<point x="466" y="0" type="line"/>
			<point x="928" y="0" type="line"/>
			<point x="953" y="184" type="line"/>
			<point x="895" y="184" type="line"/>
			<point x="880" y="143" type="line" smooth="yes"/>
			<point x="853" y="69"/>
			<point x="825" y="58"/>
			<point x="770" y="58" type="curve" smooth="yes"/>
			<point x="663" y="58" type="line"/>
			<point x="579" y="328" type="line"/>
			<point x="836" y="328" type="line"/>
			<point x="841" y="391" type="line"/>
			<point x="559" y="391" type="line"/>
			<point x="481" y="643" type="line"/>
			<point x="667" y="643" type="line" smooth="yes"/>
			<point x="730" y="643"/>
			<point x="749" y="628"/>
			<point x="772" y="559" type="curve" smooth="yes"/>
			<point x="784" y="523" type="line"/>
			<point x="842" y="532" type="line"/>
			<point x="826" y="700" type="line"/>
			<point x="363" y="700" type="line"/>
			<point x="117" y="58" type="line"/>
			<point x="30" y="46" type="line"/>
		</contour>
		<contour>
			<point x="269" y="288" type="line"/>
			<point x="393" y="619" type="line"/>
			<point x="396" y="619" type="line"/>
			<point x="493" y="288" type="line"/>
		</contour>
	</outline>
	<anchor name="top" x="606" y="730"/>
</glyph>
<glyph name="multiply" format="2">
	<unicode hex="00D7"/>
	<advance width="620"/>
	<outline>
		<contour>
			<point x="440" y="120" type="line"/>
			<point x="494" y="172" type="line"/>
			<point x="359" y="312" type="line"/>
			<point x="500" y="449" type="line"/>
			<point x="452" y="501" type="line"/>
			<point x="310" y="364" type="line"/>
			<point x="182" y="495" type="line"/>
			<point x="128" y="445" type="line"/>
			<point x="257" y="313" type="line"/>
			<point x="119" y="178" type="line"/>
			<point x="168" y="128" type="line"/>
			<point x="306" y="261" type="line"/>
		</contour>
	</outline>
</glyph>
<glyph name="Thorn" format="2">
	<unicode hex="00DE"/>
	<advance width="647"/>
	<outline>
		<contour>
			<point x="65" y="0" type="line"/>
			<point x="388" y="0" type="line"/>
			<point x="392" y="47" type="line"/>
			<point x="253" y="61" type="line"/>
			<point x="257" y="152" type="line"/>
			<point x="351" y="152" type="line" smooth="yes"/>
			<point x="508" y="152"/>
			<point x="605" y="234"/>
			<point x="605" y="367" type="curve" smooth="yes"/>
			<point x="605" y="504"/>
			<point x="501" y="559"/>
			<point x="351" y="559" type="curve" smooth="yes"/>
			<point x="272" y="559" type="line"/>
			<point x="275" y="640" type="line"/>
			<point x="386" y="649" type="line"/>
			<point x="392" y="700" type="line"/>
			<point x="103" y="700" type="line"/>
			<point x="97" y="654" type="line"/>
			<point x="190" y="637" type="line"/>
			<point x="165" y="60" type="line"/>
			<point x="70" y="44" type="line"/>
		</contour>
		<contour>
			<point x="259" y="209" type="line"/>
			<point x="271" y="502" type="line"/>
			<point x="342" y="502" type="line" smooth="yes"/>
			<point x="441" y="502"/>
			<point x="508" y="469"/>
			<point x="508" y="364" type="curve" smooth="yes"/>
			<point x="508" y="258"/>
			<point x="458" y="209"/>
			<point x="342" y="209" type="curve" smooth="yes"/>
		</contour>
	</outline>
</glyph>
<glyph name="germandbls" format="2">
	<unicode hex="00DF"/>
	<advance width="712"/>
	<outline>
		<contour>
			<point x="468" y="46" type="curve" smooth="yes"/>
			<point x="416" y="46"/>
			<point x="399" y="61"/>
			<point x="399" y="98" type="curve" smooth="yes"/>
			<point x="399" y="126" type="line"/>
			<point x="389" y="132"/>
			<point x="371" y="140"/>
			<point x="351" y="140" type="curve" smooth="yes"/>
			<point x="318" y="140"/>
			<point x="292" y="119"/>
			<point x="292" y="82" type="curve" smooth="yes"/>
			<point x="292" y="26"/>
			<point x="364" y="-14"/>
			<point x="458" y="-14" type="curve" smooth="yes"/>
			<point x="582" y="-14"/>
			<point x="653" y="59"/>
			<point x="653" y="151" type="curve" smooth="yes"/>
			<point x="653" y="304"/>
			<point x="438" y="309"/>
			<point x="438" y="403" type="curve" smooth="yes"/>
			<point x="438" y="490"/>
			<point x="596" y="517"/>
			<point x="596" y="639" type="curve" smooth="yes"/>
			<point x="596" y="730"/>
			<point x="501" y="782"/>
			<point x="389" y="782" type="curve" smooth="yes"/>
			<point x="226" y="782"/>
			<point x="140" y="688"/>
			<point x="135" y="560" type="curve" smooth="yes"/>
			<point x="116" y="29" type="line" smooth="yes"/>
			<point x="115" y="5"/>
			<point x="113" y="-50"/>
			<point x="109" y="-80" type="curve" smooth="yes"/>
			<point x="104" y="-121"/>
			<point x="73" y="-139"/>
			<point x="36" y="-125" type="curve" smooth="yes"/>
			<point x="-8" y="-108" type="line"/>
			<point x="-26" y="-126"/>
			<point x="-37" y="-147"/>
			<point x="-37" y="-169" type="curve" smooth="yes"/>
			<point x="-37" y="-206"/>
			<point x="-12" y="-229"/>
			<point x="35" y="-229" type="curve" smooth="yes"/>
			<point x="63" y="-229"/>
			<point x="98" y="-213"/>
			<point x="124" y="-183" type="curve" smooth="yes"/>
			<point x="172" y="-128"/>
			<point x="204" y="0"/>
			<point x="209" y="122" type="curve" smooth="yes"/>
			<point x="229" y="586" type="line" smooth="yes"/>
			<point x="233" y="677"/>
			<point x="284" y="722"/>
			<point x="389" y="722" type="curve" smooth="yes"/>
			<point x="464" y="722"/>
			<point x="513" y="694"/>
			<point x="513" y="635" type="curve" smooth="yes"/>
			<point x="513" y="520"/>
			<point x="358" y="513"/>
			<point x="358" y="380" type="curve" smooth="yes"/>
			<point x="358" y="243"/>
			<point x="576" y="241"/>
			<point x="576" y="128" type="curve" smooth="yes"/>
			<point x="576" y="77"/>
			<point x="529" y="46"/>
		</contour>
	</outline>
</glyph>
<glyph name="ae" format="2">
	<unicode hex="00E6"/>
	<advance width="849"/>
	<outline>
		<contour>
			<point x="645" y="532" type="curve" smooth="yes"/>
			<point x="592" y="532"/>
			<point x="546" y="515"/>
			<point x="517" y="490" type="curve"/>
			<point x="521" y="522" type="line"/>
			<point x="505" y="530" type="line"/>
			<point x="430" y="507" type="line"/>
			<point x="404" y="519"/>
			<point x="357" y="532"/>
			<point x="306" y="532" type="curve" smooth="yes"/>
			<point x="166" y="532"/>
			<point x="61" y="403"/>
			<point x="61" y="208" type="curve" smooth="yes"/>
			<point x="61" y="82"/>
			<point x="113" y="-14"/>
			<point x="229" y="-14" type="curve" smooth="yes"/>
			<point x="299" y="-14"/>
			<point x="354" y="16"/>
			<point x="397" y="132" type="curve"/>
			<point x="418" y="59"/>
			<point x="482" y="-14"/>
			<point x="594" y="-14" type="curve" smooth="yes"/>
			<point x="704" y="-14"/>
			<point x="769" y="51"/>
			<point x="791" y="80" type="curve"/>
			<point x="755" y="117" type="line"/>
			<point x="701" y="70"/>
			<point x="660" y="55"/>
			<point x="613" y="55" type="curve" smooth="yes"/>
			<point x="520" y="55"/>
			<point x="481" y="141"/>
			<point x="475" y="205" type="curve"/>
			<point x="597" y="233" type="line" smooth="yes"/>
			<point x="687" y="254"/>
			<point x="796" y="290"/>
			<point x="796" y="404" type="curve" smooth="yes"/>
			<point x="796" y="477"/>
			<point x="745" y="532"/>
		</contour>
		<contour>
			<point x="241" y="55" type="curve" smooth="yes"/>
			<point x="182" y="55"/>
			<point x="155" y="105"/>
			<point x="155" y="212" type="curve" smooth="yes"/>
			<point x="155" y="370"/>
			<point x="221" y="471"/>
			<point x="316" y="471" type="curve" smooth="yes"/>
			<point x="355" y="471"/>
			<point x="409" y="460"/>
			<point x="436" y="447" type="curve"/>
			<point x="399" y="317" type="line" smooth="yes"/>
			<point x="341" y="114"/>
			<point x="315" y="55"/>
		</contour>
		<contour>
			<point x="701" y="400" type="curve" smooth="yes"/>
			<point x="701" y="332"/>
			<point x="664" y="307"/>
			<point x="588" y="290" type="curve" smooth="yes"/>
			<point x="474" y="264" type="line"/>
			<point x="481" y="391"/>
			<point x="537" y="476"/>
			<point x="629" y="476" type="curve" smooth="yes"/>
			<point x="680" y="476"/>
			<point x="701" y="444"/>
		</contour>
	</outline>
	<anchor name="top" x="488" y="550"/>
</glyph>
<glyph name="divide" format="2">
	<unicode hex="00F7"/>
	<advance width="620"/>
	<outline>
		<contour>
			<point x="96" y="270" type="line"/>
			<point x="524" y="270" type="line"/>
			<point x="527" y="343" type="line"/>
			<point x="99" y="343" type="line"/>
		</contour>
		<contour>
			<point x="296" y="82" type="curve" smooth="yes"/>
			<point x="335" y="82"/>
			<point x="368" y="112"/>
			<point x="368" y="150" type="curve" smooth="yes"/>
			<point x="368" y="186"/>
			<point x="339" y="211"/>
			<point x="302" y="211" type="curve" smooth="yes"/>
			<point x="264" y="211"/>
			<point x="231" y="185"/>
			<point x="231" y="143" type="curve" smooth="yes"/>
			<point x="231" y="107"/>
			<point x="260" y="82"/>
		</contour>
		<contour>
			<point x="316" y="398" type="curve" smooth="yes"/>
			<point x="355" y="398"/>
			<point x="388" y="428"/>
			<point x="388" y="466" type="curve" smooth="yes"/>
			<point x="388" y="502"/>
			<point x="359" y="527"/>
			<point x="322" y="527" type="curve" smooth="yes"/>
			<point x="284" y="527"/>
			<point x="251" y="501"/>
			<point x="251" y="459" type="curve" smooth="yes"/>
			<point x="251" y="423"/>
			<point x="280" y="398"/>
		</contour>
	</outline>
</glyph>
<glyph name="Aogonek" format="2">
	<unicode hex="0104"/>
	<advance width="759"/>
	<outline>
		<contour>
			<point x="542" y="-229" type="curve" smooth="yes"/>
			<point x="600" y="-229"/>
			<point x="649" y="-197"/>
			<point x="676" y="-158" type="curve"/>
			<point x="644" y="-128" type="line"/>
			<point x="625" y="-147"/>
			<point x="602" y="-160"/>
			<point x="583" y="-160" type="curve" smooth="yes"/>
			<point x="560" y="-160"/>
			<point x="549" y="-149"/>
			<point x="549" y="-128" type="curve" smooth="yes"/>
			<point x="549" y="-81"/>
			<point x="594" y="-33"/>
			<point x="637" y="0" type="curve"/>
			<point x="750" y="0" type="line"/>
			<point x="757" y="46" type="line"/>
			<point x="663" y="57" type="line"/>
			<point x="464" y="706" type="line"/>
			<point x="361" y="695" type="line"/>
			<point x="117" y="58" type="line"/>
			<point x="30" y="46" type="line"/>
			<point x="24" y="0" type="line"/>
			<point x="276" y="0" type="line"/>
			<point x="282" y="46" type="line"/>
			<point x="184" y="58" type="line"/>
			<point x="248" y="231" type="line"/>
			<point x="509" y="231" type="line"/>
			<point x="560" y="58" type="line"/>
			<point x="472" y="46" type="line"/>
			<point x="466" y="0" type="line"/>
			<point x="578" y="0" type="line"/>
			<point x="526" y="-37"/>
			<point x="462" y="-92"/>
			<point x="462" y="-155" type="curve" smooth="yes"/>
			<point x="462" y="-204"/>
			<point x="500" y="-229"/>
		</contour>
		<contour>
			<point x="269" y="288" type="line"/>
			<point x="393" y="619" type="line"/>
			<point x="396" y="619" type="line"/>
			<point x="493" y="288" type="line"/>
		</contour>
	</outline>
</glyph>
<glyph name="dcroat" format="2">
	<unicode hex="0111"/>
	<advance width="638"/>
	<outline>
		<contour>
			<point x="221" y="-14" type="curve" smooth="yes"/>
			<point x="328" y="-14"/>
			<point x="377" y="55"/>
			<point x="413" y="189" type="curve" smooth="yes"/>
			<point x="444" y="303" type="line"/>
			<point x="456" y="302" type="line"/>
			<point x="429" y="86" type="line" smooth="yes"/>
			<point x="422" y="33"/>
			<point x="434" y="-14"/>
			<point x="498" y="-14" type="curve" smooth="yes"/>
			<point x="542" y="-14"/>
			<point x="598" y="16"/>
			<point x="622" y="37" type="curve"/>
			<point x="597" y="74" type="line"/>
			<point x="575" y="61"/>
			<point x="553" y="49"/>
			<point x="534" y="49" type="curve" smooth="yes"/>
			<point x="510" y="49"/>
			<point x="505" y="60"/>
			<point x="506" y="89" type="curve" smooth="yes"/>
			<point x="519" y="585" type="line"/>
			<point x="609" y="585" type="line"/>
			<point x="611" y="642" type="line"/>
			<point x="521" y="642" type="line"/>
			<point x="524" y="756" type="line"/>
			<point x="508" y="767" type="line"/>
			<point x="341" y="767" type="line"/>
			<point x="335" y="719" type="line"/>
			<point x="435" y="698" type="line"/>
			<point x="433" y="642" type="line"/>
			<point x="271" y="642" type="line"/>
			<point x="268" y="585" type="line"/>
			<point x="431" y="585" type="line"/>
			<point x="428" y="507" type="line"/>
			<point x="402" y="519"/>
			<point x="348" y="532"/>
			<point x="307" y="532" type="curve" smooth="yes"/>
			<point x="157" y="532"/>
			<point x="58" y="399"/>
			<point x="58" y="213" type="curve" smooth="yes"/>
			<point x="58" y="93"/>
			<point x="105" y="-14"/>
		</contour>
		<contour>
			<point x="237" y="55" type="curve" smooth="yes"/>
			<point x="180" y="55"/>
			<point x="150" y="114"/>
			<point x="150" y="218" type="curve" smooth="yes"/>
			<point x="150" y="373"/>
			<point x="214" y="471"/>
			<point x="315" y="471" type="curve" smooth="yes"/>
			<point x="353" y="471"/>
			<point x="408" y="461"/>
			<point x="435" y="448" type="curve"/>
			<point x="397" y="316" type="line" smooth="yes"/>
			<point x="344" y="130"/>
			<point x="315" y="55"/>
		</contour>
	</outline>
</glyph>
<glyph name="eogonek" format="2">
	<unicode hex="0119"/>
	<advance width="526"/>
	<outline>
		<contour>
			<point x="58" y="233" type="curve" smooth="yes"/>
			<point x="58" y="94"/>
			<point x="133" y="-14"/>
			<point x="272" y="-14" type="curve" smooth="yes"/>
			<point x="290" y="-14"/>
			<point x="310" y="-11"/>
			<point x="325" y="-8" type="curve"/>
			<point x="266" y="-61"/>
			<point x="219" y="-97"/>
			<point x="219" y="-155" type="curve" smooth="yes"/>
			<point x="219" y="-204"/>
			<point x="257" y="-229"/>
			<point x="299" y="-229" type="curve" smooth="yes"/>
			<point x="357" y="-229"/>
			<point x="406" y="-197"/>
			<point x="433" y="-158" type="curve"/>
			<point x="401" y="-128" type="line"/>
			<point x="382" y="-147"/>
			<point x="359" y="-160"/>
			<point x="340" y="-160" type="curve" smooth="yes"/>
			<point x="317" y="-160"/>
			<point x="306" y="-149"/>
			<point x="306" y="-128" type="curve" smooth="yes"/>
			<point x="306" y="-77"/>
			<point x="375" y="-9"/>
			<point x="421" y="33" type="curve" smooth="yes"/>
			<point x="430" y="41"/>
			<point x="456" y="64"/>
			<point x="468" y="80" type="curve"/>
			<point x="432" y="117" type="line"/>
			<point x="378" y="70"/>
			<point x="337" y="55"/>
			<point x="290" y="55" type="curve" smooth="yes"/>
			<point x="197" y="55"/>
			<point x="158" y="141"/>
			<point x="152" y="205" type="curve"/>
			<point x="274" y="233" type="line" smooth="yes"/>
			<point x="364" y="254"/>
			<point x="473" y="290"/>
			<point x="473" y="404" type="curve" smooth="yes"/>
			<point x="473" y="477"/>
			<point x="422" y="532"/>
			<point x="314" y="532" type="curve" smooth="yes"/>
			<point x="163" y="532"/>
			<point x="58" y="404"/>
		</contour>
		<contour>
			<point x="151" y="264" type="line"/>
			<point x="158" y="391"/>
			<point x="214" y="476"/>
			<point x="306" y="476" type="curve" smooth="yes"/>
			<point x="357" y="476"/>
			<point x="378" y="444"/>
			<point x="378" y="399" type="curve" smooth="yes"/>
			<point x="378" y="332"/>
			<point x="341" y="307"/>
			<point x="265" y="290" type="curve" smooth="yes"/>
		</contour>
	</outline>
</glyph>
<glyph name="Hbar" format="2">
	<unicode hex="0126"/>
	<advance width="832"/>
	<outline>
		<contour>
			<point x="65" y="0" type="line"/>
			<point x="347" y="0" type="line"/>
			<point x="353" y="46" type="line"/>
			<point x="250" y="59" type="line"/>
			<point x="260" y="328" type="line"/>
			<point x="604" y="328" type="line"/>
			<point x="594" y="59" type="line"/>
			<point x="505" y="46" type="line"/>
			<point x="499" y="0" type="line"/>
			<point x="780" y="0" type="line"/>
			<point x="786" y="46" type="line"/>
			<point x="683" y="59" type="line"/>
			<point x="699" y="480" type="line"/>
			<point x="800" y="480" type="line"/>
			<point x="807" y="540" type="line"/>
			<point x="701" y="540" type="line"/>
			<point x="705" y="637" type="line"/>
			<point x="797" y="654" type="line"/>
			<point x="803" y="700" type="line"/>
			<point x="530" y="700" type="line"/>
			<point x="524" y="654" type="line"/>
			<point x="617" y="637" type="line"/>
			<point x="613" y="540" type="line"/>
			<point x="267" y="540" type="line"/>
			<point x="271" y="637" type="line"/>
			<point x="363" y="654" type="line"/>
			<point x="370" y="700" type="line"/>
			<point x="96" y="700" type="line"/>
			<point x="89" y="654" type="line"/>
			<point x="183" y="637" type="line"/>
			<point x="179" y="540" type="line"/>
			<point x="67" y="540" type="line"/>
			<point x="59" y="480" type="line"/>
			<point x="177" y="480" type="line"/>
			<point x="160" y="59" type="line"/>
			<point x="71" y="46" type="line"/>
		</contour>
		<contour>
			<point x="261" y="391" type="line"/>
			<point x="265" y="480" type="line"/>
			<point x="610" y="480" type="line"/>
			<point x="606" y="391" type="line"/>
		</contour>
	</outline>
</glyph>
<glyph name="iogonek" format="2">
	<unicode hex="012F"/>
	<advance width="336"/>
	<outline>
		<contour>
			<point x="110" y="77" type="line" smooth="yes"/>
			<point x="105" y="16"/>
			<point x="133" y="-14"/>
			<point x="194" y="-14" type="curve"/>
			<point x="146" y="-50"/>
			<point x="97" y="-100"/>
			<point x="97" y="-155" type="curve" smooth="yes"/>
			<point x="97" y="-204"/>
			<point x="135" y="-229"/>
			<point x="177" y="-229" type="curve" smooth="yes"/>
			<point x="235" y="-229"/>
			<point x="284" y="-197"/>
			<point x="311" y="-158" type="curve"/>
			<point x="279" y="-128" type="line"/>
			<point x="260" y="-147"/>
			<point x="237" y="-160"/>
			<point x="218" y="-160" type="curve" smooth="yes"/>
			<point x="195" y="-160"/>
			<point x="184" y="-149"/>
			<point x="184" y="-128" type="curve" smooth="yes"/>
			<point x="184" y="-78"/>
			<point x="236" y="-21"/>
			<point x="281" y="11" type="curve" smooth="yes"/>
			<point x="297" y="23"/>
			<point x="311" y="34"/>
			<point x="321" y="43" type="curve"/>
			<point x="294" y="82" type="line"/>
			<point x="263" y="59"/>
			<point x="241" y="49"/>
			<point x="226" y="49" type="curve" smooth="yes"/>
			<point x="202" y="49"/>
			<point x="199" y="62"/>
			<point x="201" y="92" type="curve" smooth="yes"/>
			<point x="224" y="419" type="line" smooth="yes"/>
			<point x="229" y="497"/>
			<point x="204" y="532"/>
			<point x="147" y="532" type="curve" smooth="yes"/>
			<point x="101" y="532"/>
			<point x="48" y="512"/>
			<point x="21" y="497" type="curve"/>
			<point x="39" y="449" type="line"/>
			<point x="69" y="461"/>
			<point x="91" y="465"/>
			<point x="109" y="465" type="curve" smooth="yes"/>
			<point x="132" y="465"/>
			<point x="138" y="455"/>
			<point x="136" y="424" type="curve" smooth="yes"/>
		</contour>
		<contour>
			<point x="106" y="686" type="curve" smooth="yes"/>
			<point x="106" y="647"/>
			<point x="135" y="620"/>
			<point x="176" y="620" type="curve" smooth="yes"/>
			<point x="216" y="620"/>
			<point x="243" y="648"/>
			<point x="243" y="687" type="curve" smooth="yes"/>
			<point x="243" y="726"/>
			<point x="215" y="753"/>
			<point x="175" y="753" type="curve" smooth="yes"/>
			<point x="134" y="753"/>
			<point x="106" y="725"/>
		</contour>
	</outline>
</glyph>
<glyph name="idotless" format="2">
	<unicode hex="0131"/>
	<advance width="303"/>
	<outline>
		<contour>
			<point x="120" y="424" type="curve" smooth="yes"/>
			<point x="94" y="77" type="line" smooth="yes"/>
			<point x="90" y="29"/>
			<point x="107" y="-14"/>
			<point x="173" y="-14" type="curve" smooth="yes"/>
			<point x="236" y="-14"/>
			<point x="282" y="22"/>
			<point x="305" y="43" type="curve"/>
			<point x="278" y="82" type="line"/>
			<point x="247" y="59"/>
			<point x="225" y="49"/>
			<point x="210" y="49" type="curve" smooth="yes"/>
			<point x="186" y="49"/>
			<point x="183" y="62"/>
			<point x="185" y="92" type="curve" smooth="yes"/>
			<point x="208" y="419" type="line" smooth="yes"/>
			<point x="213" y="497"/>
			<point x="188" y="532"/>
			<point x="131" y="532" type="curve" smooth="yes"/>
			<point x="85" y="532"/>
			<point x="32" y="512"/>
			<point x="5" y="497" type="curve"/>
			<point x="23" y="449" type="line"/>
			<point x="53" y="461"/>
			<point x="75" y="465"/>
			<point x="93" y="465" type="curve" smooth="yes"/>
			<point x="116" y="465"/>
			<point x="122" y="455"/>
		</contour>
	</outline>
	<anchor name="bottom" x="169" y="-30"/>
	<anchor name="top" x="123" y="550"/>
	<guideline x="251" y="247" angle="265.6142"/>
</glyph>
<glyph name="kgreenlandic" format="2">
	<unicode hex="0138"/>
	<advance width="611"/>
	<outline>
		<contour>
			<point x="106" y="0" type="line"/>
			<point x="190" y="0" type="line"/>
			<point x="202" y="238" type="line"/>
			<point x="221" y="242"/>
			<point x="242" y="248"/>
			<point x="262" y="254" type="curve"/>
			<point x="373" y="65" type="line" smooth="yes"/>
			<point x="401" y="17"/>
			<point x="435" y="-14"/>
			<point x="487" y="-14" type="curve" smooth="yes"/>
			<point x="536" y="-14"/>
			<point x="577" y="11"/>
			<point x="598" y="30" type="curve"/>
			<point x="573" y="70" type="line"/>
			<point x="557" y="60"/>
			<point x="540" y="51"/>
			<point x="519" y="51" type="curve" smooth="yes"/>
			<point x="491" y="51"/>
			<point x="474" y="65"/>
			<point x="450" y="105" type="curve" smooth="yes"/>
			<point x="342" y="284" type="line"/>
			<point x="367" y="295"/>
			<point x="387" y="304"/>
			<point x="416" y="322" type="curve" smooth="yes"/>
			<point x="489" y="367"/>
			<point x="518" y="406"/>
			<point x="518" y="457" type="curve" smooth="yes"/>
			<point x="518" y="498"/>
			<point x="492" y="532"/>
			<point x="448" y="532" type="curve" smooth="yes"/>
			<point x="410" y="532"/>
			<point x="378" y="508"/>
			<point x="369" y="463" type="curve"/>
			<point x="400" y="446" type="line" smooth="yes"/>
			<point x="429" y="430"/>
			<point x="422" y="398"/>
			<point x="378" y="369" type="curve" smooth="yes"/>
			<point x="324" y="333"/>
			<point x="264" y="313"/>
			<point x="204" y="303" type="curve"/>
			<point x="210" y="432" type="line" smooth="yes"/>
			<point x="213" y="490"/>
			<point x="203" y="532"/>
			<point x="135" y="532" type="curve" smooth="yes"/>
			<point x="92" y="532"/>
			<point x="35" y="511"/>
			<point x="12" y="499" type="curve"/>
			<point x="31" y="447" type="line"/>
			<point x="61" y="459"/>
			<point x="82" y="465"/>
			<point x="95" y="465" type="curve" smooth="yes"/>
			<point x="118" y="465"/>
			<point x="126" y="454"/>
			<point x="125" y="425" type="curve" smooth="yes"/>
		</contour>
	</outline>
</glyph>
<glyph name="lslash" format="2">
	<unicode hex="0142"/>
	<advance width="340"/>
	<outline>
		<contour>
			<point x="182" y="-14" type="curve" smooth="yes"/>
			<point x="245" y="-14"/>
			<point x="291" y="22"/>
			<point x="314" y="43" type="curve"/>
			<point x="287" y="82" type="line"/>
			<point x="256" y="59"/>
			<point x="234" y="49"/>
			<point x="219" y="49" type="curve" smooth="yes"/>
			<point x="194" y="49"/>
			<point x="193" y="62"/>
			<point x="194" y="92" type="curve" smooth="yes"/>
			<point x="204" y="380" type="line"/>
			<point x="311" y="441" type="line"/>
			<point x="318" y="511" type="line"/>
			<point x="207" y="447" type="line"/>
			<point x="218" y="756" type="line"/>
			<point x="201" y="767" type="line"/>
			<point x="35" y="767" type="line"/>
			<point x="29" y="719" type="line"/>
			<point x="130" y="698" type="line"/>
			<point x="118" y="411" type="line"/>
			<point x="28" y="363" type="line"/>
			<point x="21" y="293" type="line"/>
			<point x="115" y="343" type="line"/>
			<point x="103" y="77" type="line" smooth="yes"/>
			<point x="101" y="23"/>
			<point x="117" y="-14"/>
		</contour>
	</outline>
</glyph>
<glyph name="Eng" format="2">
	<unicode hex="014A"/>
	<advance width="818"/>
	<outline>
		<contour>
			<point x="65" y="0" type="line"/>
			<point x="322" y="0" type="line"/>
			<point x="328" y="46" type="line"/>
			<point x="226" y="59" type="line"/>
			<point x="245" y="621" type="line"/>
			<point x="585" y="-7" type="line"/>
			<point x="572" y="-75"/>
			<point x="541" y="-124"/>
			<point x="475" y="-191" type="curve"/>
			<point x="506" y="-229" type="line"/>
			<point x="665" y="-109"/>
			<point x="675" y="-24"/>
			<point x="679" y="75" type="curve" smooth="yes"/>
			<point x="701" y="637" type="line"/>
			<point x="793" y="654" type="line"/>
			<point x="799" y="700" type="line"/>
			<point x="551" y="700" type="line"/>
			<point x="545" y="654" type="line"/>
			<point x="638" y="637" type="line"/>
			<point x="620" y="101" type="line"/>
			<point x="304" y="700" type="line"/>
			<point x="96" y="700" type="line"/>
			<point x="89" y="654" type="line"/>
			<point x="183" y="637" type="line"/>
			<point x="160" y="59" type="line"/>
			<point x="71" y="46" type="line"/>
		</contour>
	</outline>
</glyph>
<glyph name="eng" format="2">
	<unicode hex="014B"/>
	<advance width="653"/>
	<outline>
		<contour>
			<point x="341" y="-229" type="curve" smooth="yes"/>
			<point x="369" y="-229"/>
			<point x="404" y="-213"/>
			<point x="430" y="-183" type="curve" smooth="yes"/>
			<point x="480" y="-125"/>
			<point x="514" y="12"/>
			<point x="524" y="123" type="curve" smooth="yes"/>
			<point x="545" y="359" type="line" smooth="yes"/>
			<point x="555" y="474"/>
			<point x="529" y="532"/>
			<point x="431" y="532" type="curve" smooth="yes"/>
			<point x="349" y="532"/>
			<point x="303" y="485"/>
			<point x="268" y="378" type="curve" smooth="yes"/>
			<point x="186" y="126" type="line"/>
			<point x="177" y="128" type="line"/>
			<point x="209" y="430" type="line" smooth="yes"/>
			<point x="215" y="488"/>
			<point x="203" y="532"/>
			<point x="135" y="532" type="curve" smooth="yes"/>
			<point x="92" y="532"/>
			<point x="35" y="511"/>
			<point x="12" y="499" type="curve"/>
			<point x="31" y="447" type="line"/>
			<point x="61" y="459"/>
			<point x="82" y="465"/>
			<point x="95" y="465" type="curve" smooth="yes"/>
			<point x="118" y="465"/>
			<point x="126" y="454"/>
			<point x="125" y="425" type="curve" smooth="yes"/>
			<point x="109" y="0" type="line"/>
			<point x="197" y="0" type="line"/>
			<point x="322" y="341" type="line" smooth="yes"/>
			<point x="352" y="424"/>
			<point x="368" y="458"/>
			<point x="414" y="458" type="curve" smooth="yes"/>
			<point x="454" y="458"/>
			<point x="464" y="430"/>
			<point x="458" y="365" type="curve" smooth="yes"/>
			<point x="419" y="-74" type="line" smooth="yes"/>
			<point x="413" y="-138"/>
			<point x="374" y="-139"/>
			<point x="338" y="-125" type="curve" smooth="yes"/>
			<point x="294" y="-108" type="line"/>
			<point x="275" y="-128"/>
			<point x="265" y="-145"/>
			<point x="265" y="-170" type="curve" smooth="yes"/>
			<point x="265" y="-203"/>
			<point x="290" y="-229"/>
		</contour>
	</outline>
</glyph>
<glyph name="oe" format="2">
	<unicode hex="0153"/>
	<advance width="900"/>
	<outline>
		<contour>
			<point x="688" y="532" type="curve" smooth="yes"/>
			<point x="590" y="532"/>
			<point x="529" y="480"/>
			<point x="494" y="435" type="curve"/>
			<point x="460" y="491"/>
			<point x="397" y="532"/>
			<point x="311" y="532" type="curve" smooth="yes"/>
			<point x="128" y="532"/>
			<point x="59" y="391"/>
			<point x="59" y="242" type="curve" smooth="yes"/>
			<point x="59" y="89"/>
			<point x="140" y="-14"/>
			<point x="282" y="-14" type="curve" smooth="yes"/>
			<point x="375" y="-14"/>
			<point x="439" y="24"/>
			<point x="475" y="74" type="curve"/>
			<point x="502" y="31"/>
			<point x="557" y="-14"/>
			<point x="645" y="-14" type="curve" smooth="yes"/>
			<point x="755" y="-14"/>
			<point x="820" y="51"/>
			<point x="842" y="80" type="curve"/>
			<point x="806" y="117" type="line"/>
			<point x="752" y="70"/>
			<point x="711" y="55"/>
			<point x="664" y="55" type="curve" smooth="yes"/>
			<point x="571" y="55"/>
			<point x="532" y="141"/>
			<point x="526" y="205" type="curve"/>
			<point x="648" y="233" type="line" smooth="yes"/>
			<point x="738" y="254"/>
			<point x="847" y="290"/>
			<point x="847" y="404" type="curve" smooth="yes"/>
			<point x="847" y="477"/>
			<point x="796" y="532"/>
		</contour>
		<contour>
			<point x="287" y="46" type="curve" smooth="yes"/>
			<point x="204" y="46"/>
			<point x="157" y="117"/>
			<point x="157" y="239" type="curve" smooth="yes"/>
			<point x="157" y="359"/>
			<point x="186" y="472"/>
			<point x="302" y="472" type="curve" smooth="yes"/>
			<point x="391" y="472"/>
			<point x="437" y="404"/>
			<point x="437" y="277" type="curve" smooth="yes"/>
			<point x="437" y="158"/>
			<point x="404" y="46"/>
		</contour>
		<contour>
			<point x="752" y="399" type="curve" smooth="yes"/>
			<point x="752" y="332"/>
			<point x="715" y="307"/>
			<point x="639" y="290" type="curve" smooth="yes"/>
			<point x="525" y="264" type="line"/>
			<point x="532" y="391"/>
			<point x="588" y="476"/>
			<point x="680" y="476" type="curve" smooth="yes"/>
			<point x="731" y="476"/>
			<point x="752" y="444"/>
		</contour>
	</outline>
</glyph>
<glyph name="tcedilla" format="2">
	<unicode hex="0163"/>
	<advance width="459"/>
	<outline>
		<contour>
			<point x="245" y="-229" type="curve" smooth="yes"/>
			<point x="312" y="-229"/>
			<point x="363" y="-190"/>
			<point x="363" y="-130" type="curve" smooth="yes"/>
			<point x="363" y="-74"/>
			<point x="321" y="-50"/>
			<point x="264" y="-52" type="curve"/>
			<point x="277" y="-13" type="line"/>
			<point x="338" y="-8"/>
			<point x="390" y="27"/>
			<point x="424" y="70" type="curve"/>
			<point x="388" y="108" type="line"/>
			<point x="355" y="78"/>
			<point x="321" y="56"/>
			<point x="280" y="56" type="curve" smooth="yes"/>
			<point x="226" y="56"/>
			<point x="207" y="88"/>
			<point x="209" y="141" type="curve" smooth="yes"/>
			<point x="223" y="457" type="line"/>
			<point x="393" y="457" type="line"/>
			<point x="397" y="519" type="line"/>
			<point x="226" y="519" type="line"/>
			<point x="237" y="674" type="line"/>
			<point x="181" y="674" type="line"/>
			<point x="138" y="521" type="line"/>
			<point x="55" y="513" type="line"/>
			<point x="48" y="457" type="line"/>
			<point x="131" y="457" type="line"/>
			<point x="121" y="133" type="line" smooth="yes"/>
			<point x="118" y="54"/>
			<point x="147" y="0"/>
			<point x="225" y="-12" type="curve"/>
			<point x="205" y="-76" type="line"/>
			<point x="213" y="-97" type="line"/>
			<point x="248" y="-94"/>
			<point x="287" y="-97"/>
			<point x="287" y="-133" type="curve" smooth="yes"/>
			<point x="287" y="-162"/>
			<point x="267" y="-174"/>
			<point x="236" y="-174" type="curve" smooth="yes"/>
			<point x="216" y="-174"/>
			<point x="187" y="-167"/>
			<point x="173" y="-160" type="curve"/>
			<point x="157" y="-209" type="line"/>
			<point x="179" y="-221"/>
			<point x="217" y="-229"/>
		</contour>
	</outline>
</glyph>
<glyph name="Tbar" format="2">
	<unicode hex="0166"/>
	<advance width="681"/>
	<outline>
		<contour>
			<point x="182" y="0" type="line"/>
			<point x="498" y="0" type="line"/>
			<point x="504" y="46" type="line"/>
			<point x="388" y="58" type="line"/>
			<point x="396" y="314" type="line"/>
			<point x="565" y="314" type="line"/>
			<point x="570" y="379" type="line"/>
			<point x="398" y="379" type="line"/>
			<point x="407" y="643" type="line"/>
			<point x="506" y="643" type="line" smooth="yes"/>
			<point x="567" y="643"/>
			<point x="585" y="628"/>
			<point x="609" y="562" type="curve" smooth="yes"/>
			<point x="623" y="523" type="line"/>
			<point x="680" y="533" type="line"/>
			<point x="665" y="700" type="line"/>
			<point x="70" y="700" type="line"/>
			<point x="45" y="534" type="line"/>
			<point x="104" y="523" type="line"/>
			<point x="118" y="562" type="line" smooth="yes"/>
			<point x="142" y="630"/>
			<point x="162" y="643"/>
			<point x="224" y="643" type="curve" smooth="yes"/>
			<point x="320" y="643" type="line"/>
			<point x="311" y="379" type="line"/>
			<point x="139" y="379" type="line"/>
			<point x="133" y="314" type="line"/>
			<point x="308" y="314" type="line"/>
			<point x="299" y="59" type="line"/>
			<point x="188" y="46" type="line"/>
		</contour>
	</outline>
</glyph>
<glyph name="Uogonek" format="2">
	<unicode hex="0172"/>
	<advance width="799"/>
	<outline>
		<contour>
			<point x="582" y="-229" type="curve" smooth="yes"/>
			<point x="640" y="-229"/>
			<point x="689" y="-197"/>
			<point x="716" y="-158" type="curve"/>
			<point x="684" y="-128" type="line"/>
			<point x="665" y="-147"/>
			<point x="642" y="-160"/>
			<point x="623" y="-160" type="curve" smooth="yes"/>
			<point x="600" y="-160"/>
			<point x="589" y="-149"/>
			<point x="589" y="-128" type="curve" smooth="yes"/>
			<point x="589" y="-81"/>
			<point x="634" y="-33"/>
			<point x="677" y="0" type="curve"/>
			<point x="741" y="0" type="line"/>
			<point x="747" y="47" type="line"/>
			<point x="654" y="60" type="line"/>
			<point x="685" y="637" type="line"/>
			<point x="764" y="654" type="line"/>
			<point x="770" y="700" type="line"/>
			<point x="523" y="700" type="line"/>
			<point x="517" y="654" type="line"/>
			<point x="608" y="637" type="line"/>
			<point x="598" y="570" type="line" smooth="yes"/>
			<point x="564" y="340"/>
			<point x="492" y="58"/>
			<point x="328" y="58" type="curve" smooth="yes"/>
			<point x="244" y="58"/>
			<point x="212" y="108"/>
			<point x="218" y="230" type="curve" smooth="yes"/>
			<point x="239" y="636" type="line"/>
			<point x="333" y="654" type="line"/>
			<point x="339" y="700" type="line"/>
			<point x="70" y="700" type="line"/>
			<point x="64" y="654" type="line"/>
			<point x="150" y="637" type="line"/>
			<point x="129" y="222" type="line" smooth="yes"/>
			<point x="121" y="67"/>
			<point x="186" y="-14"/>
			<point x="315" y="-14" type="curve" smooth="yes"/>
			<point x="455" y="-14"/>
			<point x="538" y="90"/>
			<point x="604" y="365" type="curve"/>
			<point x="614" y="365" type="line"/>
			<point x="571" y="12" type="line"/>
			<point x="579" y="0" type="line"/>
			<point x="618" y="0" type="line"/>
			<point x="566" y="-37"/>
			<point x="502" y="-92"/>
			<point x="502" y="-155" type="curve" smooth="yes"/>
			<point x="502" y="-204"/>
			<point x="540" y="-229"/>
		</contour>
	</outline>
</glyph>
<glyph name="uogonek" format="2">
	<unicode hex="0173"/>
	<advance width="656"/>
	<outline>
		<contour>
			<point x="24" y="483" type="curve"/>
			<point x="48" y="441" type="line"/>
			<point x="69" y="456"/>
			<point x="95" y="466"/>
			<point x="110" y="466" type="curve" smooth="yes"/>
			<point x="134" y="466"/>
			<point x="139" y="454"/>
			<point x="136" y="423" type="curve" smooth="yes"/>
			<point x="112" y="159" type="line" smooth="yes"/>
			<point x="101" y="43"/>
			<point x="127" y="-14"/>
			<point x="223" y="-14" type="curve" smooth="yes"/>
			<point x="302" y="-14"/>
			<point x="354" y="29"/>
			<point x="387" y="140" type="curve" smooth="yes"/>
			<point x="463" y="393" type="line"/>
			<point x="472" y="391" type="line"/>
			<point x="440" y="88" type="line" smooth="yes"/>
			<point x="433" y="16"/>
			<point x="455" y="-14"/>
			<point x="517" y="-14" type="curve"/>
			<point x="469" y="-56"/>
			<point x="420" y="-100"/>
			<point x="420" y="-155" type="curve" smooth="yes"/>
			<point x="420" y="-204"/>
			<point x="458" y="-229"/>
			<point x="500" y="-229" type="curve" smooth="yes"/>
			<point x="558" y="-229"/>
			<point x="607" y="-197"/>
			<point x="634" y="-158" type="curve"/>
			<point x="602" y="-128" type="line"/>
			<point x="583" y="-147"/>
			<point x="560" y="-160"/>
			<point x="541" y="-160" type="curve" smooth="yes"/>
			<point x="518" y="-160"/>
			<point x="507" y="-149"/>
			<point x="507" y="-128" type="curve" smooth="yes"/>
			<point x="507" y="-62"/>
			<point x="567" y="-20"/>
			<point x="637" y="19" type="curve"/>
			<point x="618" y="71" type="line"/>
			<point x="588" y="59"/>
			<point x="567" y="53"/>
			<point x="554" y="53" type="curve" smooth="yes"/>
			<point x="531" y="53"/>
			<point x="523" y="64"/>
			<point x="524" y="93" type="curve" smooth="yes"/>
			<point x="540" y="519" type="line"/>
			<point x="451" y="519" type="line"/>
			<point x="334" y="180" type="line" smooth="yes"/>
			<point x="300" y="82"/>
			<point x="281" y="60"/>
			<point x="241" y="60" type="curve" smooth="yes"/>
			<point x="201" y="60"/>
			<point x="194" y="88"/>
			<point x="200" y="153" type="curve" smooth="yes"/>
			<point x="226" y="449" type="line" smooth="yes"/>
			<point x="231" y="504"/>
			<point x="204" y="532"/>
			<point x="149" y="532" type="curve" smooth="yes"/>
			<point x="104" y="532"/>
			<point x="49" y="504"/>
		</contour>
	</outline>
</glyph>
<glyph name="florin" format="2">
	<unicode hex="0192"/>
	<advance width="582"/>
	<outline>
		<contour>
			<point x="73" y="-133" type="curve" smooth="yes"/>
			<point x="36" y="-133"/>
			<point x="15" y="-109"/>
			<point x="33" y="-65" type="curve" smooth="yes"/>
			<point x="44" y="-38" type="line"/>
			<point x="31" y="-22"/>
			<point x="13" y="-9"/>
			<point x="-13" y="-9" type="curve" smooth="yes"/>
			<point x="-53" y="-9"/>
			<point x="-74" y="-38"/>
			<point x="-74" y="-78" type="curve" smooth="yes"/>
			<point x="-74" y="-153"/>
			<point x="-5" y="-193"/>
			<point x="65" y="-193" type="curve" smooth="yes"/>
			<point x="174" y="-193"/>
			<point x="253" y="-96"/>
			<point x="271" y="45" type="curve" smooth="yes"/>
			<point x="312" y="374" type="line"/>
			<point x="458" y="374" type="line"/>
			<point x="464" y="435" type="line"/>
			<point x="320" y="435" type="line"/>
			<point x="332" y="532" type="line" smooth="yes"/>
			<point x="343" y="620"/>
			<point x="377" y="655"/>
			<point x="430" y="655" type="curve" smooth="yes"/>
			<point x="467" y="655"/>
			<point x="488" y="631"/>
			<point x="470" y="587" type="curve" smooth="yes"/>
			<point x="459" y="560" type="line"/>
			<point x="472" y="544"/>
			<point x="490" y="531"/>
			<point x="516" y="531" type="curve" smooth="yes"/>
			<point x="556" y="531"/>
			<point x="577" y="560"/>
			<point x="577" y="600" type="curve" smooth="yes"/>
			<point x="577" y="675"/>
			<point x="508" y="715"/>
			<point x="438" y="715" type="curve" smooth="yes"/>
			<point x="325" y="715"/>
			<point x="248" y="619"/>
			<point x="232" y="478" type="curve" smooth="yes"/>
			<point x="227" y="435" type="line"/>
			<point x="149" y="435" type="line"/>
			<point x="142" y="374" type="line"/>
			<point x="219" y="374" type="line"/>
			<point x="172" y="-10" type="line" smooth="yes"/>
			<point x="161" y="-98"/>
			<point x="126" y="-133"/>
		</contour>
	</outline>
</glyph>
<glyph name="ohorn" format="2">
	<unicode hex="01A1"/>
	<advance width="642"/>
	<outline>
		<contour>
			<point x="281" y="-14" type="curve" smooth="yes"/>
			<point x="463" y="-14"/>
			<point x="535" y="126"/>
			<point x="535" y="277" type="curve" smooth="yes"/>
			<point x="535" y="315"/>
			<point x="530" y="350"/>
			<point x="519" y="382" type="curve"/>
			<point x="610" y="424"/>
			<point x="653" y="508"/>
			<point x="653" y="583" type="curve" smooth="yes"/>
			<point x="653" y="633"/>
			<point x="623" y="666"/>
			<point x="580" y="666" type="curve" smooth="yes"/>
			<point x="534" y="666"/>
			<point x="510" y="635"/>
			<point x="510" y="597" type="curve" smooth="yes"/>
			<point x="510" y="583"/>
			<point x="514" y="570"/>
			<point x="521" y="559" type="curve"/>
			<point x="551" y="555" type="line" smooth="yes"/>
			<point x="567" y="553"/>
			<point x="573" y="545"/>
			<point x="573" y="530" type="curve" smooth="yes"/>
			<point x="573" y="485"/>
			<point x="534" y="452"/>
			<point x="496" y="433" type="curve"/>
			<point x="458" y="495"/>
			<point x="394" y="532"/>
			<point x="310" y="532" type="curve" smooth="yes"/>
			<point x="128" y="532"/>
			<point x="59" y="391"/>
			<point x="59" y="242" type="curve" smooth="yes"/>
			<point x="59" y="89"/>
			<point x="140" y="-14"/>
		</contour>
		<contour>
			<point x="287" y="46" type="curve" smooth="yes"/>
			<point x="204" y="46"/>
			<point x="157" y="117"/>
			<point x="157" y="239" type="curve" smooth="yes"/>
			<point x="157" y="359"/>
			<point x="186" y="472"/>
			<point x="302" y="472" type="curve" smooth="yes"/>
			<point x="391" y="472"/>
			<point x="437" y="404"/>
			<point x="437" y="277" type="curve" smooth="yes"/>
			<point x="437" y="158"/>
			<point x="404" y="46"/>
		</contour>
	</outline>
</glyph>
<glyph name="Uhorn" format="2">
	<unicode hex="01AF"/>
	<advance width="864"/>
	<outline>
		<contour>
			<point x="312" y="-14" type="curve" smooth="yes"/>
			<point x="474" y="-14"/>
			<point x="544" y="134"/>
			<point x="600" y="365" type="curve"/>
			<point x="604" y="365" type="line"/>
			<point x="568" y="12" type="line"/>
			<point x="576" y="0" type="line"/>
			<point x="736" y="0" type="line"/>
			<point x="744" y="47" type="line"/>
			<point x="651" y="60" type="line"/>
			<point x="672" y="460" type="line"/>
			<point x="810" y="491"/>
			<point x="879" y="596"/>
			<point x="879" y="681" type="curve" smooth="yes"/>
			<point x="879" y="728"/>
			<point x="849" y="759"/>
			<point x="805" y="759" type="curve" smooth="yes"/>
			<point x="760" y="759"/>
			<point x="736" y="730"/>
			<point x="736" y="695" type="curve" smooth="yes"/>
			<point x="736" y="683"/>
			<point x="739" y="670"/>
			<point x="747" y="660" type="curve"/>
			<point x="781" y="655" type="line" smooth="yes"/>
			<point x="798" y="653"/>
			<point x="803" y="644"/>
			<point x="803" y="630" type="curve" smooth="yes"/>
			<point x="803" y="573"/>
			<point x="734" y="525"/>
			<point x="675" y="511" type="curve"/>
			<point x="684" y="700" type="line"/>
			<point x="521" y="700" type="line"/>
			<point x="514" y="654" type="line"/>
			<point x="605" y="637" type="line"/>
			<point x="595" y="570" type="line" smooth="yes"/>
			<point x="576" y="444"/>
			<point x="533" y="266"/>
			<point x="477" y="162" type="curve" smooth="yes"/>
			<point x="436" y="86"/>
			<point x="383" y="58"/>
			<point x="325" y="58" type="curve" smooth="yes"/>
			<point x="245" y="58"/>
			<point x="207" y="102"/>
			<point x="214" y="230" type="curve" smooth="yes"/>
			<point x="236" y="637" type="line"/>
			<point x="328" y="654" type="line"/>
			<point x="334" y="700" type="line"/>
			<point x="70" y="700" type="line"/>
			<point x="64" y="654" type="line"/>
			<point x="146" y="639" type="line"/>
			<point x="125" y="222" type="line" smooth="yes"/>
			<point x="118" y="90"/>
			<point x="161" y="-14"/>
		</contour>
	</outline>
	<anchor name="bottom" x="372" y="-30"/>
	<anchor name="top" x="419" y="730"/>
</glyph>
<glyph name="uhorn" format="2">
	<unicode hex="01B0"/>
	<advance width="709"/>
	<outline>
		<contour>
			<point x="223" y="-14" type="curve" smooth="yes"/>
			<point x="302" y="-14"/>
			<point x="354" y="29"/>
			<point x="387" y="140" type="curve" smooth="yes"/>
			<point x="463" y="393" type="line"/>
			<point x="474" y="392" type="line"/>
			<point x="440" y="88" type="line" smooth="yes"/>
			<point x="434" y="31"/>
			<point x="445" y="-14"/>
			<point x="513" y="-14" type="curve" smooth="yes"/>
			<point x="557" y="-14"/>
			<point x="614" y="7"/>
			<point x="637" y="19" type="curve"/>
			<point x="618" y="71" type="line"/>
			<point x="588" y="59"/>
			<point x="567" y="53"/>
			<point x="554" y="53" type="curve" smooth="yes"/>
			<point x="531" y="53"/>
			<point x="523" y="64"/>
			<point x="524" y="93" type="curve" smooth="yes"/>
			<point x="534" y="364" type="line"/>
			<point x="661" y="394"/>
			<point x="720" y="495"/>
			<point x="720" y="583" type="curve" smooth="yes"/>
			<point x="720" y="633"/>
			<point x="690" y="666"/>
			<point x="647" y="666" type="curve" smooth="yes"/>
			<point x="601" y="666"/>
			<point x="577" y="635"/>
			<point x="577" y="597" type="curve" smooth="yes"/>
			<point x="577" y="583"/>
			<point x="581" y="570"/>
			<point x="588" y="559" type="curve"/>
			<point x="618" y="555" type="line" smooth="yes"/>
			<point x="634" y="553"/>
			<point x="640" y="545"/>
			<point x="640" y="530" type="curve" smooth="yes"/>
			<point x="640" y="475"/>
			<point x="580" y="436"/>
			<point x="536" y="422" type="curve"/>
			<point x="540" y="519" type="line"/>
			<point x="451" y="519" type="line"/>
			<point x="334" y="180" type="line" smooth="yes"/>
			<point x="300" y="82"/>
			<point x="281" y="60"/>
			<point x="241" y="60" type="curve" smooth="yes"/>
			<point x="201" y="60"/>
			<point x="194" y="88"/>
			<point x="200" y="153" type="curve" smooth="yes"/>
			<point x="226" y="449" type="line" smooth="yes"/>
			<point x="231" y="504"/>
			<point x="203" y="532"/>
			<point x="149" y="532" type="curve" smooth="yes"/>
			<point x="104" y="532"/>
			<point x="49" y="504"/>
			<point x="24" y="483" type="curve"/>
			<point x="48" y="441" type="line"/>
			<point x="69" y="456"/>
			<point x="95" y="466"/>
			<point x="110" y="466" type="curve" smooth="yes"/>
			<point x="133" y="466"/>
			<point x="139" y="456"/>
			<point x="136" y="423" type="curve" smooth="yes"/>
			<point x="112" y="159" type="line" smooth="yes"/>
			<point x="101" y="43"/>
			<point x="127" y="-14"/>
		</contour>
	</outline>
</glyph>
<glyph name="Aringacute" format="2">
	<unicode hex="01FA"/>
	<advance width="759"/>
	<outline>
		<contour>
			<point x="24" y="0" type="line"/>
			<point x="276" y="0" type="line"/>
			<point x="282" y="46" type="line"/>
			<point x="184" y="58" type="line"/>
			<point x="248" y="231" type="line"/>
			<point x="509" y="231" type="line"/>
			<point x="560" y="58" type="line"/>
			<point x="472" y="46" type="line"/>
			<point x="466" y="0" type="line"/>
			<point x="750" y="0" type="line"/>
			<point x="757" y="46" type="line"/>
			<point x="663" y="57" type="line"/>
			<point x="476" y="668" type="line"/>
			<point x="512" y="686"/>
			<point x="532" y="723"/>
			<point x="532" y="769" type="curve" smooth="yes"/>
			<point x="532" y="835"/>
			<point x="498" y="873"/>
			<point x="424" y="873" type="curve" smooth="yes"/>
			<point x="345" y="873"/>
			<point x="304" y="823"/>
			<point x="304" y="761" type="curve" smooth="yes"/>
			<point x="304" y="716"/>
			<point x="318" y="683"/>
			<point x="350" y="667" type="curve"/>
			<point x="117" y="58" type="line"/>
			<point x="30" y="46" type="line"/>
		</contour>
		<contour>
			<point x="269" y="288" type="line"/>
			<point x="393" y="619" type="line"/>
			<point x="396" y="619" type="line"/>
			<point x="493" y="288" type="line"/>
		</contour>
		<contour>
			<point x="418" y="705" type="curve" smooth="yes"/>
			<point x="379" y="705"/>
			<point x="368" y="730"/>
			<point x="368" y="762" type="curve" smooth="yes"/>
			<point x="368" y="794"/>
			<point x="383" y="823"/>
			<point x="420" y="823" type="curve" smooth="yes"/>
			<point x="456" y="823"/>
			<point x="469" y="799"/>
			<point x="469" y="766" type="curve" smooth="yes"/>
			<point x="469" y="732"/>
			<point x="456" y="705"/>
		</contour>
		<contour>
			<point x="347" y="893" type="line"/>
			<point x="538" y="980" type="line"/>
			<point x="543" y="994"/>
			<point x="546" y="1005"/>
			<point x="546" y="1017" type="curve" smooth="yes"/>
			<point x="546" y="1042"/>
			<point x="529" y="1062"/>
			<point x="504" y="1062" type="curve" smooth="yes"/>
			<point x="490" y="1062"/>
			<point x="478" y="1054"/>
			<point x="461" y="1040" type="curve" smooth="yes"/>
			<point x="324" y="928" type="line"/>
		</contour>
	</outline>
</glyph>
<glyph name="schwa" format="2">
	<unicode hex="0259"/>
	<advance width="502"/>
	<outline>
		<contour>
			<point x="187" y="-14" type="curve" smooth="yes"/>
			<point x="338" y="-14"/>
			<point x="443" y="106"/>
			<point x="443" y="280" type="curve" smooth="yes"/>
			<point x="443" y="428"/>
			<point x="359" y="521"/>
			<point x="230" y="521" type="curve" smooth="yes"/>
			<point x="159" y="521"/>
			<point x="81" y="484"/>
			<point x="33" y="427" type="curve"/>
			<point x="69" y="386" type="line"/>
			<point x="122" y="433"/>
			<point x="168" y="451"/>
			<point x="211" y="451" type="curve" smooth="yes"/>
			<point x="288" y="451"/>
			<point x="340" y="395"/>
			<point x="349" y="308" type="curve"/>
			<point x="227" y="281" type="line" smooth="yes"/>
			<point x="97" y="252"/>
			<point x="31" y="202"/>
			<point x="31" y="114" type="curve" smooth="yes"/>
			<point x="31" y="32"/>
			<point x="86" y="-14"/>
		</contour>
		<contour>
			<point x="193" y="47" type="curve" smooth="yes"/>
			<point x="149" y="47"/>
			<point x="123" y="70"/>
			<point x="123" y="117" type="curve" smooth="yes"/>
			<point x="123" y="176"/>
			<point x="153" y="203"/>
			<point x="236" y="222" type="curve" smooth="yes"/>
			<point x="350" y="248" type="line"/>
			<point x="342" y="112"/>
			<point x="283" y="47"/>
		</contour>
	</outline>
</glyph>
<glyph name="ringhalfright" format="2">
	<unicode hex="02BE"/>
	<advance width="499"/>
	<outline>
		<contour>
			<point x="231" y="801" type="curve" smooth="yes"/>
			<point x="222" y="801" type="line"/>
			<point x="220" y="748" type="line"/>
			<point x="228" y="748" type="line" smooth="yes"/>
			<point x="264" y="748"/>
			<point x="278" y="726"/>
			<point x="278" y="696" type="curve" smooth="yes"/>
			<point x="278" y="665"/>
			<point x="264" y="636"/>
			<point x="226" y="636" type="curve" smooth="yes"/>
			<point x="216" y="636" type="line"/>
			<point x="214" y="584" type="line"/>
			<point x="221" y="584" type="line" smooth="yes"/>
			<point x="310" y="584"/>
			<point x="346" y="643"/>
			<point x="346" y="699" type="curve" smooth="yes"/>
			<point x="346" y="756"/>
			<point x="315" y="801"/>
		</contour>
	</outline>
	<anchor name="_top" x="261" y="550"/>
</glyph>
<glyph name="ringhalfleft" format="2">
	<unicode hex="02BF"/>
	<advance width="499"/>
	<outline>
		<contour>
			<point x="312" y="584" type="curve" smooth="yes"/>
			<point x="321" y="584" type="line"/>
			<point x="323" y="637" type="line"/>
			<point x="315" y="637" type="line" smooth="yes"/>
			<point x="279" y="637"/>
			<point x="265" y="659"/>
			<point x="265" y="689" type="curve" smooth="yes"/>
			<point x="265" y="720"/>
			<point x="279" y="749"/>
			<point x="317" y="749" type="curve" smooth="yes"/>
			<point x="327" y="749" type="line"/>
			<point x="329" y="801" type="line"/>
			<point x="322" y="801" type="line" smooth="yes"/>
			<point x="233" y="801"/>
			<point x="197" y="742"/>
			<point x="197" y="686" type="curve" smooth="yes"/>
			<point x="197" y="629"/>
			<point x="228" y="584"/>
		</contour>
	</outline>
	<anchor name="_top" x="284" y="550"/>
</glyph>
<glyph name="circumflex" format="2">
	<unicode hex="02C6"/>
	<advance width="502"/>
	<outline>
		<contour>
			<point x="432" y="619" type="line"/>
			<point x="302" y="783" type="line"/>
			<point x="292" y="786"/>
			<point x="285" y="787"/>
			<point x="273" y="787" type="curve" smooth="yes"/>
			<point x="257" y="787"/>
			<point x="243" y="778"/>
			<point x="225" y="756" type="curve" smooth="yes"/>
			<point x="112" y="619" type="line"/>
			<point x="138" y="592" type="line"/>
			<point x="270" y="692" type="line"/>
			<point x="403" y="590" type="line"/>
		</contour>
	</outline>
	<anchor name="_top" x="264" y="550"/>
	<guideline x="73" y="592" angle="0"/>
</glyph>
<glyph name="breve" format="2">
	<unicode hex="02D8"/>
	<advance width="495"/>
	<outline>
		<contour>
			<point x="266" y="593" type="curve" smooth="yes"/>
			<point x="369" y="593"/>
			<point x="424" y="688"/>
			<point x="431" y="769" type="curve"/>
			<point x="387" y="779" type="line"/>
			<point x="371" y="717"/>
			<point x="335" y="677"/>
			<point x="270" y="677" type="curve" smooth="yes"/>
			<point x="206" y="677"/>
			<point x="183" y="711"/>
			<point x="165" y="780" type="curve"/>
			<point x="118" y="768" type="line"/>
			<point x="126" y="676"/>
			<point x="165" y="593"/>
		</contour>
	</outline>
	<anchor name="_top" x="266" y="550"/>
</glyph>
<glyph name="hungarumlaut" format="2">
	<unicode hex="02DD"/>
	<advance width="518"/>
	<outline>
		<contour>
			<point x="447" y="749" type="curve" smooth="yes"/>
			<point x="344" y="620" type="line"/>
			<point x="373" y="590" type="line"/>
			<point x="529" y="708" type="line"/>
			<point x="537" y="754"/>
			<point x="519" y="778"/>
			<point x="491" y="778" type="curve" smooth="yes"/>
			<point x="472" y="778"/>
			<point x="463" y="769"/>
		</contour>
		<contour>
			<point x="247" y="755" type="curve" smooth="yes"/>
			<point x="153" y="620" type="line"/>
			<point x="182" y="590" type="line"/>
			<point x="331" y="714" type="line"/>
			<point x="339" y="760"/>
			<point x="323" y="784"/>
			<point x="291" y="784" type="curve" smooth="yes"/>
			<point x="274" y="784"/>
			<point x="263" y="778"/>
		</contour>
	</outline>
	<anchor name="_top" x="272" y="550"/>
</glyph>
<glyph name="hookabovecomb" format="2">
	<unicode hex="0309"/>
	<outline>
		<contour>
			<point x="11" y="767" type="curve" smooth="yes"/>
			<point x="44" y="767"/>
			<point x="61" y="755"/>
			<point x="61" y="734" type="curve" smooth="yes"/>
			<point x="61" y="684"/>
			<point x="-23" y="672"/>
			<point x="-24" y="623" type="curve" smooth="yes"/>
			<point x="-25" y="583" type="line"/>
			<point x="42" y="583" type="line"/>
			<point x="42" y="600" type="line" smooth="yes"/>
			<point x="42" y="633"/>
			<point x="137" y="660"/>
			<point x="137" y="731" type="curve" smooth="yes"/>
			<point x="137" y="784"/>
			<point x="83" y="810"/>
			<point x="18" y="810" type="curve" smooth="yes"/>
			<point x="-57" y="810"/>
			<point x="-112" y="776"/>
			<point x="-112" y="729" type="curve" smooth="yes"/>
			<point x="-112" y="714"/>
			<point x="-100" y="691"/>
			<point x="-69" y="691" type="curve" smooth="yes"/>
			<point x="-43" y="691"/>
			<point x="-24" y="709"/>
			<point x="-27" y="730" type="curve"/>
			<point x="-40" y="741" type="line" smooth="yes"/>
			<point x="-42" y="743"/>
			<point x="-43" y="745"/>
			<point x="-43" y="747" type="curve" smooth="yes"/>
			<point x="-43" y="758"/>
			<point x="-26" y="767"/>
		</contour>
	</outline>
	<anchor name="_top" x="7" y="550"/>
</glyph>
<glyph name="dblgravecomb" format="2">
	<unicode hex="030F"/>
	<outline>
		<contour>
			<point x="-30" y="692" type="curve" smooth="yes"/>
			<point x="91" y="590" type="line"/>
			<point x="122" y="620" type="line"/>
			<point x="13" y="779" type="line"/>
			<point x="-22" y="789"/>
			<point x="-54" y="774"/>
			<point x="-54" y="734" type="curve" smooth="yes"/>
			<point x="-54" y="717"/>
			<point x="-46" y="705"/>
		</contour>
		<contour>
			<point x="-197" y="680" type="curve" smooth="yes"/>
			<point x="-65" y="590" type="line"/>
			<point x="-37" y="620" type="line"/>
			<point x="-155" y="767" type="line"/>
			<point x="-192" y="772"/>
			<point x="-224" y="764"/>
			<point x="-224" y="723" type="curve" smooth="yes"/>
			<point x="-224" y="708"/>
			<point x="-217" y="694"/>
		</contour>
	</outline>
	<anchor name="_top" x="1" y="550"/>
</glyph>
<glyph name="commaturnedabovecomb" format="2">
	<unicode hex="0312"/>
	<outline>
		<contour>
			<point x="48" y="794" type="line"/>
			<point x="-21" y="750"/>
			<point x="-56" y="697"/>
			<point x="-56" y="644" type="curve" smooth="yes"/>
			<point x="-56" y="610"/>
			<point x="-33" y="578"/>
			<point x="11" y="578" type="curve" smooth="yes"/>
			<point x="62" y="578"/>
			<point x="84" y="627"/>
			<point x="70" y="660" type="curve"/>
			<point x="40" y="670" type="line" smooth="yes"/>
			<point x="29" y="674"/>
			<point x="24" y="678"/>
			<point x="24" y="689" type="curve" smooth="yes"/>
			<point x="24" y="715"/>
			<point x="52" y="743"/>
			<point x="75" y="760" type="curve"/>
		</contour>
	</outline>
	<anchor name="_top" x="10" y="550"/>
</glyph>
<glyph name="ypogegrammeni" format="2">
	<unicode hex="037A"/>
	<advance width="261"/>
	<outline>
		<contour>
			<point x="123" y="-229" type="curve" smooth="yes"/>
			<point x="154" y="-229"/>
			<point x="187" y="-218"/>
			<point x="212" y="-199" type="curve"/>
			<point x="204" y="-160" type="line"/>
			<point x="187" y="-163"/>
			<point x="175" y="-165"/>
			<point x="166" y="-165" type="curve" smooth="yes"/>
			<point x="134" y="-165"/>
			<point x="121" y="-150"/>
			<point x="124" y="-117" type="curve" smooth="yes"/>
			<point x="126" y="-92"/>
			<point x="129" y="-75"/>
			<point x="135" y="-46" type="curve"/>
			<point x="124" y="-41" type="line"/>
			<point x="46" y="-51" type="line"/>
			<point x="42" y="-136" type="line" smooth="yes"/>
			<point x="39" y="-202"/>
			<point x="63" y="-229"/>
		</contour>
	</outline>
	<anchor name="_bottom" x="91" y="-30"/>
</glyph>
<glyph name="tonos" format="2">
	<unicode hex="0384"/>
	<advance width="479"/>
	<outline>
		<contour>
			<point x="221" y="573" type="line"/>
			<point x="380" y="738" type="line"/>
			<point x="380" y="753" type="line"/>
			<point x="365" y="791"/>
			<point x="347" y="806"/>
			<point x="318" y="806" type="curve" smooth="yes"/>
			<point x="293" y="806"/>
			<point x="282" y="797"/>
			<point x="265" y="761" type="curve" smooth="yes"/>
			<point x="185" y="590" type="line"/>
		</contour>
	</outline>
	<anchor name="_top" x="224" y="550"/>
</glyph>
<glyph name="Gamma" format="2">
	<unicode hex="0393"/>
	<advance width="609"/>
	<outline>
		<contour>
			<point x="65" y="0" type="line"/>
			<point x="383" y="0" type="line"/>
			<point x="389" y="46" type="line"/>
			<point x="250" y="58" type="line"/>
			<point x="271" y="643" type="line"/>
			<point x="417" y="643" type="line" smooth="yes"/>
			<point x="477" y="643"/>
			<point x="497" y="628"/>
			<point x="521" y="562" type="curve" smooth="yes"/>
			<point x="535" y="523" type="line"/>
			<point x="592" y="533" type="line"/>
			<point x="576" y="700" type="line"/>
			<point x="99" y="700" type="line"/>
			<point x="92" y="654" type="line"/>
			<point x="185" y="637" type="line"/>
			<point x="160" y="59" type="line"/>
			<point x="71" y="46" type="line"/>
		</contour>
	</outline>
</glyph>
<glyph name="Delta" format="2">
	<unicode hex="0394"/>
	<advance width="622"/>
	<outline>
		<contour>
			<point x="40" y="0" type="line"/>
			<point x="603" y="0" type="line"/>
			<point x="610" y="46" type="line"/>
			<point x="398" y="706" type="line"/>
			<point x="295" y="695" type="line"/>
			<point x="36" y="46" type="line"/>
		</contour>
		<contour>
			<point x="117" y="84" type="line"/>
			<point x="327" y="619" type="line"/>
			<point x="330" y="619" type="line"/>
			<point x="497" y="84" type="line"/>
		</contour>
	</outline>
</glyph>
<glyph name="Theta" format="2">
	<unicode hex="0398"/>
	<advance width="783"/>
	<outline>
		<contour>
			<point x="389" y="-14" type="curve" smooth="yes"/>
			<point x="595" y="-14"/>
			<point x="732" y="143"/>
			<point x="732" y="379" type="curve" smooth="yes"/>
			<point x="732" y="585"/>
			<point x="611" y="715"/>
			<point x="420" y="715" type="curve" smooth="yes"/>
			<point x="206" y="715"/>
			<point x="71" y="566"/>
			<point x="71" y="331" type="curve" smooth="yes"/>
			<point x="71" y="121"/>
			<point x="196" y="-14"/>
		</contour>
		<contour>
			<point x="402" y="51" type="curve" smooth="yes"/>
			<point x="259" y="51"/>
			<point x="169" y="167"/>
			<point x="169" y="352" type="curve" smooth="yes"/>
			<point x="169" y="542"/>
			<point x="256" y="653"/>
			<point x="405" y="653" type="curve" smooth="yes"/>
			<point x="548" y="653"/>
			<point x="631" y="546"/>
			<point x="631" y="361" type="curve" smooth="yes"/>
			<point x="631" y="164"/>
			<point x="548" y="51"/>
		</contour>
		<contour>
			<point x="265" y="323" type="line"/>
			<point x="532" y="323" type="line"/>
			<point x="535" y="396" type="line"/>
			<point x="268" y="396" type="line"/>
		</contour>
	</outline>
</glyph>
<glyph name="Xi" format="2">
	<unicode hex="039E"/>
	<advance width="654"/>
	<outline>
		<contour>
			<point x="31" y="0" type="line"/>
			<point x="586" y="0" type="line"/>
			<point x="611" y="184" type="line"/>
			<point x="553" y="184" type="line"/>
			<point x="538" y="143" type="line" smooth="yes"/>
			<point x="514" y="78"/>
			<point x="493" y="88"/>
			<point x="428" y="88" type="curve" smooth="yes"/>
			<point x="195" y="88" type="line" smooth="yes"/>
			<point x="129" y="88"/>
			<point x="113" y="78"/>
			<point x="102" y="143" type="curve" smooth="yes"/>
			<point x="95" y="184" type="line"/>
			<point x="38" y="184" type="line"/>
		</contour>
		<contour>
			<point x="128" y="318" type="line"/>
			<point x="533" y="318" type="line"/>
			<point x="536" y="391" type="line"/>
			<point x="131" y="391" type="line"/>
		</contour>
		<contour>
			<point x="126" y="523" type="line"/>
			<point x="146" y="559" type="line" smooth="yes"/>
			<point x="170" y="601"/>
			<point x="196" y="613"/>
			<point x="264" y="613" type="curve" smooth="yes"/>
			<point x="441" y="613" type="line" smooth="yes"/>
			<point x="503" y="613"/>
			<point x="532" y="598"/>
			<point x="545" y="559" type="curve" smooth="yes"/>
			<point x="557" y="523" type="line"/>
			<point x="615" y="532" type="line"/>
			<point x="599" y="700" type="line"/>
			<point x="114" y="700" type="line"/>
			<point x="72" y="532" type="line"/>
		</contour>
	</outline>
</glyph>
<glyph name="Pi" format="2">
	<unicode hex="03A0"/>
	<advance width="822"/>
	<outline>
		<contour>
			<point x="65" y="0" type="line"/>
			<point x="347" y="0" type="line"/>
			<point x="353" y="46" type="line"/>
			<point x="250" y="59" type="line"/>
			<point x="274" y="637" type="line"/>
			<point x="608" y="637" type="line"/>
			<point x="584" y="59" type="line"/>
			<point x="495" y="46" type="line"/>
			<point x="489" y="0" type="line"/>
			<point x="770" y="0" type="line"/>
			<point x="776" y="46" type="line"/>
			<point x="673" y="59" type="line"/>
			<point x="695" y="637" type="line"/>
			<point x="787" y="654" type="line"/>
			<point x="793" y="700" type="line"/>
			<point x="96" y="700" type="line"/>
			<point x="89" y="654" type="line"/>
			<point x="183" y="637" type="line"/>
			<point x="160" y="59" type="line"/>
			<point x="71" y="46" type="line"/>
		</contour>
	</outline>
</glyph>
<glyph name="Sigma" format="2">
	<unicode hex="03A3"/>
	<advance width="691"/>
	<outline>
		<contour>
			<point x="72" y="0" type="line"/>
			<point x="622" y="0" type="line"/>
			<point x="649" y="194" type="line"/>
			<point x="591" y="194" type="line"/>
			<point x="580" y="162" type="line" smooth="yes"/>
			<point x="556" y="90"/>
			<point x="531" y="68"/>
			<point x="475" y="68" type="curve" smooth="yes"/>
			<point x="148" y="68" type="line"/>
			<point x="164" y="24" type="line"/>
			<point x="398" y="361" type="line"/>
			<point x="399" y="369" type="line"/>
			<point x="241" y="642" type="line"/>
			<point x="465" y="642" type="line" smooth="yes"/>
			<point x="535" y="642"/>
			<point x="553" y="627"/>
			<point x="578" y="551" type="curve" smooth="yes"/>
			<point x="587" y="523" type="line"/>
			<point x="644" y="533" type="line"/>
			<point x="628" y="700" type="line"/>
			<point x="124" y="700" type="line"/>
			<point x="114" y="650" type="line"/>
			<point x="292" y="346" type="line"/>
			<point x="72" y="38" type="line"/>
		</contour>
	</outline>
</glyph>
<glyph name="Psi" format="2">
	<unicode hex="03A8"/>
	<advance width="879"/>
	<outline>
		<contour>
			<point x="290" y="0" type="line"/>
			<point x="572" y="0" type="line"/>
			<point x="578" y="46" type="line"/>
			<point x="475" y="59" type="line"/>
			<point x="480" y="193" type="line"/>
			<point x="669" y="199"/>
			<point x="753" y="272"/>
			<point x="758" y="432" type="curve" smooth="yes"/>
			<point x="765" y="637" type="line"/>
			<point x="843" y="654" type="line"/>
			<point x="842" y="700" type="line"/>
			<point x="682" y="700" type="line"/>
			<point x="670" y="440" type="line" smooth="yes"/>
			<point x="665" y="311"/>
			<point x="617" y="267"/>
			<point x="482" y="265" type="curve"/>
			<point x="496" y="637" type="line"/>
			<point x="588" y="654" type="line"/>
			<point x="595" y="700" type="line"/>
			<point x="323" y="700" type="line"/>
			<point x="317" y="654" type="line"/>
			<point x="410" y="637" type="line"/>
			<point x="394" y="265" type="line"/>
			<point x="256" y="270"/>
			<point x="214" y="312"/>
			<point x="220" y="440" type="curve" smooth="yes"/>
			<point x="231" y="700" type="line"/>
			<point x="70" y="700" type="line"/>
			<point x="64" y="654" type="line"/>
			<point x="141" y="637" type="line"/>
			<point x="132" y="432" type="line" smooth="yes"/>
			<point x="124" y="267"/>
			<point x="200" y="197"/>
			<point x="391" y="193" type="curve"/>
			<point x="385" y="59" type="line"/>
			<point x="296" y="46" type="line"/>
		</contour>
	</outline>
</glyph>
<glyph name="beta" format="2">
	<unicode hex="03B2"/>
	<advance width="615"/>
	<outline>
		<contour>
			<point x="297" y="-14" type="curve" smooth="yes"/>
			<point x="428" y="-14"/>
			<point x="524" y="77"/>
			<point x="524" y="203" type="curve" smooth="yes"/>
			<point x="524" y="291"/>
			<point x="479" y="364"/>
			<point x="406" y="392" type="curve"/>
			<point x="505" y="447"/>
			<point x="564" y="536"/>
			<point x="564" y="630" type="curve" smooth="yes"/>
			<point x="564" y="723"/>
			<point x="495" y="782"/>
			<point x="385" y="782" type="curve" smooth="yes"/>
			<point x="200" y="782"/>
			<point x="68" y="587"/>
			<point x="68" y="312" type="curve" smooth="yes"/>
			<point x="68" y="102"/>
			<point x="149" y="-14"/>
		</contour>
		<contour>
			<point x="310" y="45" type="curve" smooth="yes"/>
			<point x="207" y="45"/>
			<point x="161" y="132"/>
			<point x="160" y="327" type="curve"/>
			<point x="217" y="331"/>
			<point x="300" y="348"/>
			<point x="354" y="367" type="curve"/>
			<point x="398" y="337"/>
			<point x="432" y="264"/>
			<point x="432" y="196" type="curve" smooth="yes"/>
			<point x="432" y="100"/>
			<point x="387" y="45"/>
		</contour>
		<contour>
			<point x="161" y="381" type="curve"/>
			<point x="173" y="574"/>
			<point x="274" y="734"/>
			<point x="383" y="734" type="curve" smooth="yes"/>
			<point x="439" y="734"/>
			<point x="471" y="699"/>
			<point x="471" y="637" type="curve" smooth="yes"/>
			<point x="471" y="504"/>
			<point x="347" y="402"/>
		</contour>
	</outline>
</glyph>
<glyph name="zeta" format="2">
	<unicode hex="03B6"/>
	<advance width="490"/>
	<outline>
		<contour>
			<point x="327" y="-234" type="line"/>
			<point x="380" y="-182"/>
			<point x="412" y="-123"/>
			<point x="412" y="-75" type="curve" smooth="yes"/>
			<point x="412" y="-11"/>
			<point x="376" y="23"/>
			<point x="260" y="70" type="curve" smooth="yes"/>
			<point x="180" y="102"/>
			<point x="155" y="136"/>
			<point x="155" y="213" type="curve" smooth="yes"/>
			<point x="155" y="331"/>
			<point x="242" y="510"/>
			<point x="348" y="608" type="curve"/>
			<point x="430" y="600"/>
			<point x="490" y="636"/>
			<point x="490" y="693" type="curve" smooth="yes"/>
			<point x="490" y="720"/>
			<point x="468" y="745"/>
			<point x="441" y="749" type="curve"/>
			<point x="415" y="740"/>
			<point x="364" y="700"/>
			<point x="308" y="645" type="curve"/>
			<point x="241" y="648"/>
			<point x="203" y="675"/>
			<point x="203" y="720" type="curve" smooth="yes"/>
			<point x="203" y="735"/>
			<point x="205" y="748"/>
			<point x="212" y="769" type="curve"/>
			<point x="199" y="778"/>
			<point x="183" y="782"/>
			<point x="163" y="782" type="curve" smooth="yes"/>
			<point x="118" y="782"/>
			<point x="91" y="756"/>
			<point x="91" y="711" type="curve" smooth="yes"/>
			<point x="91" y="644"/>
			<point x="176" y="599"/>
			<point x="278" y="611" type="curve"/>
			<point x="128" y="442"/>
			<point x="57" y="307"/>
			<point x="57" y="191" type="curve" smooth="yes"/>
			<point x="57" y="96"/>
			<point x="103" y="43"/>
			<point x="232" y="-12" type="curve" smooth="yes"/>
			<point x="315" y="-48"/>
			<point x="340" y="-70"/>
			<point x="340" y="-108" type="curve" smooth="yes"/>
			<point x="340" y="-133"/>
			<point x="322" y="-170"/>
			<point x="290" y="-210" type="curve"/>
		</contour>
	</outline>
</glyph>
<glyph name="eta" format="2">
	<unicode hex="03B7"/>
	<advance width="620"/>
	<outline>
		<contour>
			<point x="489" y="-230" type="line"/>
			<point x="500" y="-225" type="line"/>
			<point x="542" y="19"/>
			<point x="567" y="242"/>
			<point x="567" y="380" type="curve" smooth="yes"/>
			<point x="567" y="488"/>
			<point x="533" y="532"/>
			<point x="451" y="532" type="curve" smooth="yes"/>
			<point x="350" y="532"/>
			<point x="280" y="448"/>
			<point x="215" y="248" type="curve"/>
			<point x="213" y="249" type="line"/>
			<point x="234" y="342"/>
			<point x="245" y="415"/>
			<point x="245" y="462" type="curve" smooth="yes"/>
			<point x="245" y="505"/>
			<point x="216" y="532"/>
			<point x="168" y="532" type="curve" smooth="yes"/>
			<point x="131" y="532"/>
			<point x="70" y="509"/>
			<point x="39" y="483" type="curve"/>
			<point x="63" y="441" type="line"/>
			<point x="86" y="458"/>
			<point x="107" y="466"/>
			<point x="129" y="466" type="curve" smooth="yes"/>
			<point x="157" y="466"/>
			<point x="165" y="439"/>
			<point x="170" y="326" type="curve" smooth="yes"/>
			<point x="171" y="295"/>
			<point x="171" y="262"/>
			<point x="173" y="204" type="curve"/>
			<point x="137" y="143"/>
			<point x="117" y="70"/>
			<point x="117" y="1" type="curve"/>
			<point x="120" y="-6"/>
			<point x="138" y="-11"/>
			<point x="161" y="-11" type="curve" smooth="yes"/>
			<point x="239" y="-11"/>
			<point x="229" y="49"/>
			<point x="228" y="148" type="curve"/>
			<point x="236" y="260"/>
			<point x="363" y="458"/>
			<point x="426" y="458" type="curve" smooth="yes"/>
			<point x="463" y="458"/>
			<point x="481" y="429"/>
			<point x="481" y="369" type="curve" smooth="yes"/>
			<point x="481" y="239"/>
			<point x="437" y="-69"/>
			<point x="398" y="-210" type="curve"/>
		</contour>
	</outline>
	<anchor name="bottom" x="157" y="-30"/>
	<anchor name="top" x="309" y="551"/>
</glyph>
<glyph name="lambda" format="2">
	<unicode hex="03BB"/>
	<advance width="590"/>
	<outline>
		<contour>
			<point x="402" y="-14" type="curve" smooth="yes"/>
			<point x="436" y="-14"/>
			<point x="485" y="6"/>
			<point x="518" y="34" type="curve"/>
			<point x="493" y="73" type="line"/>
			<point x="471" y="57"/>
			<point x="449" y="49"/>
			<point x="431" y="49" type="curve" smooth="yes"/>
			<point x="404" y="49"/>
			<point x="391" y="73"/>
			<point x="382" y="142" type="curve" smooth="yes"/>
			<point x="322" y="614" type="line" smooth="yes"/>
			<point x="306" y="740"/>
			<point x="267" y="782"/>
			<point x="164" y="782" type="curve" smooth="yes"/>
			<point x="74" y="782"/>
			<point x="14" y="739"/>
			<point x="14" y="673" type="curve" smooth="yes"/>
			<point x="14" y="638"/>
			<point x="40" y="613"/>
			<point x="76" y="613" type="curve" smooth="yes"/>
			<point x="96" y="613"/>
			<point x="119" y="624"/>
			<point x="131" y="639" type="curve"/>
			<point x="125" y="652" type="line" smooth="yes"/>
			<point x="116" y="669"/>
			<point x="113" y="682"/>
			<point x="113" y="699" type="curve" smooth="yes"/>
			<point x="113" y="723"/>
			<point x="132" y="737"/>
			<point x="163" y="737" type="curve" smooth="yes"/>
			<point x="211" y="737"/>
			<point x="229" y="712"/>
			<point x="239" y="634" type="curve" smooth="yes"/>
			<point x="253" y="517" type="line"/>
			<point x="-14" y="5" type="line"/>
			<point x="-3" y="0" type="line"/>
			<point x="92" y="0" type="line"/>
			<point x="266" y="404" type="line"/>
			<point x="266" y="404" type="line"/>
			<point x="301" y="105" type="line" smooth="yes"/>
			<point x="311" y="18"/>
			<point x="338" y="-14"/>
		</contour>
	</outline>
</glyph>
<glyph name="xi" format="2">
	<unicode hex="03BE"/>
	<advance width="488"/>
	<outline>
		<contour>
			<point x="316" y="-234" type="line"/>
			<point x="365" y="-186"/>
			<point x="400" y="-122"/>
			<point x="400" y="-81" type="curve" smooth="yes"/>
			<point x="400" y="-12"/>
			<point x="367" y="22"/>
			<point x="254" y="68" type="curve" smooth="yes"/>
			<point x="175" y="100"/>
			<point x="143" y="133"/>
			<point x="143" y="184" type="curve" smooth="yes"/>
			<point x="143" y="247"/>
			<point x="179" y="302"/>
			<point x="238" y="328" type="curve"/>
			<point x="269" y="302"/>
			<point x="298" y="290"/>
			<point x="328" y="290" type="curve" smooth="yes"/>
			<point x="371" y="290"/>
			<point x="401" y="318"/>
			<point x="401" y="357" type="curve" smooth="yes"/>
			<point x="401" y="386"/>
			<point x="370" y="409"/>
			<point x="330" y="409" type="curve" smooth="yes"/>
			<point x="304" y="409"/>
			<point x="273" y="397"/>
			<point x="238" y="372" type="curve"/>
			<point x="195" y="383"/>
			<point x="165" y="418"/>
			<point x="165" y="457" type="curve" smooth="yes"/>
			<point x="165" y="541"/>
			<point x="249" y="603"/>
			<point x="434" y="656" type="curve" smooth="yes"/>
			<point x="448" y="660"/>
			<point x="458" y="677"/>
			<point x="458" y="695" type="curve" smooth="yes"/>
			<point x="458" y="722"/>
			<point x="434" y="739"/>
			<point x="406" y="732" type="curve" smooth="yes"/>
			<point x="352" y="718"/>
			<point x="277" y="685"/>
			<point x="228" y="655" type="curve"/>
			<point x="183" y="661"/>
			<point x="150" y="691"/>
			<point x="150" y="725" type="curve" smooth="yes"/>
			<point x="150" y="738"/>
			<point x="152" y="747"/>
			<point x="158" y="769" type="curve"/>
			<point x="149" y="776"/>
			<point x="131" y="781"/>
			<point x="114" y="781" type="curve" smooth="yes"/>
			<point x="70" y="781"/>
			<point x="45" y="758"/>
			<point x="45" y="719" type="curve" smooth="yes"/>
			<point x="45" y="667"/>
			<point x="100" y="625"/>
			<point x="175" y="620" type="curve"/>
			<point x="120" y="579"/>
			<point x="87" y="524"/>
			<point x="87" y="475" type="curve" smooth="yes"/>
			<point x="87" y="420"/>
			<point x="130" y="373"/>
			<point x="200" y="350" type="curve"/>
			<point x="200" y="348" type="line"/>
			<point x="111" y="320"/>
			<point x="45" y="240"/>
			<point x="45" y="161" type="curve" smooth="yes"/>
			<point x="45" y="88"/>
			<point x="93" y="41"/>
			<point x="221" y="-12" type="curve" smooth="yes"/>
			<point x="298" y="-44"/>
			<point x="328" y="-71"/>
			<point x="328" y="-108" type="curve" smooth="yes"/>
			<point x="328" y="-133"/>
			<point x="306" y="-178"/>
			<point x="278" y="-210" type="curve"/>
		</contour>
	</outline>
</glyph>
<glyph name="pi" format="2">
	<unicode hex="03C0"/>
	<advance width="722"/>
	<outline>
		<contour>
			<point x="497" y="-14" type="curve" smooth="yes"/>
			<point x="531" y="-14"/>
			<point x="571" y="2"/>
			<point x="617" y="34" type="curve"/>
			<point x="594" y="74" type="line"/>
			<point x="580" y="64"/>
			<point x="548" y="53"/>
			<point x="533" y="53" type="curve" smooth="yes"/>
			<point x="501" y="53"/>
			<point x="488" y="72"/>
			<point x="488" y="121" type="curve" smooth="yes"/>
			<point x="488" y="179"/>
			<point x="496" y="317"/>
			<point x="507" y="434" type="curve"/>
			<point x="544" y="433"/>
			<point x="588" y="432"/>
			<point x="606" y="432" type="curve" smooth="yes"/>
			<point x="645" y="432"/>
			<point x="672" y="460"/>
			<point x="672" y="498" type="curve" smooth="yes"/>
			<point x="672" y="514"/>
			<point x="664" y="527"/>
			<point x="643" y="545" type="curve"/>
			<point x="521" y="516" type="line"/>
			<point x="108" y="531" type="line" smooth="yes"/>
			<point x="59" y="533"/>
			<point x="26" y="501"/>
			<point x="26" y="453" type="curve" smooth="yes"/>
			<point x="26" y="408"/>
			<point x="68" y="379"/>
			<point x="118" y="389" type="curve"/>
			<point x="131" y="422" type="line" smooth="yes"/>
			<point x="138" y="441"/>
			<point x="152" y="450"/>
			<point x="173" y="450" type="curve" smooth="yes"/>
			<point x="183" y="450"/>
			<point x="205" y="449"/>
			<point x="228" y="448" type="curve"/>
			<point x="120" y="5" type="line"/>
			<point x="130" y="0" type="line"/>
			<point x="215" y="0" type="line"/>
			<point x="286" y="447" type="line"/>
			<point x="341" y="444"/>
			<point x="395" y="442"/>
			<point x="450" y="439" type="curve"/>
			<point x="420" y="253"/>
			<point x="403" y="123"/>
			<point x="403" y="80" type="curve" smooth="yes"/>
			<point x="403" y="19"/>
			<point x="436" y="-14"/>
		</contour>
	</outline>
</glyph>
<glyph name="rho" format="2">
	<unicode hex="03C1"/>
	<advance width="558"/>
	<outline>
		<contour>
			<point x="54" y="-230" type="line"/>
			<point x="148" y="-210" type="line"/>
			<point x="135" y="-144"/>
			<point x="124" y="-41"/>
			<point x="124" y="25" type="curve"/>
			<point x="125" y="25" type="line"/>
			<point x="170" y="-3"/>
			<point x="204" y="-14"/>
			<point x="244" y="-14" type="curve" smooth="yes"/>
			<point x="387" y="-14"/>
			<point x="495" y="119"/>
			<point x="495" y="296" type="curve" smooth="yes"/>
			<point x="495" y="444"/>
			<point x="423" y="532"/>
			<point x="301" y="532" type="curve" smooth="yes"/>
			<point x="118" y="532"/>
			<point x="38" y="366"/>
			<point x="38" y="-11" type="curve" smooth="yes"/>
			<point x="38" y="-124"/>
			<point x="39" y="-147"/>
			<point x="45" y="-225" type="curve"/>
		</contour>
		<contour>
			<point x="239" y="48" type="curve" smooth="yes"/>
			<point x="200" y="48"/>
			<point x="156" y="65"/>
			<point x="126" y="91" type="curve"/>
			<point x="138" y="366"/>
			<point x="185" y="473"/>
			<point x="293" y="473" type="curve" smooth="yes"/>
			<point x="366" y="473"/>
			<point x="404" y="412"/>
			<point x="404" y="293" type="curve" smooth="yes"/>
			<point x="404" y="151"/>
			<point x="335" y="48"/>
		</contour>
	</outline>
	<anchor name="top" x="291" y="551"/>
</glyph>
<glyph name="sigma" format="2">
	<unicode hex="03C3"/>
	<advance width="700"/>
	<outline>
		<contour>
			<point x="285" y="-14" type="curve" smooth="yes"/>
			<point x="429" y="-14"/>
			<point x="528" y="96"/>
			<point x="528" y="257" type="curve" smooth="yes"/>
			<point x="528" y="336"/>
			<point x="494" y="415"/>
			<point x="451" y="435" type="curve"/>
			<point x="451" y="437" type="line"/>
			<point x="492" y="431"/>
			<point x="552" y="426"/>
			<point x="576" y="426" type="curve" smooth="yes"/>
			<point x="619" y="426"/>
			<point x="645" y="449"/>
			<point x="645" y="486" type="curve" smooth="yes"/>
			<point x="645" y="501"/>
			<point x="636" y="516"/>
			<point x="616" y="532" type="curve"/>
			<point x="494" y="504" type="line"/>
			<point x="399" y="515"/>
			<point x="350" y="519"/>
			<point x="319" y="519" type="curve" smooth="yes"/>
			<point x="166" y="519"/>
			<point x="59" y="405"/>
			<point x="59" y="243" type="curve" smooth="yes"/>
			<point x="59" y="79"/>
			<point x="141" y="-14"/>
		</contour>
		<contour>
			<point x="292" y="44" type="curve" smooth="yes"/>
			<point x="202" y="44"/>
			<point x="155" y="110"/>
			<point x="155" y="237" type="curve" smooth="yes"/>
			<point x="155" y="370"/>
			<point x="216" y="446"/>
			<point x="322" y="446" type="curve" smooth="yes"/>
			<point x="334" y="446"/>
			<point x="358" y="443"/>
			<point x="376" y="442" type="curve"/>
			<point x="415" y="412"/>
			<point x="437" y="343"/>
			<point x="437" y="250" type="curve" smooth="yes"/>
			<point x="437" y="119"/>
			<point x="384" y="44"/>
		</contour>
	</outline>
</glyph>
<glyph name="upsilon" format="2">
	<unicode hex="03C5"/>
	<advance width="602"/>
	<outline>
		<contour>
			<point x="272" y="-14" type="curve" smooth="yes"/>
			<point x="422" y="-14"/>
			<point x="538" y="175"/>
			<point x="538" y="420" type="curve" smooth="yes"/>
			<point x="538" y="491"/>
			<point x="506" y="532"/>
			<point x="451" y="532" type="curve" smooth="yes"/>
			<point x="405" y="532"/>
			<point x="374" y="493"/>
			<point x="380" y="441" type="curve"/>
			<point x="423" y="426" type="line" smooth="yes"/>
			<point x="467" y="411"/>
			<point x="476" y="401"/>
			<point x="476" y="371" type="curve" smooth="yes"/>
			<point x="476" y="202"/>
			<point x="390" y="62"/>
			<point x="286" y="62" type="curve" smooth="yes"/>
			<point x="231" y="62"/>
			<point x="199" y="91"/>
			<point x="199" y="142" type="curve" smooth="yes"/>
			<point x="199" y="207"/>
			<point x="244" y="397"/>
			<point x="244" y="459" type="curve" smooth="yes"/>
			<point x="244" y="505"/>
			<point x="214" y="532"/>
			<point x="164" y="532" type="curve" smooth="yes"/>
			<point x="128" y="532"/>
			<point x="69" y="509"/>
			<point x="39" y="483" type="curve"/>
			<point x="63" y="441" type="line"/>
			<point x="84" y="457"/>
			<point x="109" y="466"/>
			<point x="129" y="466" type="curve" smooth="yes"/>
			<point x="147" y="466"/>
			<point x="153" y="458"/>
			<point x="153" y="434" type="curve" smooth="yes"/>
			<point x="153" y="387"/>
			<point x="109" y="208"/>
			<point x="109" y="137" type="curve" smooth="yes"/>
			<point x="109" y="40"/>
			<point x="167" y="-14"/>
		</contour>
	</outline>
	<anchor name="top" x="348" y="550"/>
</glyph>
<glyph name="chi" format="2">
	<unicode hex="03C7"/>
	<advance width="569"/>
	<outline>
		<contour>
			<point x="110" y="-230" type="curve" smooth="yes"/>
			<point x="153" y="-230"/>
			<point x="177" y="-199"/>
			<point x="177" y="-144" type="curve"/>
			<point x="144" y="-133" type="line" smooth="yes"/>
			<point x="115" y="-123"/>
			<point x="101" y="-109"/>
			<point x="101" y="-91" type="curve" smooth="yes"/>
			<point x="101" y="-44"/>
			<point x="143" y="11"/>
			<point x="255" y="114" type="curve"/>
			<point x="336" y="-158" type="line" smooth="yes"/>
			<point x="352" y="-210"/>
			<point x="377" y="-230"/>
			<point x="424" y="-230" type="curve" smooth="yes"/>
			<point x="470" y="-230"/>
			<point x="514" y="-213"/>
			<point x="553" y="-180" type="curve"/>
			<point x="528" y="-144" type="line"/>
			<point x="501" y="-161"/>
			<point x="483" y="-168"/>
			<point x="465" y="-168" type="curve" smooth="yes"/>
			<point x="447" y="-168"/>
			<point x="433" y="-154"/>
			<point x="424" y="-127" type="curve" smooth="yes"/>
			<point x="329" y="167" type="line"/>
			<point x="483" y="297"/>
			<point x="543" y="374"/>
			<point x="543" y="441" type="curve" smooth="yes"/>
			<point x="543" y="499"/>
			<point x="512" y="532"/>
			<point x="460" y="532" type="curve" smooth="yes"/>
			<point x="411" y="532"/>
			<point x="387" y="502"/>
			<point x="389" y="446" type="curve"/>
			<point x="421" y="435" type="line" smooth="yes"/>
			<point x="449" y="425"/>
			<point x="465" y="410"/>
			<point x="465" y="394" type="curve" smooth="yes"/>
			<point x="465" y="359"/>
			<point x="427" y="311"/>
			<point x="317" y="207" type="curve"/>
			<point x="244" y="453" type="line" smooth="yes"/>
			<point x="227" y="513"/>
			<point x="204" y="532"/>
			<point x="148" y="532" type="curve" smooth="yes"/>
			<point x="115" y="532"/>
			<point x="55" y="515"/>
			<point x="30" y="499" type="curve"/>
			<point x="49" y="450" type="line"/>
			<point x="63" y="455"/>
			<point x="87" y="466"/>
			<point x="113" y="466" type="curve" smooth="yes"/>
			<point x="134" y="466"/>
			<point x="147" y="454"/>
			<point x="156" y="425" type="curve"/>
			<point x="241" y="156" type="line"/>
			<point x="91" y="33"/>
			<point x="23" y="-58"/>
			<point x="23" y="-137" type="curve" smooth="yes"/>
			<point x="23" y="-196"/>
			<point x="55" y="-230"/>
		</contour>
	</outline>
</glyph>
<glyph name="omega" format="2">
	<unicode hex="03C9"/>
	<advance width="802"/>
	<outline>
		<contour>
			<point x="231" y="-14" type="curve" smooth="yes"/>
			<point x="299" y="-14"/>
			<point x="369" y="38"/>
			<point x="389" y="104" type="curve"/>
			<point x="392" y="104" type="line"/>
			<point x="412" y="25"/>
			<point x="459" y="-14"/>
			<point x="535" y="-14" type="curve" smooth="yes"/>
			<point x="660" y="-14"/>
			<point x="738" y="90"/>
			<point x="738" y="258" type="curve" smooth="yes"/>
			<point x="738" y="353"/>
			<point x="706" y="453"/>
			<point x="652" y="527" type="curve"/>
			<point x="641" y="532" type="line"/>
			<point x="552" y="510" type="line"/>
			<point x="605" y="439"/>
			<point x="643" y="328"/>
			<point x="643" y="243" type="curve" smooth="yes"/>
			<point x="643" y="131"/>
			<point x="598" y="59"/>
			<point x="528" y="59" type="curve" smooth="yes"/>
			<point x="480" y="59"/>
			<point x="443" y="96"/>
			<point x="424" y="164" type="curve"/>
			<point x="457" y="201"/>
			<point x="477" y="246"/>
			<point x="477" y="285" type="curve" smooth="yes"/>
			<point x="477" y="338"/>
			<point x="450" y="371"/>
			<point x="407" y="371" type="curve" smooth="yes"/>
			<point x="360" y="371"/>
			<point x="329" y="331"/>
			<point x="329" y="270" type="curve" smooth="yes"/>
			<point x="329" y="235"/>
			<point x="340" y="203"/>
			<point x="364" y="164" type="curve"/>
			<point x="334" y="94"/>
			<point x="293" y="59"/>
			<point x="243" y="59" type="curve" smooth="yes"/>
			<point x="185" y="59"/>
			<point x="154" y="105"/>
			<point x="154" y="190" type="curve" smooth="yes"/>
			<point x="154" y="304"/>
			<point x="203" y="417"/>
			<point x="290" y="504" type="curve"/>
			<point x="256" y="532" type="line"/>
			<point x="140" y="466"/>
			<point x="62" y="330"/>
			<point x="62" y="195" type="curve" smooth="yes"/>
			<point x="62" y="60"/>
			<point x="122" y="-14"/>
		</contour>
	</outline>
	<anchor name="bottom" x="389" y="-30"/>
	<anchor name="top" x="429" y="550"/>
</glyph>
<glyph name="kaiSymbol" format="2">
	<unicode hex="03D7"/>
	<advance width="683"/>
	<outline>
		<contour>
			<point x="345" y="-230" type="curve" smooth="yes"/>
			<point x="482" y="-230"/>
			<point x="594" y="-140"/>
			<point x="594" y="-30" type="curve" smooth="yes"/>
			<point x="594" y="26"/>
			<point x="573" y="71"/>
			<point x="503" y="163" type="curve" smooth="yes"/>
			<point x="445" y="240"/>
			<point x="432" y="265"/>
			<point x="432" y="299" type="curve" smooth="yes"/>
			<point x="432" y="325"/>
			<point x="437" y="344"/>
			<point x="459" y="392" type="curve" smooth="yes"/>
			<point x="515" y="422"/>
			<point x="566" y="437"/>
			<point x="627" y="440" type="curve"/>
			<point x="632" y="451" type="line"/>
			<point x="605" y="526" type="line"/>
			<point x="455" y="532"/>
			<point x="345" y="438"/>
			<point x="216" y="192" type="curve"/>
			<point x="213" y="193" type="line"/>
			<point x="252" y="335"/>
			<point x="273" y="431"/>
			<point x="273" y="463" type="curve" smooth="yes"/>
			<point x="273" y="506"/>
			<point x="244" y="532"/>
			<point x="195" y="532" type="curve" smooth="yes"/>
			<point x="159" y="532"/>
			<point x="111" y="519"/>
			<point x="69" y="499" type="curve"/>
			<point x="88" y="450" type="line"/>
			<point x="113" y="460"/>
			<point x="136" y="466"/>
			<point x="152" y="466" type="curve" smooth="yes"/>
			<point x="170" y="466"/>
			<point x="182" y="455"/>
			<point x="182" y="438" type="curve" smooth="yes"/>
			<point x="182" y="419"/>
			<point x="147" y="236"/>
			<point x="99" y="0" type="curve"/>
			<point x="175" y="0" type="line"/>
			<point x="251" y="174"/>
			<point x="287" y="230"/>
			<point x="392" y="339" type="curve"/>
			<point x="375" y="300"/>
			<point x="365" y="264"/>
			<point x="365" y="238" type="curve" smooth="yes"/>
			<point x="365" y="197"/>
			<point x="383" y="160"/>
			<point x="435" y="88" type="curve" smooth="yes"/>
			<point x="480" y="25"/>
			<point x="494" y="-4"/>
			<point x="494" y="-35" type="curve" smooth="yes"/>
			<point x="494" y="-129"/>
			<point x="418" y="-175"/>
			<point x="262" y="-175" type="curve"/>
			<point x="254" y="-219" type="line"/>
			<point x="269" y="-225"/>
			<point x="313" y="-230"/>
		</contour>
	</outline>
</glyph>
<glyph name="KoppaArchaic" format="2">
	<unicode hex="03D8"/>
	<advance width="783"/>
	<outline>
		<contour>
			<point x="340" y="-208" type="line"/>
			<point x="421" y="-199" type="line"/>
			<point x="422" y="-189"/>
			<point x="422" y="-167"/>
			<point x="422" y="-13" type="curve"/>
			<point x="610" y="3"/>
			<point x="732" y="157"/>
			<point x="732" y="379" type="curve" smooth="yes"/>
			<point x="732" y="585"/>
			<point x="611" y="715"/>
			<point x="420" y="715" type="curve" smooth="yes"/>
			<point x="206" y="715"/>
			<point x="71" y="566"/>
			<point x="71" y="331" type="curve" smooth="yes"/>
			<point x="71" y="138"/>
			<point x="177" y="6"/>
			<point x="347" y="-12" type="curve"/>
			<point x="344" y="-60"/>
			<point x="336" y="-137"/>
			<point x="328" y="-201" type="curve"/>
		</contour>
		<contour>
			<point x="426" y="52" type="curve"/>
			<point x="433" y="108"/>
			<point x="439" y="163"/>
			<point x="446" y="219" type="curve"/>
			<point x="434" y="226" type="line"/>
			<point x="353" y="217" type="line"/>
			<point x="352" y="164"/>
			<point x="351" y="110"/>
			<point x="350" y="57" type="curve"/>
			<point x="236" y="82"/>
			<point x="169" y="192"/>
			<point x="169" y="352" type="curve" smooth="yes"/>
			<point x="169" y="542"/>
			<point x="256" y="653"/>
			<point x="405" y="653" type="curve" smooth="yes"/>
			<point x="548" y="653"/>
			<point x="631" y="546"/>
			<point x="631" y="361" type="curve" smooth="yes"/>
			<point x="631" y="175"/>
			<point x="557" y="64"/>
		</contour>
	</outline>
</glyph>
<glyph name="koppaArchaic" format="2">
	<unicode hex="03D9"/>
	<advance width="594"/>
	<outline>
		<contour>
			<point x="238" y="-161" type="line"/>
			<point x="304" y="-155" type="line"/>
			<point x="305" y="-106"/>
			<point x="305" y="-63"/>
			<point x="308" y="-13" type="curve"/>
			<point x="470" y="0"/>
			<point x="535" y="134"/>
			<point x="535" y="277" type="curve" smooth="yes"/>
			<point x="535" y="428"/>
			<point x="450" y="532"/>
			<point x="310" y="532" type="curve" smooth="yes"/>
			<point x="128" y="532"/>
			<point x="59" y="391"/>
			<point x="59" y="242" type="curve" smooth="yes"/>
			<point x="59" y="104"/>
			<point x="125" y="6"/>
			<point x="242" y="-11" type="curve"/>
			<point x="238" y="-63"/>
			<point x="234" y="-111"/>
			<point x="228" y="-157" type="curve"/>
		</contour>
		<contour>
			<point x="314" y="48" type="curve"/>
			<point x="317" y="76"/>
			<point x="321" y="106"/>
			<point x="326" y="141" type="curve"/>
			<point x="315" y="146" type="line"/>
			<point x="251" y="137" type="line"/>
			<point x="250" y="108"/>
			<point x="248" y="80"/>
			<point x="246" y="53" type="curve"/>
			<point x="189" y="73"/>
			<point x="157" y="139"/>
			<point x="157" y="239" type="curve" smooth="yes"/>
			<point x="157" y="359"/>
			<point x="186" y="472"/>
			<point x="302" y="472" type="curve" smooth="yes"/>
			<point x="391" y="472"/>
			<point x="437" y="404"/>
			<point x="437" y="277" type="curve" smooth="yes"/>
			<point x="437" y="168"/>
			<point x="409" y="64"/>
		</contour>
	</outline>
</glyph>
<glyph name="Stigma" format="2">
	<unicode hex="03DA"/>
	<advance width="664"/>
	<outline>
		<contour>
			<point x="439" y="-210" type="line"/>
			<point x="502" y="-157"/>
			<point x="538" y="-97"/>
			<point x="538" y="-45" type="curve" smooth="yes"/>
			<point x="538" y="29"/>
			<point x="502" y="63"/>
			<point x="395" y="92" type="curve" smooth="yes"/>
			<point x="233" y="135"/>
			<point x="169" y="206"/>
			<point x="168" y="344" type="curve" smooth="yes"/>
			<point x="168" y="543"/>
			<point x="249" y="652"/>
			<point x="397" y="652" type="curve" smooth="yes"/>
			<point x="474" y="652"/>
			<point x="528" y="627"/>
			<point x="528" y="591" type="curve" smooth="yes"/>
			<point x="528" y="585"/>
			<point x="526" y="578"/>
			<point x="522" y="571" type="curve" smooth="yes"/>
			<point x="502" y="533" type="line"/>
			<point x="524" y="511"/>
			<point x="548" y="500"/>
			<point x="576" y="500" type="curve" smooth="yes"/>
			<point x="613" y="500"/>
			<point x="639" y="527"/>
			<point x="639" y="566" type="curve" smooth="yes"/>
			<point x="639" y="648"/>
			<point x="532" y="715"/>
			<point x="401" y="715" type="curve" smooth="yes"/>
			<point x="204" y="715"/>
			<point x="71" y="566"/>
			<point x="71" y="346" type="curve" smooth="yes"/>
			<point x="71" y="162"/>
			<point x="151" y="64"/>
			<point x="345" y="10" type="curve" smooth="yes"/>
			<point x="419" y="-11"/>
			<point x="443" y="-30"/>
			<point x="443" y="-68" type="curve" smooth="yes"/>
			<point x="443" y="-99"/>
			<point x="432" y="-124"/>
			<point x="395" y="-176" type="curve"/>
		</contour>
	</outline>
</glyph>
<glyph name="koppa" format="2">
	<unicode hex="03DF"/>
	<advance width="519"/>
	<outline>
		<contour>
			<point x="253" y="-59" type="curve" smooth="yes"/>
			<point x="289" y="-59"/>
			<point x="327" y="-45"/>
			<point x="350" y="-24" type="curve"/>
			<point x="348" y="12" type="line"/>
			<point x="331" y="6"/>
			<point x="320" y="4"/>
			<point x="304" y="4" type="curve" smooth="yes"/>
			<point x="281" y="4"/>
			<point x="269" y="13"/>
			<point x="269" y="32" type="curve" smooth="yes"/>
			<point x="269" y="54"/>
			<point x="288" y="82"/>
			<point x="336" y="132" type="curve" smooth="yes"/>
			<point x="461" y="263" type="line"/>
			<point x="465" y="294" type="line"/>
			<point x="198" y="294" type="line"/>
			<point x="280" y="378" type="line" smooth="yes"/>
			<point x="336" y="434"/>
			<point x="356" y="467"/>
			<point x="356" y="503" type="curve" smooth="yes"/>
			<point x="356" y="543"/>
			<point x="324" y="568"/>
			<point x="275" y="568" type="curve" smooth="yes"/>
			<point x="240" y="568"/>
			<point x="197" y="553"/>
			<point x="176" y="533" type="curve"/>
			<point x="184" y="496" type="line"/>
			<point x="201" y="503"/>
			<point x="210" y="505"/>
			<point x="226" y="505" type="curve" smooth="yes"/>
			<point x="247" y="505"/>
			<point x="261" y="494"/>
			<point x="261" y="476" type="curve" smooth="yes"/>
			<point x="261" y="452"/>
			<point x="250" y="436"/>
			<point x="194" y="377" type="curve" smooth="yes"/>
			<point x="69" y="246" type="line"/>
			<point x="65" y="215" type="line"/>
			<point x="332" y="215" type="line"/>
			<point x="259" y="140" type="line" smooth="yes"/>
			<point x="191" y="70"/>
			<point x="173" y="41"/>
			<point x="173" y="4" type="curve" smooth="yes"/>
			<point x="173" y="-34"/>
			<point x="204" y="-59"/>
		</contour>
	</outline>
</glyph>
<glyph name="Sampi" format="2">
	<unicode hex="03E0"/>
	<advance width="792"/>
	<outline>
		<contour>
			<point x="234" y="-182" type="line"/>
			<point x="268" y="-160" type="line"/>
			<point x="253" y="-127" type="line" smooth="yes"/>
			<point x="246" y="-117"/>
			<point x="251" y="-105"/>
			<point x="268" y="-93" type="curve" smooth="yes"/>
			<point x="617" y="162" type="line"/>
			<point x="624" y="122"/>
			<point x="628" y="82"/>
			<point x="628" y="40" type="curve" smooth="yes"/>
			<point x="628" y="8"/>
			<point x="621" y="-85"/>
			<point x="613" y="-170" type="curve"/>
			<point x="700" y="-172" type="line"/>
			<point x="710" y="-97"/>
			<point x="716" y="-19"/>
			<point x="716" y="38" type="curve" smooth="yes"/>
			<point x="716" y="368"/>
			<point x="543" y="528"/>
			<point x="182" y="532" type="curve"/>
			<point x="175" y="460" type="line"/>
			<point x="307" y="458"/>
			<point x="399" y="437"/>
			<point x="469" y="393" type="curve"/>
			<point x="123" y="136" type="line" smooth="yes"/>
			<point x="101" y="120"/>
			<point x="98" y="120"/>
			<point x="81" y="137" type="curve" smooth="yes"/>
			<point x="64" y="155" type="line"/>
			<point x="31" y="135" type="line"/>
			<point x="126" y="-14" type="line"/>
			<point x="161" y="8" type="line"/>
			<point x="145" y="41" type="line" smooth="yes"/>
			<point x="140" y="55"/>
			<point x="144" y="64"/>
			<point x="161" y="75" type="curve" smooth="yes"/>
			<point x="529" y="345" type="line"/>
			<point x="559" y="313"/>
			<point x="581" y="277"/>
			<point x="596" y="238" type="curve"/>
			<point x="231" y="-32" type="line" smooth="yes"/>
			<point x="209" y="-48"/>
			<point x="203" y="-48"/>
			<point x="188" y="-31" type="curve" smooth="yes"/>
			<point x="171" y="-13" type="line"/>
			<point x="138" y="-33" type="line"/>
		</contour>
	</outline>
</glyph>
<glyph name="Dje-cy" format="2">
	<unicode hex="0402"/>
	<advance width="831"/>
	<outline>
		<contour>
			<point x="168" y="46" type="line"/>
			<point x="162" y="0" type="line"/>
			<point x="478" y="0" type="line"/>
			<point x="484" y="46" type="line"/>
			<point x="368" y="58" type="line"/>
			<point x="378" y="315" type="line"/>
			<point x="426" y="345"/>
			<point x="484" y="365"/>
			<point x="553" y="365" type="curve" smooth="yes"/>
			<point x="645" y="365"/>
			<point x="704" y="306"/>
			<point x="704" y="209" type="curve" smooth="yes"/>
			<point x="704" y="100"/>
			<point x="652" y="11"/>
			<point x="544" y="-68" type="curve"/>
			<point x="575" y="-106" type="line"/>
			<point x="710" y="-35"/>
			<point x="799" y="91"/>
			<point x="799" y="222" type="curve" smooth="yes"/>
			<point x="799" y="348"/>
			<point x="712" y="429"/>
			<point x="582" y="429" type="curve" smooth="yes"/>
			<point x="514" y="429"/>
			<point x="444" y="408"/>
			<point x="380" y="374" type="curve"/>
			<point x="391" y="643" type="line"/>
			<point x="510" y="643" type="line" smooth="yes"/>
			<point x="570" y="643"/>
			<point x="589" y="628"/>
			<point x="613" y="562" type="curve" smooth="yes"/>
			<point x="627" y="523" type="line"/>
			<point x="684" y="533" type="line"/>
			<point x="669" y="700" type="line"/>
			<point x="74" y="700" type="line"/>
			<point x="49" y="534" type="line"/>
			<point x="108" y="523" type="line"/>
			<point x="122" y="562" type="line" smooth="yes"/>
			<point x="146" y="630"/>
			<point x="165" y="643"/>
			<point x="228" y="643" type="curve" smooth="yes"/>
			<point x="304" y="643" type="line"/>
			<point x="279" y="59" type="line"/>
		</contour>
	</outline>
</glyph>
<glyph name="E-cy" format="2">
	<unicode hex="0404"/>
	<advance width="684"/>
	<outline>
		<contour>
			<point x="533" y="571" type="curve" smooth="yes"/>
			<point x="513" y="533" type="line"/>
			<point x="531" y="513"/>
			<point x="558" y="500"/>
			<point x="587" y="500" type="curve" smooth="yes"/>
			<point x="624" y="500"/>
			<point x="650" y="527"/>
			<point x="650" y="566" type="curve" smooth="yes"/>
			<point x="650" y="648"/>
			<point x="548" y="715"/>
			<point x="417" y="715" type="curve" smooth="yes"/>
			<point x="211" y="715"/>
			<point x="72" y="563"/>
			<point x="72" y="328" type="curve" smooth="yes"/>
			<point x="72" y="119"/>
			<point x="192" y="-14"/>
			<point x="375" y="-14" type="curve" smooth="yes"/>
			<point x="487" y="-14"/>
			<point x="578" y="34"/>
			<point x="641" y="128" type="curve"/>
			<point x="600" y="168" type="line"/>
			<point x="539" y="90"/>
			<point x="472" y="55"/>
			<point x="385" y="55" type="curve" smooth="yes"/>
			<point x="256" y="55"/>
			<point x="173" y="162"/>
			<point x="170" y="331" type="curve"/>
			<point x="529" y="331" type="line"/>
			<point x="535" y="401" type="line"/>
			<point x="172" y="389" type="line"/>
			<point x="187" y="558"/>
			<point x="273" y="652"/>
			<point x="412" y="652" type="curve" smooth="yes"/>
			<point x="506" y="652"/>
			<point x="556" y="615"/>
		</contour>
	</outline>
	<anchor name="top" x="399" y="730"/>
</glyph>
<glyph name="Lje-cy" format="2">
	<unicode hex="0409"/>
	<advance width="1027"/>
	<outline>
		<contour>
			<point x="552" y="640" type="line"/>
			<point x="528" y="59" type="line"/>
			<point x="439" y="46" type="line"/>
			<point x="433" y="0" type="line"/>
			<point x="692" y="0" type="line" smooth="yes"/>
			<point x="895" y="0"/>
			<point x="995" y="91"/>
			<point x="995" y="229" type="curve" smooth="yes"/>
			<point x="995" y="332"/>
			<point x="909" y="399"/>
			<point x="790" y="399" type="curve" smooth="yes"/>
			<point x="756" y="399"/>
			<point x="728" y="398"/>
			<point x="670" y="390" type="curve"/>
			<point x="668" y="340" type="line"/>
			<point x="694" y="345"/>
			<point x="717" y="347"/>
			<point x="744" y="347" type="curve" smooth="yes"/>
			<point x="849" y="347"/>
			<point x="895" y="298"/>
			<point x="895" y="223" type="curve" smooth="yes"/>
			<point x="895" y="122"/>
			<point x="843" y="54"/>
			<point x="703" y="54" type="curve" smooth="yes"/>
			<point x="618" y="54" type="line"/>
			<point x="639" y="637" type="line"/>
			<point x="731" y="654" type="line"/>
			<point x="738" y="700" type="line"/>
			<point x="195" y="700" type="line"/>
			<point x="189" y="654" type="line"/>
			<point x="282" y="637" type="line"/>
			<point x="268" y="361"/>
			<point x="209" y="79"/>
			<point x="139" y="77" type="curve"/>
			<point x="83" y="132" type="line"/>
			<point x="39" y="123"/>
			<point x="15" y="101"/>
			<point x="15" y="62" type="curve" smooth="yes"/>
			<point x="15" y="27"/>
			<point x="43" y="-12"/>
			<point x="104" y="-12" type="curve" smooth="yes"/>
			<point x="238" y="-12"/>
			<point x="317" y="176"/>
			<point x="354" y="640" type="curve"/>
		</contour>
	</outline>
</glyph>
<glyph name="Nje-cy" format="2">
	<unicode hex="040A"/>
	<advance width="1087"/>
	<outline>
		<contour>
			<point x="600" y="328" type="line"/>
			<point x="588" y="59" type="line"/>
			<point x="499" y="46" type="line"/>
			<point x="493" y="0" type="line"/>
			<point x="742" y="0" type="line" smooth="yes"/>
			<point x="945" y="0"/>
			<point x="1055" y="91"/>
			<point x="1055" y="228" type="curve" smooth="yes"/>
			<point x="1055" y="329"/>
			<point x="978" y="399"/>
			<point x="842" y="399" type="curve" smooth="yes"/>
			<point x="806" y="399"/>
			<point x="787" y="398"/>
			<point x="729" y="390" type="curve"/>
			<point x="727" y="340" type="line"/>
			<point x="753" y="345"/>
			<point x="767" y="347"/>
			<point x="794" y="347" type="curve" smooth="yes"/>
			<point x="912" y="347"/>
			<point x="955" y="298"/>
			<point x="955" y="222" type="curve" smooth="yes"/>
			<point x="955" y="122"/>
			<point x="895" y="54"/>
			<point x="753" y="54" type="curve" smooth="yes"/>
			<point x="678" y="54" type="line"/>
			<point x="699" y="637" type="line"/>
			<point x="791" y="654" type="line"/>
			<point x="798" y="700" type="line"/>
			<point x="526" y="700" type="line"/>
			<point x="520" y="654" type="line"/>
			<point x="613" y="637" type="line"/>
			<point x="602" y="391" type="line"/>
			<point x="267" y="391" type="line"/>
			<point x="277" y="637" type="line"/>
			<point x="369" y="654" type="line"/>
			<point x="376" y="700" type="line"/>
			<point x="102" y="700" type="line"/>
			<point x="95" y="654" type="line"/>
			<point x="189" y="637" type="line"/>
			<point x="166" y="59" type="line"/>
			<point x="77" y="46" type="line"/>
			<point x="71" y="0" type="line"/>
			<point x="353" y="0" type="line"/>
			<point x="359" y="46" type="line"/>
			<point x="256" y="59" type="line"/>
			<point x="266" y="328" type="line"/>
		</contour>
	</outline>
</glyph>
<glyph name="Tshe-cy" format="2">
	<unicode hex="040B"/>
	<advance width="921"/>
	<outline>
		<contour>
			<point x="380" y="375" type="curve"/>
			<point x="391" y="643" type="line"/>
			<point x="510" y="643" type="line" smooth="yes"/>
			<point x="570" y="643"/>
			<point x="589" y="628"/>
			<point x="613" y="562" type="curve" smooth="yes"/>
			<point x="627" y="523" type="line"/>
			<point x="684" y="533" type="line"/>
			<point x="669" y="700" type="line"/>
			<point x="74" y="700" type="line"/>
			<point x="49" y="534" type="line"/>
			<point x="108" y="523" type="line"/>
			<point x="122" y="562" type="line" smooth="yes"/>
			<point x="146" y="630"/>
			<point x="165" y="643"/>
			<point x="228" y="643" type="curve" smooth="yes"/>
			<point x="304" y="643" type="line"/>
			<point x="279" y="59" type="line"/>
			<point x="188" y="46" type="line"/>
			<point x="182" y="0" type="line"/>
			<point x="458" y="0" type="line"/>
			<point x="464" y="46" type="line"/>
			<point x="368" y="58" type="line"/>
			<point x="378" y="313" type="line"/>
			<point x="453" y="360"/>
			<point x="531" y="386"/>
			<point x="602" y="386" type="curve" smooth="yes"/>
			<point x="687" y="386"/>
			<point x="723" y="350"/>
			<point x="723" y="255" type="curve" smooth="yes"/>
			<point x="723" y="191"/>
			<point x="720" y="134"/>
			<point x="712" y="63" type="curve"/>
			<point x="621" y="46" type="line"/>
			<point x="614" y="0" type="line"/>
			<point x="889" y="0" type="line"/>
			<point x="895" y="46" type="line"/>
			<point x="798" y="63" type="line"/>
			<point x="803" y="127"/>
			<point x="808" y="191"/>
			<point x="808" y="272" type="curve" smooth="yes"/>
			<point x="808" y="385"/>
			<point x="745" y="450"/>
			<point x="624" y="450" type="curve" smooth="yes"/>
			<point x="547" y="450"/>
			<point x="468" y="425"/>
		</contour>
	</outline>
</glyph>
<glyph name="De-cy" format="2">
	<unicode hex="0414"/>
	<advance width="776"/>
	<outline>
		<contour>
			<point x="25" y="-156" type="line"/>
			<point x="82" y="-156" type="line"/>
			<point x="98" y="-39"/>
			<point x="121" y="0"/>
			<point x="177" y="0" type="curve" smooth="yes"/>
			<point x="574" y="0" type="line" smooth="yes"/>
			<point x="637" y="0"/>
			<point x="646" y="-20"/>
			<point x="646" y="-157" type="curve"/>
			<point x="703" y="-160" type="line"/>
			<point x="731" y="61" type="line"/>
			<point x="611" y="61" type="line"/>
			<point x="632" y="637" type="line"/>
			<point x="724" y="654" type="line"/>
			<point x="730" y="700" type="line"/>
			<point x="170" y="700" type="line"/>
			<point x="164" y="654" type="line"/>
			<point x="257" y="637" type="line"/>
			<point x="246" y="384"/>
			<point x="220" y="206"/>
			<point x="131" y="61" type="curve"/>
			<point x="30" y="61" type="line"/>
		</contour>
		<contour>
			<point x="208" y="61" type="line"/>
			<point x="273" y="185"/>
			<point x="311" y="331"/>
			<point x="326" y="640" type="curve"/>
			<point x="544" y="640" type="line"/>
			<point x="521" y="61" type="line"/>
		</contour>
	</outline>
	<guideline x="521" y="61" angle="0"/>
</glyph>
<glyph name="Zhe-cy" format="2">
	<unicode hex="0416"/>
	<advance width="1065"/>
	<outline>
		<contour>
			<point x="518" y="347" type="curve"/>
			<point x="506" y="59" type="line"/>
			<point x="418" y="46" type="line"/>
			<point x="411" y="0" type="line"/>
			<point x="693" y="0" type="line"/>
			<point x="699" y="46" type="line"/>
			<point x="596" y="59" type="line"/>
			<point x="607" y="347" type="line"/>
			<point x="641" y="347"/>
			<point x="683" y="344"/>
			<point x="694" y="342" type="curve" smooth="yes"/>
			<point x="746" y="332"/>
			<point x="764" y="308"/>
			<point x="792" y="243" type="curve" smooth="yes"/>
			<point x="820" y="178"/>
			<point x="838" y="135"/>
			<point x="851" y="103" type="curve" smooth="yes"/>
			<point x="884" y="22"/>
			<point x="914" y="-11"/>
			<point x="978" y="-11" type="curve" smooth="yes"/>
			<point x="1017" y="-11"/>
			<point x="1064" y="12"/>
			<point x="1093" y="38" type="curve"/>
			<point x="1072" y="73" type="line"/>
			<point x="1050" y="60"/>
			<point x="1031" y="50"/>
			<point x="1007" y="50" type="curve" smooth="yes"/>
			<point x="982" y="50"/>
			<point x="965" y="68"/>
			<point x="928" y="155" type="curve" smooth="yes"/>
			<point x="913" y="190"/>
			<point x="897" y="227"/>
			<point x="872" y="282" type="curve" smooth="yes"/>
			<point x="848" y="335"/>
			<point x="807" y="372"/>
			<point x="733" y="375" type="curve"/>
			<point x="733" y="379" type="line"/>
			<point x="782" y="403"/>
			<point x="804" y="429"/>
			<point x="851" y="524" type="curve" smooth="yes"/>
			<point x="894" y="610"/>
			<point x="904" y="616"/>
			<point x="920" y="616" type="curve" smooth="yes"/>
			<point x="927" y="616"/>
			<point x="932" y="614"/>
			<point x="941" y="606" type="curve" smooth="yes"/>
			<point x="974" y="577" type="line"/>
			<point x="1009" y="589"/>
			<point x="1029" y="620"/>
			<point x="1029" y="644" type="curve" smooth="yes"/>
			<point x="1029" y="690"/>
			<point x="989" y="708"/>
			<point x="957" y="708" type="curve" smooth="yes"/>
			<point x="898" y="708"/>
			<point x="873" y="680"/>
			<point x="808" y="552" type="curve" smooth="yes"/>
			<point x="759" y="455"/>
			<point x="734" y="421"/>
			<point x="677" y="404" type="curve" smooth="yes"/>
			<point x="670" y="402"/>
			<point x="638" y="398"/>
			<point x="609" y="397" type="curve"/>
			<point x="617" y="637" type="line"/>
			<point x="710" y="654" type="line"/>
			<point x="716" y="700" type="line"/>
			<point x="444" y="700" type="line"/>
			<point x="438" y="654" type="line"/>
			<point x="531" y="637" type="line"/>
			<point x="520" y="398" type="line"/>
			<point x="503" y="398"/>
			<point x="476" y="400"/>
			<point x="468" y="402" type="curve" smooth="yes"/>
			<point x="395" y="419"/>
			<point x="356" y="472"/>
			<point x="325" y="552" type="curve" smooth="yes"/>
			<point x="275" y="681"/>
			<point x="253" y="707"/>
			<point x="193" y="707" type="curve" smooth="yes"/>
			<point x="150" y="707"/>
			<point x="120" y="681"/>
			<point x="120" y="643" type="curve" smooth="yes"/>
			<point x="120" y="617"/>
			<point x="139" y="595"/>
			<point x="156" y="584" type="curve"/>
			<point x="186" y="606" type="line" smooth="yes"/>
			<point x="194" y="612"/>
			<point x="200" y="614"/>
			<point x="207" y="614" type="curve" smooth="yes"/>
			<point x="229" y="614"/>
			<point x="246" y="594"/>
			<point x="278" y="521" type="curve" smooth="yes"/>
			<point x="313" y="442"/>
			<point x="334" y="408"/>
			<point x="399" y="379" type="curve"/>
			<point x="399" y="375" type="line"/>
			<point x="326" y="370"/>
			<point x="271" y="324"/>
			<point x="246" y="281" type="curve" smooth="yes"/>
			<point x="218" y="233"/>
			<point x="196" y="191"/>
			<point x="171" y="143" type="curve" smooth="yes"/>
			<point x="139" y="81"/>
			<point x="119" y="53"/>
			<point x="91" y="53" type="curve" smooth="yes"/>
			<point x="74" y="53"/>
			<point x="57" y="59"/>
			<point x="24" y="76" type="curve"/>
			<point x="3" y="38" type="line"/>
			<point x="32" y="12"/>
			<point x="79" y="-11"/>
			<point x="120" y="-11" type="curve" smooth="yes"/>
			<point x="198" y="-11"/>
			<point x="227" y="45"/>
			<point x="326" y="243" type="curve" smooth="yes"/>
			<point x="355" y="301"/>
			<point x="387" y="339"/>
			<point x="443" y="345" type="curve" smooth="yes"/>
			<point x="462" y="347"/>
			<point x="498" y="347"/>
		</contour>
	</outline>
</glyph>
<glyph name="Ii-cy" format="2">
	<unicode hex="0418"/>
	<advance width="842"/>
	<outline>
		<contour>
			<point x="617" y="478" type="line"/>
			<point x="600" y="59" type="line"/>
			<point x="511" y="46" type="line"/>
			<point x="505" y="0" type="line"/>
			<point x="786" y="0" type="line"/>
			<point x="792" y="46" type="line"/>
			<point x="689" y="59" type="line"/>
			<point x="711" y="637" type="line"/>
			<point x="803" y="654" type="line"/>
			<point x="809" y="700" type="line"/>
			<point x="536" y="700" type="line"/>
			<point x="530" y="654" type="line"/>
			<point x="623" y="637" type="line"/>
			<point x="619" y="562" type="line"/>
			<point x="262" y="228" type="line"/>
			<point x="277" y="637" type="line"/>
			<point x="369" y="654" type="line"/>
			<point x="376" y="700" type="line"/>
			<point x="102" y="700" type="line"/>
			<point x="95" y="654" type="line"/>
			<point x="189" y="637" type="line"/>
			<point x="166" y="59" type="line"/>
			<point x="77" y="46" type="line"/>
			<point x="71" y="0" type="line"/>
			<point x="353" y="0" type="line"/>
			<point x="359" y="46" type="line"/>
			<point x="256" y="59" type="line"/>
			<point x="259" y="142" type="line"/>
		</contour>
	</outline>
	<anchor name="top" x="455" y="730"/>
</glyph>
<glyph name="Ka-cy" format="2">
	<unicode hex="041A"/>
	<advance width="752"/>
	<outline>
		<contour>
			<point x="295" y="397" type="curve"/>
			<point x="293" y="347" type="line"/>
			<point x="361" y="347"/>
			<point x="423" y="321"/>
			<point x="460" y="243" type="curve" smooth="yes"/>
			<point x="482" y="197"/>
			<point x="510" y="134"/>
			<point x="525" y="99" type="curve" smooth="yes"/>
			<point x="560" y="16"/>
			<point x="586" y="-14"/>
			<point x="647" y="-14" type="curve" smooth="yes"/>
			<point x="697" y="-14"/>
			<point x="741" y="12"/>
			<point x="770" y="38" type="curve"/>
			<point x="749" y="73" type="line"/>
			<point x="727" y="60"/>
			<point x="705" y="49"/>
			<point x="682" y="49" type="curve" smooth="yes"/>
			<point x="654" y="49"/>
			<point x="639" y="69"/>
			<point x="613" y="127" type="curve" smooth="yes"/>
			<point x="588" y="184"/>
			<point x="572" y="220"/>
			<point x="550" y="264" type="curve" smooth="yes"/>
			<point x="518" y="329"/>
			<point x="473" y="366"/>
			<point x="390" y="375" type="curve"/>
			<point x="390" y="379" type="line"/>
			<point x="458" y="406"/>
			<point x="484" y="449"/>
			<point x="521" y="525" type="curve" smooth="yes"/>
			<point x="554" y="592"/>
			<point x="570" y="613"/>
			<point x="593" y="613" type="curve" smooth="yes"/>
			<point x="602" y="613"/>
			<point x="608" y="610"/>
			<point x="614" y="605" type="curve" smooth="yes"/>
			<point x="650" y="575" type="line"/>
			<point x="680" y="587"/>
			<point x="699" y="614"/>
			<point x="699" y="643" type="curve" smooth="yes"/>
			<point x="699" y="683"/>
			<point x="670" y="707"/>
			<point x="623" y="707" type="curve" smooth="yes"/>
			<point x="550" y="707"/>
			<point x="524" y="656"/>
			<point x="477" y="553" type="curve" smooth="yes"/>
			<point x="433" y="456"/>
			<point x="389" y="407"/>
		</contour>
		<contour>
			<point x="188" y="637" type="line"/>
			<point x="163" y="59" type="line"/>
			<point x="74" y="46" type="line"/>
			<point x="68" y="0" type="line"/>
			<point x="350" y="0" type="line"/>
			<point x="356" y="46" type="line"/>
			<point x="253" y="59" type="line"/>
			<point x="274" y="637" type="line"/>
			<point x="366" y="654" type="line"/>
			<point x="373" y="700" type="line"/>
			<point x="101" y="700" type="line"/>
			<point x="95" y="654" type="line"/>
		</contour>
	</outline>
	<anchor name="top" x="419" y="730"/>
</glyph>
<glyph name="El-cy" format="2">
	<unicode hex="041B"/>
	<advance width="781"/>
	<outline>
		<contour>
			<point x="562" y="640" type="line"/>
			<point x="538" y="59" type="line"/>
			<point x="449" y="46" type="line"/>
			<point x="443" y="0" type="line"/>
			<point x="725" y="0" type="line"/>
			<point x="731" y="46" type="line"/>
			<point x="628" y="59" type="line"/>
			<point x="649" y="637" type="line"/>
			<point x="741" y="654" type="line"/>
			<point x="748" y="700" type="line"/>
			<point x="195" y="700" type="line"/>
			<point x="189" y="654" type="line"/>
			<point x="282" y="637" type="line"/>
			<point x="268" y="361"/>
			<point x="209" y="79"/>
			<point x="139" y="77" type="curve"/>
			<point x="83" y="132" type="line"/>
			<point x="39" y="123"/>
			<point x="15" y="101"/>
			<point x="15" y="62" type="curve" smooth="yes"/>
			<point x="15" y="27"/>
			<point x="43" y="-12"/>
			<point x="104" y="-12" type="curve" smooth="yes"/>
			<point x="238" y="-12"/>
			<point x="317" y="176"/>
			<point x="354" y="640" type="curve"/>
		</contour>
	</outline>
</glyph>
<glyph name="U-cy" format="2">
	<unicode hex="0423"/>
	<advance width="689"/>
	<outline>
		<contour>
			<point x="387" y="250" type="line"/>
			<point x="210" y="640" type="line"/>
			<point x="300" y="653" type="line"/>
			<point x="306" y="700" type="line"/>
			<point x="38" y="700" type="line"/>
			<point x="31" y="653" type="line"/>
			<point x="114" y="638" type="line"/>
			<point x="337" y="158" type="line"/>
			<point x="300" y="96"/>
			<point x="267" y="63"/>
			<point x="230" y="63" type="curve" smooth="yes"/>
			<point x="222" y="63"/>
			<point x="215" y="64"/>
			<point x="208" y="65" type="curve"/>
			<point x="178" y="135" type="line"/>
			<point x="125" y="133"/>
			<point x="96" y="104"/>
			<point x="96" y="65" type="curve" smooth="yes"/>
			<point x="96" y="31"/>
			<point x="123" y="-11"/>
			<point x="197" y="-11" type="curve" smooth="yes"/>
			<point x="306" y="-11"/>
			<point x="375" y="92"/>
			<point x="432" y="198" type="curve" smooth="yes"/>
			<point x="497" y="319"/>
			<point x="552" y="435"/>
			<point x="641" y="635" type="curve"/>
			<point x="728" y="652" type="line"/>
			<point x="735" y="700" type="line"/>
			<point x="481" y="700" type="line"/>
			<point x="475" y="656" type="line"/>
			<point x="569" y="638" type="line"/>
			<point x="494" y="457"/>
			<point x="439" y="339"/>
			<point x="392" y="250" type="curve"/>
		</contour>
	</outline>
	<anchor name="top" x="390" y="730"/>
</glyph>
<glyph name="Tse-cy" format="2">
	<unicode hex="0426"/>
	<advance width="852"/>
	<outline>
		<contour>
			<point x="256" y="63" type="line"/>
			<point x="277" y="637" type="line"/>
			<point x="369" y="654" type="line"/>
			<point x="376" y="700" type="line"/>
			<point x="102" y="700" type="line"/>
			<point x="95" y="654" type="line"/>
			<point x="189" y="637" type="line"/>
			<point x="166" y="59" type="line"/>
			<point x="77" y="46" type="line"/>
			<point x="71" y="0" type="line"/>
			<point x="673" y="0" type="line" smooth="yes"/>
			<point x="736" y="0"/>
			<point x="746" y="-20"/>
			<point x="746" y="-157" type="curve"/>
			<point x="800" y="-160" type="line"/>
			<point x="832" y="63" type="line"/>
			<point x="689" y="63" type="line"/>
			<point x="711" y="637" type="line"/>
			<point x="803" y="654" type="line"/>
			<point x="809" y="700" type="line"/>
			<point x="536" y="700" type="line"/>
			<point x="530" y="654" type="line"/>
			<point x="623" y="637" type="line"/>
			<point x="601" y="63" type="line"/>
		</contour>
	</outline>
</glyph>
